<svg width="428" height="926" viewBox="0 0 428 926" fill="none" xmlns="http://www.w3.org/2000/svg">
<g clip-path="url(#clip0_153_3035)">
<mask id="mask0_153_3035" style="mask-type:luminance" maskUnits="userSpaceOnUse" x="0" y="0" width="428" height="926">
<path d="M0 0V926H428V0H0ZM404 407C404 418.05 395.05 427 384 427H44C32.95 427 24 418.05 24 407V298C24 286.95 32.95 278 44 278H384C395.05 278 404 286.95 404 298V407Z" fill="white"/>
</mask>
<g mask="url(#mask0_153_3035)">
<path d="M325.36 572.2C321.13 668.2 271.05 725.73 175.73 740.16C148.85 744.46 121.56 744.91 94.47 746.31C81.41 747.49 67.57 749.21 56.42 756.51C42.37 766.34 52.11 778.65 63.58 785.13C75.01 791.71 88.26 794.85 101.33 796.22C117.87 797.84 134.65 796.58 150.89 793.08C157.23 791.65 163.74 790.17 169.46 787.25C180.95 781.43 176.41 775.29 167.05 770.54C161.31 767.71 154.89 765.89 148.4 764.65C135.45 762.43 121.66 761.29 108.71 763.92C102.32 765.14 89.04 770.39 100.72 775.97C105.21 778.1 110.16 779.12 115.07 779.97C116.11 780.15 115.87 781.69 114.84 781.57C108.76 780.75 90.4 778.21 94.13 768.91C99.58 760 119.03 759 128.57 758.8C142.36 758.7 156.59 760.06 169.33 765.82C183.34 772.05 187.66 784.26 172.16 792.41C162.68 797.23 152.31 799.06 141.98 800.82C128.35 802.92 114.41 803.29 100.71 801.51C83.71 799.1 65.89 794.28 53.05 782.2C47.83 777.28 43.76 769.05 47.24 761.96C54.53 747.58 79.77 744.54 94.19 743.07C127.84 740.97 161.6 738.2 194.3 729.8C267.81 712.01 308.07 666.5 319.36 591.99C320.38 585.34 321.16 578.65 321.8 571.94C321.89 570.96 322.76 570.24 323.74 570.33C324.69 570.42 325.4 571.25 325.35 572.2H325.36Z" fill="#7ACE90"/>
<path d="M281.35 548.27C281.35 548.27 273.11 543.3 266.68 547.93C266.68 547.93 274.34 553.12 281.35 548.27Z" fill="url(#paint0_linear_153_3035)"/>
<mask id="mask1_153_3035" style="mask-type:luminance" maskUnits="userSpaceOnUse" x="266" y="545" width="16" height="6">
<path d="M281.35 548.27C281.35 548.27 273.11 543.3 266.68 547.93C266.68 547.93 274.34 553.12 281.35 548.27Z" fill="white"/>
</mask>
<g mask="url(#mask1_153_3035)">
<path opacity="0.04" d="M266.69 547.93L280.97 548.22L279.48 551.89C279.48 551.89 266.59 550.73 266.69 547.93Z" fill="white"/>
<g opacity="0.6">
<g opacity="0.2">
<path d="M271.71 542.74C271.71 542.74 273.3 547.15 273.06 547.94C272.82 548.73 271.35 553.71 271.35 553.71" fill="url(#paint1_linear_153_3035)"/>
<path d="M271.71 542.74C271.71 542.74 273.3 547.15 273.06 547.94C272.82 548.73 271.35 553.71 271.35 553.71" stroke="white" stroke-width="0.57" stroke-linecap="round" stroke-linejoin="round"/>
</g>
<g opacity="0.2">
<path d="M272.98 541.88C272.98 541.88 274.86 547.29 274.62 548.08C274.38 548.87 272.5 554.55 272.5 554.55" fill="url(#paint2_linear_153_3035)"/>
<path d="M272.98 541.88C272.98 541.88 274.86 547.29 274.62 548.08C274.38 548.87 272.5 554.55 272.5 554.55" stroke="white" stroke-width="0.57" stroke-linecap="round" stroke-linejoin="round"/>
</g>
<g opacity="0.2">
<path d="M273.95 539.12C273.95 539.12 276.95 547.34 276.7 548.13C276.46 548.92 274.78 555.12 274.78 555.12" fill="url(#paint3_linear_153_3035)"/>
<path d="M273.95 539.12C273.95 539.12 276.95 547.34 276.7 548.13C276.46 548.92 274.78 555.12 274.78 555.12" stroke="white" stroke-width="0.57" stroke-linecap="round" stroke-linejoin="round"/>
</g>
<g opacity="0.2">
<path d="M275.76 539.45C275.76 539.45 278.5 547.48 278.26 548.26C278.02 549.04 275.26 556.89 275.26 556.89" fill="url(#paint4_linear_153_3035)"/>
<path d="M275.76 539.45C275.76 539.45 278.5 547.48 278.26 548.26C278.02 549.04 275.26 556.89 275.26 556.89" stroke="white" stroke-width="0.57" stroke-linecap="round" stroke-linejoin="round"/>
</g>
<g opacity="0.2">
<path d="M277.37 539.77C277.37 539.77 280.12 547.76 279.88 548.54C279.64 549.33 276.09 558.65 276.09 558.65" fill="url(#paint5_linear_153_3035)"/>
<path d="M277.37 539.77C277.37 539.77 280.12 547.76 279.88 548.54C279.64 549.33 276.09 558.65 276.09 558.65" stroke="white" stroke-width="0.57" stroke-linecap="round" stroke-linejoin="round"/>
</g>
<g opacity="0.2">
<path d="M279.82 542.85C279.82 542.85 281.69 547.9 281.44 548.69C281.2 549.48 279.54 553.96 279.54 553.96" fill="url(#paint6_linear_153_3035)"/>
<path d="M279.82 542.85C279.82 542.85 281.69 547.9 281.44 548.69C281.2 549.48 279.54 553.96 279.54 553.96" stroke="white" stroke-width="0.57" stroke-linecap="round" stroke-linejoin="round"/>
</g>
<g opacity="0.2">
<path d="M281.08 541.62C281.08 541.62 283.15 547.62 282.91 548.4C282.67 549.19 281.22 554.55 281.22 554.55" fill="url(#paint7_linear_153_3035)"/>
<path d="M281.08 541.62C281.08 541.62 283.15 547.62 282.91 548.4C282.67 549.19 281.22 554.55 281.22 554.55" stroke="white" stroke-width="0.57" stroke-linecap="round" stroke-linejoin="round"/>
</g>
<g opacity="0.2">
<path d="M266.99 542.12C266.99 542.12 268.86 547.17 268.61 547.96C268.37 548.75 266.71 553.23 266.71 553.23" fill="url(#paint8_linear_153_3035)"/>
<path d="M266.99 542.12C266.99 542.12 268.86 547.17 268.61 547.96C268.37 548.75 266.71 553.23 266.71 553.23" stroke="white" stroke-width="0.57" stroke-linecap="round" stroke-linejoin="round"/>
</g>
<g opacity="0.2">
<path d="M268.26 540.89C268.26 540.89 270.33 546.89 270.09 547.67C269.85 548.46 268.4 553.82 268.4 553.82" fill="url(#paint9_linear_153_3035)"/>
<path d="M268.26 540.89C268.26 540.89 270.33 546.89 270.09 547.67C269.85 548.46 268.4 553.82 268.4 553.82" stroke="white" stroke-width="0.57" stroke-linecap="round" stroke-linejoin="round"/>
</g>
<g opacity="0.2">
<path d="M270.02 541.97C270.02 541.97 271.89 547.02 271.64 547.81C271.4 548.6 269.74 553.08 269.74 553.08" fill="url(#paint10_linear_153_3035)"/>
<path d="M270.02 541.97C270.02 541.97 271.89 547.02 271.64 547.81C271.4 548.6 269.74 553.08 269.74 553.08" stroke="white" stroke-width="0.57" stroke-linecap="round" stroke-linejoin="round"/>
</g>
<g opacity="0.2">
<path d="M265.33 542.04C265.33 542.04 267.2 547.09 266.95 547.88C266.71 548.67 265.05 553.15 265.05 553.15" fill="url(#paint11_linear_153_3035)"/>
<path d="M265.33 542.04C265.33 542.04 267.2 547.09 266.95 547.88C266.71 548.67 265.05 553.15 265.05 553.15" stroke="white" stroke-width="0.57" stroke-linecap="round" stroke-linejoin="round"/>
</g>
</g>
</g>
<path d="M312.83 524.86C312.02 533.52 305.96 541.33 298.31 545.05C290.98 548.75 282.75 549.55 274.74 549.28C273.48 549.22 273.44 547.34 274.73 547.26C282.23 546.94 290.03 545.6 296.45 541.7C302.38 538.17 306.64 532.11 307.17 525.23C306.68 520.7 313 520.4 312.83 524.86Z" fill="#7DD39C"/>
<path d="M284.35 545.12C284.35 545.12 279.17 537.01 271.36 538.3C271.36 538.3 275.92 546.35 284.35 545.12Z" fill="url(#paint12_linear_153_3035)"/>
<mask id="mask2_153_3035" style="mask-type:luminance" maskUnits="userSpaceOnUse" x="271" y="538" width="14" height="8">
<path d="M284.35 545.12C284.35 545.12 279.17 537.01 271.36 538.3C271.36 538.3 275.92 546.35 284.35 545.12Z" fill="white"/>
</mask>
<g mask="url(#mask2_153_3035)">
<path opacity="0.04" d="M271.37 538.3L284.03 544.9L281.07 547.52C281.07 547.52 270.03 540.76 271.37 538.29V538.3Z" fill="white"/>
<g opacity="0.6">
<g opacity="0.2">
<path d="M278.17 535.89C278.17 535.89 277.64 540.55 277.07 541.15C276.5 541.75 272.97 545.56 272.97 545.56" fill="url(#paint13_linear_153_3035)"/>
<path d="M278.17 535.89C278.17 535.89 277.64 540.55 277.07 541.15C276.5 541.75 272.97 545.56 272.97 545.56" stroke="white" stroke-width="0.57" stroke-linecap="round" stroke-linejoin="round"/>
</g>
<g opacity="0.2">
<path d="M279.69 535.68C279.69 535.68 278.97 541.36 278.41 541.96C277.84 542.56 273.64 546.82 273.64 546.82" fill="url(#paint14_linear_153_3035)"/>
<path d="M279.69 535.68C279.69 535.68 278.97 541.36 278.41 541.96C277.84 542.56 273.64 546.82 273.64 546.82" stroke="white" stroke-width="0.57" stroke-linecap="round" stroke-linejoin="round"/>
</g>
<g opacity="0.2">
<path d="M281.78 533.64C281.78 533.64 280.81 542.34 280.25 542.94C279.68 543.54 275.42 548.35 275.42 548.35" fill="url(#paint15_linear_153_3035)"/>
<path d="M281.78 533.64C281.78 533.64 280.81 542.34 280.25 542.94C279.68 543.54 275.42 548.35 275.42 548.35" stroke="white" stroke-width="0.57" stroke-linecap="round" stroke-linejoin="round"/>
</g>
<g opacity="0.2">
<path d="M283.26 534.74C283.26 534.74 282.15 543.15 281.58 543.75C281.01 544.35 275.07 550.15 275.07 550.15" fill="url(#paint16_linear_153_3035)"/>
<path d="M283.26 534.74C283.26 534.74 282.15 543.15 281.58 543.75C281.01 544.35 275.07 550.15 275.07 550.15" stroke="white" stroke-width="0.57" stroke-linecap="round" stroke-linejoin="round"/>
</g>
<g opacity="0.2">
<path d="M284.56 535.74C284.56 535.74 283.48 544.12 282.91 544.72C282.34 545.32 275.03 552.09 275.03 552.09" fill="url(#paint17_linear_153_3035)"/>
<path d="M284.56 535.74C284.56 535.74 283.48 544.12 282.91 544.72C282.34 545.32 275.03 552.09 275.03 552.09" stroke="white" stroke-width="0.57" stroke-linecap="round" stroke-linejoin="round"/>
</g>
<g opacity="0.2">
<path d="M285.38 539.58C285.38 539.58 284.81 544.93 284.24 545.53C283.67 546.13 280.2 549.41 280.2 549.41" fill="url(#paint18_linear_153_3035)"/>
<path d="M285.38 539.58C285.38 539.58 284.81 544.93 284.24 545.53C283.67 546.13 280.2 549.41 280.2 549.41" stroke="white" stroke-width="0.57" stroke-linecap="round" stroke-linejoin="round"/>
</g>
<g opacity="0.2">
<path d="M287.07 539.04C287.07 539.04 286.26 545.33 285.69 545.93C285.12 546.53 281.45 550.69 281.45 550.69" fill="url(#paint19_linear_153_3035)"/>
<path d="M287.07 539.04C287.07 539.04 286.26 545.33 285.69 545.93C285.12 546.53 281.45 550.69 281.45 550.69" stroke="white" stroke-width="0.57" stroke-linecap="round" stroke-linejoin="round"/>
</g>
<g opacity="0.2">
<path d="M288.16 540.79C288.16 540.79 287.59 546.14 287.02 546.74C286.45 547.34 282.98 550.62 282.98 550.62" fill="url(#paint20_linear_153_3035)"/>
<path d="M288.16 540.79C288.16 540.79 287.59 546.14 287.02 546.74C286.45 547.34 282.98 550.62 282.98 550.62" stroke="white" stroke-width="0.57" stroke-linecap="round" stroke-linejoin="round"/>
</g>
<g opacity="0.2">
<path d="M274.22 533.23C274.22 533.23 273.65 538.58 273.08 539.18C272.51 539.78 269.04 543.06 269.04 543.06" fill="url(#paint21_linear_153_3035)"/>
<path d="M274.22 533.23C274.22 533.23 273.65 538.58 273.08 539.18C272.51 539.78 269.04 543.06 269.04 543.06" stroke="white" stroke-width="0.57" stroke-linecap="round" stroke-linejoin="round"/>
</g>
<g opacity="0.2">
<path d="M275.9 532.69C275.9 532.69 275.09 538.98 274.52 539.58C273.95 540.18 270.28 544.34 270.28 544.34" fill="url(#paint22_linear_153_3035)"/>
<path d="M275.9 532.69C275.9 532.69 275.09 538.98 274.52 539.58C273.95 540.18 270.28 544.34 270.28 544.34" stroke="white" stroke-width="0.57" stroke-linecap="round" stroke-linejoin="round"/>
</g>
<g opacity="0.2">
<path d="M277 534.45C277 534.45 276.43 539.8 275.86 540.4C275.29 541 271.82 544.28 271.82 544.28" fill="url(#paint23_linear_153_3035)"/>
<path d="M277 534.45C277 534.45 276.43 539.8 275.86 540.4C275.29 541 271.82 544.28 271.82 544.28" stroke="white" stroke-width="0.57" stroke-linecap="round" stroke-linejoin="round"/>
</g>
<g opacity="0.2">
<path d="M272.76 532.43C272.76 532.43 272.19 537.78 271.62 538.38C271.05 538.98 267.58 542.26 267.58 542.26" fill="url(#paint24_linear_153_3035)"/>
<path d="M272.76 532.43C272.76 532.43 272.19 537.78 271.62 538.38C271.05 538.98 267.58 542.26 267.58 542.26" stroke="white" stroke-width="0.57" stroke-linecap="round" stroke-linejoin="round"/>
</g>
</g>
</g>
<path d="M283.75 549.66C283.75 549.66 274.29 551.42 272.56 559.15C272.56 559.15 281.73 557.94 283.75 549.66Z" fill="url(#paint25_linear_153_3035)"/>
<mask id="mask3_153_3035" style="mask-type:luminance" maskUnits="userSpaceOnUse" x="272" y="549" width="12" height="11">
<path d="M283.75 549.66C283.75 549.66 274.29 551.42 272.56 559.15C272.56 559.15 281.73 557.94 283.75 549.66Z" fill="white"/>
</mask>
<g mask="url(#mask3_153_3035)">
<path opacity="0.04" d="M272.56 559.15L283.43 549.89L284.75 553.62C284.75 553.62 274.34 561.32 272.56 559.15Z" fill="white"/>
<g opacity="0.6">
<g opacity="0.2">
<path d="M272.87 551.93C272.87 551.93 276.99 554.17 277.33 554.92C277.67 555.67 279.88 560.37 279.88 560.37" fill="url(#paint26_linear_153_3035)"/>
<path d="M272.87 551.93C272.87 551.93 276.99 554.17 277.33 554.92C277.67 555.67 279.88 560.37 279.88 560.37" stroke="white" stroke-width="0.57" stroke-linecap="round" stroke-linejoin="round"/>
</g>
<g opacity="0.2">
<path d="M273.24 550.44C273.24 550.44 278.24 553.23 278.58 553.98C278.92 554.73 281.29 560.23 281.29 560.23" fill="url(#paint27_linear_153_3035)"/>
<path d="M273.24 550.44C273.24 550.44 278.24 553.23 278.58 553.98C278.92 554.73 281.29 560.23 281.29 560.23" stroke="white" stroke-width="0.57" stroke-linecap="round" stroke-linejoin="round"/>
</g>
<g opacity="0.2">
<path d="M272.14 547.74C272.14 547.74 279.84 551.9 280.18 552.65C280.52 553.4 283.38 559.15 283.38 559.15" fill="url(#paint28_linear_153_3035)"/>
<path d="M272.14 547.74C272.14 547.74 279.84 551.9 280.18 552.65C280.52 553.4 283.38 559.15 283.38 559.15" stroke="white" stroke-width="0.57" stroke-linecap="round" stroke-linejoin="round"/>
</g>
<g opacity="0.2">
<path d="M273.71 546.78C273.71 546.78 281.09 550.96 281.43 551.71C281.77 552.46 284.92 560.15 284.92 560.15" fill="url(#paint29_linear_153_3035)"/>
<path d="M273.71 546.78C273.71 546.78 281.09 550.96 281.43 551.71C281.77 552.46 284.92 560.15 284.92 560.15" stroke="white" stroke-width="0.57" stroke-linecap="round" stroke-linejoin="round"/>
</g>
<g opacity="0.2">
<path d="M275.13 545.95C275.13 545.95 282.49 550.09 282.83 550.84C283.17 551.59 286.71 560.91 286.71 560.91" fill="url(#paint30_linear_153_3035)"/>
<path d="M275.13 545.95C275.13 545.95 282.49 550.09 282.83 550.84C283.17 551.59 286.71 560.91 286.71 560.91" stroke="white" stroke-width="0.57" stroke-linecap="round" stroke-linejoin="round"/>
</g>
<g opacity="0.2">
<path d="M279 546.63C279 546.63 283.75 549.17 284.09 549.92C284.43 550.67 286.17 555.12 286.17 555.12" fill="url(#paint31_linear_153_3035)"/>
<path d="M279 546.63C279 546.63 283.75 549.17 284.09 549.92C284.43 550.67 286.17 555.12 286.17 555.12" stroke="white" stroke-width="0.57" stroke-linecap="round" stroke-linejoin="round"/>
</g>
<g opacity="0.2">
<path d="M279.13 544.86C279.13 544.86 284.66 547.97 285 548.72C285.34 549.47 287.82 554.44 287.82 554.44" fill="url(#paint32_linear_153_3035)"/>
<path d="M279.13 544.86C279.13 544.86 284.66 547.97 285 548.72C285.34 549.47 287.82 554.44 287.82 554.44" stroke="white" stroke-width="0.57" stroke-linecap="round" stroke-linejoin="round"/>
</g>
<g opacity="0.2">
<path d="M281.16 544.51C281.16 544.51 285.91 547.05 286.25 547.8C286.59 548.55 288.33 553 288.33 553" fill="url(#paint33_linear_153_3035)"/>
<path d="M281.16 544.51C281.16 544.51 285.91 547.05 286.25 547.8C286.59 548.55 288.33 553 288.33 553" stroke="white" stroke-width="0.57" stroke-linecap="round" stroke-linejoin="round"/>
</g>
<g opacity="0.2">
<path d="M268.92 554.6C268.92 554.6 273.67 557.14 274.01 557.89C274.35 558.64 276.09 563.09 276.09 563.09" fill="url(#paint34_linear_153_3035)"/>
<path d="M268.92 554.6C268.92 554.6 273.67 557.14 274.01 557.89C274.35 558.64 276.09 563.09 276.09 563.09" stroke="white" stroke-width="0.57" stroke-linecap="round" stroke-linejoin="round"/>
</g>
<g opacity="0.2">
<path d="M269.06 552.84C269.06 552.84 274.59 555.95 274.93 556.7C275.27 557.45 277.75 562.42 277.75 562.42" fill="url(#paint35_linear_153_3035)"/>
<path d="M269.06 552.84C269.06 552.84 274.59 555.95 274.93 556.7C275.27 557.45 277.75 562.42 277.75 562.42" stroke="white" stroke-width="0.57" stroke-linecap="round" stroke-linejoin="round"/>
</g>
<g opacity="0.2">
<path d="M271.09 552.48C271.09 552.48 275.84 555.02 276.18 555.77C276.52 556.52 278.26 560.97 278.26 560.97" fill="url(#paint36_linear_153_3035)"/>
<path d="M271.09 552.48C271.09 552.48 275.84 555.02 276.18 555.77C276.52 556.52 278.26 560.97 278.26 560.97" stroke="white" stroke-width="0.57" stroke-linecap="round" stroke-linejoin="round"/>
</g>
<g opacity="0.2">
<path d="M267.63 555.65C267.63 555.65 272.38 558.19 272.72 558.94C273.06 559.69 274.8 564.14 274.8 564.14" fill="url(#paint37_linear_153_3035)"/>
<path d="M267.63 555.65C267.63 555.65 272.38 558.19 272.72 558.94C273.06 559.69 274.8 564.14 274.8 564.14" stroke="white" stroke-width="0.57" stroke-linecap="round" stroke-linejoin="round"/>
</g>
</g>
</g>
<path d="M276.06 540.05C279.59 541.7 284.73 544.23 288.25 545.8C290.04 546.58 288.93 549.27 287.11 548.55C285.36 547.38 283.01 545.72 281.23 544.54L275.66 540.75C275.26 540.49 275.63 539.84 276.06 540.05Z" fill="#7DD39C"/>
<path d="M275.2 556.41L285.83 545.86C287.36 544.42 289.43 546.82 287.77 548.12L275.72 557.01C275.34 557.31 274.84 556.73 275.2 556.4V556.41Z" fill="#7DD39C"/>
<path d="M290.79 543.29C290.79 543.29 285.61 535.18 277.8 536.47C277.8 536.47 282.36 544.52 290.79 543.29Z" fill="url(#paint38_linear_153_3035)"/>
<mask id="mask4_153_3035" style="mask-type:luminance" maskUnits="userSpaceOnUse" x="277" y="536" width="14" height="8">
<path d="M290.79 543.29C290.79 543.29 285.61 535.18 277.8 536.47C277.8 536.47 282.36 544.52 290.79 543.29Z" fill="white"/>
</mask>
<g mask="url(#mask4_153_3035)">
<path opacity="0.04" d="M277.8 536.48L290.46 543.08L287.5 545.7C287.5 545.7 276.46 538.94 277.8 536.47V536.48Z" fill="white"/>
<g opacity="0.6">
<g opacity="0.2">
<path d="M284.61 534.06C284.61 534.06 284.08 538.72 283.51 539.32C282.94 539.92 279.41 543.73 279.41 543.73" fill="url(#paint39_linear_153_3035)"/>
<path d="M284.61 534.06C284.61 534.06 284.08 538.72 283.51 539.32C282.94 539.92 279.41 543.73 279.41 543.73" stroke="white" stroke-width="0.57" stroke-linecap="round" stroke-linejoin="round"/>
</g>
<g opacity="0.2">
<path d="M286.13 533.85C286.13 533.85 285.41 539.53 284.85 540.13C284.28 540.73 280.08 544.99 280.08 544.99" fill="url(#paint40_linear_153_3035)"/>
<path d="M286.13 533.85C286.13 533.85 285.41 539.53 284.85 540.13C284.28 540.73 280.08 544.99 280.08 544.99" stroke="white" stroke-width="0.57" stroke-linecap="round" stroke-linejoin="round"/>
</g>
<g opacity="0.2">
<path d="M288.22 531.81C288.22 531.81 287.25 540.51 286.69 541.11C286.12 541.71 281.86 546.52 281.86 546.52" fill="url(#paint41_linear_153_3035)"/>
<path d="M288.22 531.81C288.22 531.81 287.25 540.51 286.69 541.11C286.12 541.71 281.86 546.52 281.86 546.52" stroke="white" stroke-width="0.57" stroke-linecap="round" stroke-linejoin="round"/>
</g>
<g opacity="0.2">
<path d="M289.69 532.92C289.69 532.92 288.58 541.33 288.01 541.93C287.44 542.53 281.5 548.33 281.5 548.33" fill="url(#paint42_linear_153_3035)"/>
<path d="M289.69 532.92C289.69 532.92 288.58 541.33 288.01 541.93C287.44 542.53 281.5 548.33 281.5 548.33" stroke="white" stroke-width="0.57" stroke-linecap="round" stroke-linejoin="round"/>
</g>
<g opacity="0.2">
<path d="M290.99 533.92C290.99 533.92 289.91 542.3 289.34 542.9C288.77 543.5 281.46 550.27 281.46 550.27" fill="url(#paint43_linear_153_3035)"/>
<path d="M290.99 533.92C290.99 533.92 289.91 542.3 289.34 542.9C288.77 543.5 281.46 550.27 281.46 550.27" stroke="white" stroke-width="0.57" stroke-linecap="round" stroke-linejoin="round"/>
</g>
<g opacity="0.2">
<path d="M291.82 537.75C291.82 537.75 291.25 543.1 290.68 543.7C290.11 544.3 286.64 547.58 286.64 547.58" fill="url(#paint44_linear_153_3035)"/>
<path d="M291.82 537.75C291.82 537.75 291.25 543.1 290.68 543.7C290.11 544.3 286.64 547.58 286.64 547.58" stroke="white" stroke-width="0.57" stroke-linecap="round" stroke-linejoin="round"/>
</g>
<g opacity="0.2">
<path d="M293.5 537.22C293.5 537.22 292.69 543.51 292.12 544.11C291.55 544.71 287.88 548.87 287.88 548.87" fill="url(#paint45_linear_153_3035)"/>
<path d="M293.5 537.22C293.5 537.22 292.69 543.51 292.12 544.11C291.55 544.71 287.88 548.87 287.88 548.87" stroke="white" stroke-width="0.57" stroke-linecap="round" stroke-linejoin="round"/>
</g>
<g opacity="0.2">
<path d="M294.6 538.97C294.6 538.97 294.03 544.32 293.46 544.92C292.89 545.52 289.42 548.8 289.42 548.8" fill="url(#paint46_linear_153_3035)"/>
<path d="M294.6 538.97C294.6 538.97 294.03 544.32 293.46 544.92C292.89 545.52 289.42 548.8 289.42 548.8" stroke="white" stroke-width="0.57" stroke-linecap="round" stroke-linejoin="round"/>
</g>
<g opacity="0.2">
<path d="M280.65 531.41C280.65 531.41 280.08 536.76 279.51 537.36C278.94 537.96 275.47 541.24 275.47 541.24" fill="url(#paint47_linear_153_3035)"/>
<path d="M280.65 531.41C280.65 531.41 280.08 536.76 279.51 537.36C278.94 537.96 275.47 541.24 275.47 541.24" stroke="white" stroke-width="0.57" stroke-linecap="round" stroke-linejoin="round"/>
</g>
<g opacity="0.2">
<path d="M282.34 530.87C282.34 530.87 281.53 537.16 280.96 537.76C280.39 538.36 276.72 542.52 276.72 542.52" fill="url(#paint48_linear_153_3035)"/>
<path d="M282.34 530.87C282.34 530.87 281.53 537.16 280.96 537.76C280.39 538.36 276.72 542.52 276.72 542.52" stroke="white" stroke-width="0.57" stroke-linecap="round" stroke-linejoin="round"/>
</g>
<g opacity="0.2">
<path d="M283.43 532.62C283.43 532.62 282.86 537.97 282.29 538.57C281.72 539.17 278.25 542.45 278.25 542.45" fill="url(#paint49_linear_153_3035)"/>
<path d="M283.43 532.62C283.43 532.62 282.86 537.97 282.29 538.57C281.72 539.17 278.25 542.45 278.25 542.45" stroke="white" stroke-width="0.57" stroke-linecap="round" stroke-linejoin="round"/>
</g>
<g opacity="0.2">
<path d="M279.2 530.6C279.2 530.6 278.63 535.95 278.06 536.55C277.49 537.15 274.02 540.43 274.02 540.43" fill="url(#paint50_linear_153_3035)"/>
<path d="M279.2 530.6C279.2 530.6 278.63 535.95 278.06 536.55C277.49 537.15 274.02 540.43 274.02 540.43" stroke="white" stroke-width="0.57" stroke-linecap="round" stroke-linejoin="round"/>
</g>
</g>
</g>
<path d="M290.84 548.64C290.84 548.64 282.33 553.13 282.97 561.02C282.97 561.02 291.37 557.15 290.84 548.64Z" fill="url(#paint51_linear_153_3035)"/>
<mask id="mask5_153_3035" style="mask-type:luminance" maskUnits="userSpaceOnUse" x="282" y="548" width="9" height="14">
<path d="M290.84 548.64C290.84 548.64 282.33 553.13 282.97 561.02C282.97 561.02 291.37 557.15 290.84 548.64Z" fill="white"/>
</mask>
<g mask="url(#mask5_153_3035)">
<path opacity="0.04" d="M282.96 561.01L290.6 548.94L292.97 552.11C292.97 552.11 285.31 562.55 282.97 561.01H282.96Z" fill="white"/>
<g opacity="0.6">
<g opacity="0.2">
<path d="M281.12 554.03C281.12 554.03 285.72 554.95 286.27 555.56C286.82 556.18 290.32 560.01 290.32 560.01" fill="url(#paint52_linear_153_3035)"/>
<path d="M281.12 554.03C281.12 554.03 285.72 554.95 286.27 555.56C286.82 556.18 290.32 560.01 290.32 560.01" stroke="white" stroke-width="0.57" stroke-linecap="round" stroke-linejoin="round"/>
</g>
<g opacity="0.2">
<path d="M281.04 552.5C281.04 552.5 286.64 553.69 287.19 554.3C287.74 554.92 291.63 559.46 291.63 559.46" fill="url(#paint53_linear_153_3035)"/>
<path d="M281.04 552.5C281.04 552.5 286.64 553.69 287.19 554.3C287.74 554.92 291.63 559.46 291.63 559.46" stroke="white" stroke-width="0.57" stroke-linecap="round" stroke-linejoin="round"/>
</g>
<g opacity="0.2">
<path d="M279.18 550.24C279.18 550.24 287.77 551.93 288.32 552.54C288.87 553.15 293.31 557.8 293.31 557.8" fill="url(#paint54_linear_153_3035)"/>
<path d="M279.18 550.24C279.18 550.24 287.77 551.93 288.32 552.54C288.87 553.15 293.31 557.8 293.31 557.8" stroke="white" stroke-width="0.57" stroke-linecap="round" stroke-linejoin="round"/>
</g>
<g opacity="0.2">
<path d="M280.4 548.86C280.4 548.86 288.69 550.66 289.24 551.28C289.79 551.9 295.07 558.3 295.07 558.3" fill="url(#paint55_linear_153_3035)"/>
<path d="M280.4 548.86C280.4 548.86 288.69 550.66 289.24 551.28C289.79 551.9 295.07 558.3 295.07 558.3" stroke="white" stroke-width="0.57" stroke-linecap="round" stroke-linejoin="round"/>
</g>
<g opacity="0.2">
<path d="M281.51 547.65C281.51 547.65 289.77 549.42 290.32 550.04C290.87 550.66 297.01 558.51 297.01 558.51" fill="url(#paint56_linear_153_3035)"/>
<path d="M281.51 547.65C281.51 547.65 289.77 549.42 290.32 550.04C290.87 550.66 297.01 558.51 297.01 558.51" stroke="white" stroke-width="0.57" stroke-linecap="round" stroke-linejoin="round"/>
</g>
<g opacity="0.2">
<path d="M285.4 547.15C285.4 547.15 290.69 548.16 291.24 548.78C291.79 549.4 294.77 553.13 294.77 553.13" fill="url(#paint57_linear_153_3035)"/>
<path d="M285.4 547.15C285.4 547.15 290.69 548.16 291.24 548.78C291.79 549.4 294.77 553.13 294.77 553.13" stroke="white" stroke-width="0.57" stroke-linecap="round" stroke-linejoin="round"/>
</g>
<g opacity="0.2">
<path d="M285 545.43C285 545.43 291.2 546.76 291.75 547.38C292.3 548 296.14 552.01 296.14 552.01" fill="url(#paint58_linear_153_3035)"/>
<path d="M285 545.43C285 545.43 291.2 546.76 291.75 547.38C292.3 548 296.14 552.01 296.14 552.01" stroke="white" stroke-width="0.57" stroke-linecap="round" stroke-linejoin="round"/>
</g>
<g opacity="0.2">
<path d="M286.84 544.48C286.84 544.48 292.13 545.49 292.68 546.11C293.23 546.73 296.21 550.46 296.21 550.46" fill="url(#paint59_linear_153_3035)"/>
<path d="M286.84 544.48C286.84 544.48 292.13 545.49 292.68 546.11C293.23 546.73 296.21 550.46 296.21 550.46" stroke="white" stroke-width="0.57" stroke-linecap="round" stroke-linejoin="round"/>
</g>
<g opacity="0.2">
<path d="M278.14 557.75C278.14 557.75 283.43 558.76 283.98 559.38C284.53 560 287.51 563.73 287.51 563.73" fill="url(#paint60_linear_153_3035)"/>
<path d="M278.14 557.75C278.14 557.75 283.43 558.76 283.98 559.38C284.53 560 287.51 563.73 287.51 563.73" stroke="white" stroke-width="0.57" stroke-linecap="round" stroke-linejoin="round"/>
</g>
<g opacity="0.2">
<path d="M277.75 556.02C277.75 556.02 283.95 557.35 284.5 557.97C285.05 558.59 288.89 562.6 288.89 562.6" fill="url(#paint61_linear_153_3035)"/>
<path d="M277.75 556.02C277.75 556.02 283.95 557.35 284.5 557.97C285.05 558.59 288.89 562.6 288.89 562.6" stroke="white" stroke-width="0.57" stroke-linecap="round" stroke-linejoin="round"/>
</g>
<g opacity="0.2">
<path d="M279.59 555.08C279.59 555.08 284.88 556.09 285.43 556.71C285.98 557.33 288.96 561.06 288.96 561.06" fill="url(#paint62_linear_153_3035)"/>
<path d="M279.59 555.08C279.59 555.08 284.88 556.09 285.43 556.71C285.98 557.33 288.96 561.06 288.96 561.06" stroke="white" stroke-width="0.57" stroke-linecap="round" stroke-linejoin="round"/>
</g>
<g opacity="0.2">
<path d="M277.22 559.13C277.22 559.13 282.51 560.14 283.06 560.76C283.61 561.38 286.59 565.11 286.59 565.11" fill="url(#paint63_linear_153_3035)"/>
<path d="M277.22 559.13C277.22 559.13 282.51 560.14 283.06 560.76C283.61 561.38 286.59 565.11 286.59 565.11" stroke="white" stroke-width="0.57" stroke-linecap="round" stroke-linejoin="round"/>
</g>
</g>
</g>
<path d="M282.5 538.22C286.03 539.87 291.17 542.4 294.69 543.97C296.48 544.75 295.37 547.44 293.55 546.72C291.8 545.55 289.45 543.89 287.67 542.71L282.1 538.92C281.7 538.66 282.07 538.01 282.5 538.22Z" fill="#7DD39C"/>
<path d="M284.68 557.62L291.71 544.4C292.75 542.57 295.43 544.25 294.23 545.99L285.36 558.05C285.08 558.45 284.44 558.05 284.68 557.62Z" fill="#7DD39C"/>
<path d="M296.1 540.39C296.1 540.39 290.92 532.28 283.11 533.57C283.11 533.57 287.67 541.62 296.1 540.39Z" fill="url(#paint64_linear_153_3035)"/>
<mask id="mask6_153_3035" style="mask-type:luminance" maskUnits="userSpaceOnUse" x="283" y="533" width="14" height="8">
<path d="M296.1 540.39C296.1 540.39 290.92 532.28 283.11 533.57C283.11 533.57 287.67 541.62 296.1 540.39Z" fill="white"/>
</mask>
<g mask="url(#mask6_153_3035)">
<path opacity="0.04" d="M283.11 533.57L295.77 540.17L292.81 542.79C292.81 542.79 281.77 536.03 283.11 533.56V533.57Z" fill="white"/>
<g opacity="0.6">
<g opacity="0.2">
<path d="M289.91 531.16C289.91 531.16 289.38 535.82 288.81 536.42C288.24 537.02 284.71 540.83 284.71 540.83" fill="url(#paint65_linear_153_3035)"/>
<path d="M289.91 531.16C289.91 531.16 289.38 535.82 288.81 536.42C288.24 537.02 284.71 540.83 284.71 540.83" stroke="white" stroke-width="0.57" stroke-linecap="round" stroke-linejoin="round"/>
</g>
<g opacity="0.2">
<path d="M291.43 530.95C291.43 530.95 290.71 536.63 290.15 537.23C289.58 537.83 285.38 542.09 285.38 542.09" fill="url(#paint66_linear_153_3035)"/>
<path d="M291.43 530.95C291.43 530.95 290.71 536.63 290.15 537.23C289.58 537.83 285.38 542.09 285.38 542.09" stroke="white" stroke-width="0.57" stroke-linecap="round" stroke-linejoin="round"/>
</g>
<g opacity="0.2">
<path d="M293.52 528.91C293.52 528.91 292.55 537.61 291.99 538.21C291.42 538.81 287.16 543.62 287.16 543.62" fill="url(#paint67_linear_153_3035)"/>
<path d="M293.52 528.91C293.52 528.91 292.55 537.61 291.99 538.21C291.42 538.81 287.16 543.62 287.16 543.62" stroke="white" stroke-width="0.57" stroke-linecap="round" stroke-linejoin="round"/>
</g>
<g opacity="0.2">
<path d="M295 530.01C295 530.01 293.89 538.42 293.32 539.02C292.75 539.62 286.81 545.42 286.81 545.42" fill="url(#paint68_linear_153_3035)"/>
<path d="M295 530.01C295 530.01 293.89 538.42 293.32 539.02C292.75 539.62 286.81 545.42 286.81 545.42" stroke="white" stroke-width="0.57" stroke-linecap="round" stroke-linejoin="round"/>
</g>
<g opacity="0.2">
<path d="M296.3 531.01C296.3 531.01 295.22 539.39 294.65 539.99C294.08 540.59 286.77 547.36 286.77 547.36" fill="url(#paint69_linear_153_3035)"/>
<path d="M296.3 531.01C296.3 531.01 295.22 539.39 294.65 539.99C294.08 540.59 286.77 547.36 286.77 547.36" stroke="white" stroke-width="0.57" stroke-linecap="round" stroke-linejoin="round"/>
</g>
<g opacity="0.2">
<path d="M297.12 534.85C297.12 534.85 296.55 540.2 295.98 540.8C295.41 541.4 291.94 544.68 291.94 544.68" fill="url(#paint70_linear_153_3035)"/>
<path d="M297.12 534.85C297.12 534.85 296.55 540.2 295.98 540.8C295.41 541.4 291.94 544.68 291.94 544.68" stroke="white" stroke-width="0.57" stroke-linecap="round" stroke-linejoin="round"/>
</g>
<g opacity="0.2">
<path d="M298.81 534.31C298.81 534.31 298 540.6 297.43 541.2C296.86 541.8 293.19 545.96 293.19 545.96" fill="url(#paint71_linear_153_3035)"/>
<path d="M298.81 534.31C298.81 534.31 298 540.6 297.43 541.2C296.86 541.8 293.19 545.96 293.19 545.96" stroke="white" stroke-width="0.57" stroke-linecap="round" stroke-linejoin="round"/>
</g>
<g opacity="0.2">
<path d="M299.9 536.06C299.9 536.06 299.33 541.41 298.76 542.01C298.19 542.61 294.72 545.89 294.72 545.89" fill="url(#paint72_linear_153_3035)"/>
<path d="M299.9 536.06C299.9 536.06 299.33 541.41 298.76 542.01C298.19 542.61 294.72 545.89 294.72 545.89" stroke="white" stroke-width="0.57" stroke-linecap="round" stroke-linejoin="round"/>
</g>
<g opacity="0.2">
<path d="M285.96 528.5C285.96 528.5 285.39 533.85 284.82 534.45C284.25 535.05 280.78 538.33 280.78 538.33" fill="url(#paint73_linear_153_3035)"/>
<path d="M285.96 528.5C285.96 528.5 285.39 533.85 284.82 534.45C284.25 535.05 280.78 538.33 280.78 538.33" stroke="white" stroke-width="0.57" stroke-linecap="round" stroke-linejoin="round"/>
</g>
<g opacity="0.2">
<path d="M287.64 527.96C287.64 527.96 286.83 534.25 286.26 534.85C285.69 535.45 282.02 539.61 282.02 539.61" fill="url(#paint74_linear_153_3035)"/>
<path d="M287.64 527.96C287.64 527.96 286.83 534.25 286.26 534.85C285.69 535.45 282.02 539.61 282.02 539.61" stroke="white" stroke-width="0.57" stroke-linecap="round" stroke-linejoin="round"/>
</g>
<g opacity="0.2">
<path d="M288.74 529.71C288.74 529.71 288.17 535.06 287.6 535.66C287.03 536.26 283.56 539.54 283.56 539.54" fill="url(#paint75_linear_153_3035)"/>
<path d="M288.74 529.71C288.74 529.71 288.17 535.06 287.6 535.66C287.03 536.26 283.56 539.54 283.56 539.54" stroke="white" stroke-width="0.57" stroke-linecap="round" stroke-linejoin="round"/>
</g>
<g opacity="0.2">
<path d="M284.5 527.7C284.5 527.7 283.93 533.05 283.36 533.65C282.79 534.25 279.32 537.53 279.32 537.53" fill="url(#paint76_linear_153_3035)"/>
<path d="M284.5 527.7C284.5 527.7 283.93 533.05 283.36 533.65C282.79 534.25 279.32 537.53 279.32 537.53" stroke="white" stroke-width="0.57" stroke-linecap="round" stroke-linejoin="round"/>
</g>
</g>
</g>
<path d="M297.26 546.3C297.26 546.3 289.68 552.23 291.7 559.88C291.7 559.88 299.28 554.58 297.26 546.3Z" fill="url(#paint77_linear_153_3035)"/>
<mask id="mask7_153_3035" style="mask-type:luminance" maskUnits="userSpaceOnUse" x="291" y="546" width="7" height="14">
<path d="M297.26 546.3C297.26 546.3 289.68 552.23 291.7 559.88C291.7 559.88 299.28 554.58 297.26 546.3Z" fill="white"/>
</mask>
<g mask="url(#mask7_153_3035)">
<path opacity="0.04" d="M291.71 559.88L297.09 546.65L299.98 549.35C299.98 549.35 294.29 560.98 291.71 559.88Z" fill="white"/>
<g opacity="0.6">
<g opacity="0.2">
<path d="M288.66 553.33C288.66 553.33 293.35 553.42 294 553.93C294.65 554.44 298.78 557.59 298.78 557.59" fill="url(#paint78_linear_153_3035)"/>
<path d="M288.66 553.33C288.66 553.33 293.35 553.42 294 553.93C294.65 554.44 298.78 557.59 298.78 557.59" stroke="white" stroke-width="0.57" stroke-linecap="round" stroke-linejoin="round"/>
</g>
<g opacity="0.2">
<path d="M288.31 551.84C288.31 551.84 294.03 552.02 294.68 552.52C295.33 553.02 299.97 556.81 299.97 556.81" fill="url(#paint79_linear_153_3035)"/>
<path d="M288.31 551.84C288.31 551.84 294.03 552.02 294.68 552.52C295.33 553.02 299.97 556.81 299.97 556.81" stroke="white" stroke-width="0.57" stroke-linecap="round" stroke-linejoin="round"/>
</g>
<g opacity="0.2">
<path d="M286.08 549.95C286.08 549.95 294.83 550.09 295.48 550.6C296.13 551.11 301.32 554.89 301.32 554.89" fill="url(#paint80_linear_153_3035)"/>
<path d="M286.08 549.95C286.08 549.95 294.83 550.09 295.48 550.6C296.13 551.11 301.32 554.89 301.32 554.89" stroke="white" stroke-width="0.57" stroke-linecap="round" stroke-linejoin="round"/>
</g>
<g opacity="0.2">
<path d="M287.03 548.37C287.03 548.37 295.51 548.68 296.16 549.19C296.81 549.7 303.15 555.07 303.15 555.07" fill="url(#paint81_linear_153_3035)"/>
<path d="M287.03 548.37C287.03 548.37 295.51 548.68 296.16 549.19C296.81 549.7 303.15 555.07 303.15 555.07" stroke="white" stroke-width="0.57" stroke-linecap="round" stroke-linejoin="round"/>
</g>
<g opacity="0.2">
<path d="M287.91 546.99C287.91 546.99 296.35 547.27 297 547.78C297.65 548.29 305.08 554.93 305.08 554.93" fill="url(#paint82_linear_153_3035)"/>
<path d="M287.91 546.99C287.91 546.99 296.35 547.27 297 547.78C297.65 548.29 305.08 554.93 305.08 554.93" stroke="white" stroke-width="0.57" stroke-linecap="round" stroke-linejoin="round"/>
</g>
<g opacity="0.2">
<path d="M291.65 545.8C291.65 545.8 297.03 545.86 297.68 546.37C298.33 546.88 301.92 550.02 301.92 550.02" fill="url(#paint83_linear_153_3035)"/>
<path d="M291.65 545.8C291.65 545.8 297.03 545.86 297.68 546.37C298.33 546.88 301.92 550.02 301.92 550.02" stroke="white" stroke-width="0.57" stroke-linecap="round" stroke-linejoin="round"/>
</g>
<g opacity="0.2">
<path d="M290.96 544.17C290.96 544.17 297.3 544.38 297.95 544.89C298.6 545.4 303.09 548.67 303.09 548.67" fill="url(#paint84_linear_153_3035)"/>
<path d="M290.96 544.17C290.96 544.17 297.3 544.38 297.95 544.89C298.6 545.4 303.09 548.67 303.09 548.67" stroke="white" stroke-width="0.57" stroke-linecap="round" stroke-linejoin="round"/>
</g>
<g opacity="0.2">
<path d="M292.6 542.92C292.6 542.92 297.98 542.98 298.63 543.49C299.28 544 302.87 547.14 302.87 547.14" fill="url(#paint85_linear_153_3035)"/>
<path d="M292.6 542.92C292.6 542.92 297.98 542.98 298.63 543.49C299.28 544 302.87 547.14 302.87 547.14" stroke="white" stroke-width="0.57" stroke-linecap="round" stroke-linejoin="round"/>
</g>
<g opacity="0.2">
<path d="M286.39 557.52C286.39 557.52 291.77 557.58 292.42 558.09C293.07 558.6 296.66 561.74 296.66 561.74" fill="url(#paint86_linear_153_3035)"/>
<path d="M286.39 557.52C286.39 557.52 291.77 557.58 292.42 558.09C293.07 558.6 296.66 561.74 296.66 561.74" stroke="white" stroke-width="0.57" stroke-linecap="round" stroke-linejoin="round"/>
</g>
<g opacity="0.2">
<path d="M285.69 555.89C285.69 555.89 292.03 556.1 292.68 556.61C293.33 557.12 297.82 560.39 297.82 560.39" fill="url(#paint87_linear_153_3035)"/>
<path d="M285.69 555.89C285.69 555.89 292.03 556.1 292.68 556.61C293.33 557.12 297.82 560.39 297.82 560.39" stroke="white" stroke-width="0.57" stroke-linecap="round" stroke-linejoin="round"/>
</g>
<g opacity="0.2">
<path d="M287.33 554.63C287.33 554.63 292.71 554.69 293.36 555.2C294.01 555.71 297.6 558.85 297.6 558.85" fill="url(#paint88_linear_153_3035)"/>
<path d="M287.33 554.63C287.33 554.63 292.71 554.69 293.36 555.2C294.01 555.71 297.6 558.85 297.6 558.85" stroke="white" stroke-width="0.57" stroke-linecap="round" stroke-linejoin="round"/>
</g>
<g opacity="0.2">
<path d="M285.73 559.05C285.73 559.05 291.11 559.11 291.76 559.62C292.41 560.13 296 563.27 296 563.27" fill="url(#paint89_linear_153_3035)"/>
<path d="M285.73 559.05C285.73 559.05 291.11 559.11 291.76 559.62C292.41 560.13 296 563.27 296 563.27" stroke="white" stroke-width="0.57" stroke-linecap="round" stroke-linejoin="round"/>
</g>
</g>
</g>
<path d="M287.8 535.32C291.33 536.97 296.47 539.5 299.99 541.07C301.78 541.85 300.67 544.54 298.85 543.82C297.1 542.65 294.75 540.99 292.97 539.81L287.4 536.02C287 535.76 287.37 535.11 287.8 535.32Z" fill="#7DD39C"/>
<path d="M292.79 556.23L297.37 541.97C298.08 539.99 301 541.15 300.13 543.08L293.54 556.53C293.34 556.97 292.64 556.69 292.8 556.23H292.79Z" fill="#7DD39C"/>
<path d="M300.76 535.78C300.76 535.78 295.58 527.67 287.77 528.96C287.77 528.96 292.33 537.01 300.76 535.78Z" fill="url(#paint90_linear_153_3035)"/>
<mask id="mask8_153_3035" style="mask-type:luminance" maskUnits="userSpaceOnUse" x="287" y="528" width="14" height="8">
<path d="M300.76 535.78C300.76 535.78 295.58 527.67 287.77 528.96C287.77 528.96 292.33 537.01 300.76 535.78Z" fill="white"/>
</mask>
<g mask="url(#mask8_153_3035)">
<path opacity="0.04" d="M287.77 528.96L300.43 535.56L297.47 538.18C297.47 538.18 286.43 531.42 287.77 528.95V528.96Z" fill="white"/>
<g opacity="0.6">
<g opacity="0.2">
<path d="M294.58 526.54C294.58 526.54 294.05 531.2 293.48 531.8C292.91 532.4 289.38 536.21 289.38 536.21" fill="url(#paint91_linear_153_3035)"/>
<path d="M294.58 526.54C294.58 526.54 294.05 531.2 293.48 531.8C292.91 532.4 289.38 536.21 289.38 536.21" stroke="white" stroke-width="0.57" stroke-linecap="round" stroke-linejoin="round"/>
</g>
<g opacity="0.2">
<path d="M296.09 526.33C296.09 526.33 295.37 532.01 294.81 532.61C294.24 533.21 290.04 537.47 290.04 537.47" fill="url(#paint92_linear_153_3035)"/>
<path d="M296.09 526.33C296.09 526.33 295.37 532.01 294.81 532.61C294.24 533.21 290.04 537.47 290.04 537.47" stroke="white" stroke-width="0.57" stroke-linecap="round" stroke-linejoin="round"/>
</g>
<g opacity="0.2">
<path d="M298.19 524.29C298.19 524.29 297.22 532.99 296.66 533.59C296.09 534.19 291.83 539 291.83 539" fill="url(#paint93_linear_153_3035)"/>
<path d="M298.19 524.29C298.19 524.29 297.22 532.99 296.66 533.59C296.09 534.19 291.83 539 291.83 539" stroke="white" stroke-width="0.57" stroke-linecap="round" stroke-linejoin="round"/>
</g>
<g opacity="0.2">
<path d="M299.66 525.4C299.66 525.4 298.55 533.81 297.98 534.41C297.41 535.01 291.47 540.81 291.47 540.81" fill="url(#paint94_linear_153_3035)"/>
<path d="M299.66 525.4C299.66 525.4 298.55 533.81 297.98 534.41C297.41 535.01 291.47 540.81 291.47 540.81" stroke="white" stroke-width="0.57" stroke-linecap="round" stroke-linejoin="round"/>
</g>
<g opacity="0.2">
<path d="M300.96 526.4C300.96 526.4 299.88 534.78 299.31 535.38C298.74 535.98 291.43 542.75 291.43 542.75" fill="url(#paint95_linear_153_3035)"/>
<path d="M300.96 526.4C300.96 526.4 299.88 534.78 299.31 535.38C298.74 535.98 291.43 542.75 291.43 542.75" stroke="white" stroke-width="0.57" stroke-linecap="round" stroke-linejoin="round"/>
</g>
<g opacity="0.2">
<path d="M301.79 530.24C301.79 530.24 301.22 535.59 300.65 536.19C300.08 536.79 296.61 540.07 296.61 540.07" fill="url(#paint96_linear_153_3035)"/>
<path d="M301.79 530.24C301.79 530.24 301.22 535.59 300.65 536.19C300.08 536.79 296.61 540.07 296.61 540.07" stroke="white" stroke-width="0.57" stroke-linecap="round" stroke-linejoin="round"/>
</g>
<g opacity="0.2">
<path d="M303.47 529.7C303.47 529.7 302.66 535.99 302.09 536.59C301.52 537.19 297.85 541.35 297.85 541.35" fill="url(#paint97_linear_153_3035)"/>
<path d="M303.47 529.7C303.47 529.7 302.66 535.99 302.09 536.59C301.52 537.19 297.85 541.35 297.85 541.35" stroke="white" stroke-width="0.57" stroke-linecap="round" stroke-linejoin="round"/>
</g>
<g opacity="0.2">
<path d="M304.57 531.45C304.57 531.45 304 536.8 303.43 537.4C302.86 538 299.39 541.28 299.39 541.28" fill="url(#paint98_linear_153_3035)"/>
<path d="M304.57 531.45C304.57 531.45 304 536.8 303.43 537.4C302.86 538 299.39 541.28 299.39 541.28" stroke="white" stroke-width="0.57" stroke-linecap="round" stroke-linejoin="round"/>
</g>
<g opacity="0.2">
<path d="M290.62 523.89C290.62 523.89 290.05 529.24 289.48 529.84C288.91 530.44 285.44 533.72 285.44 533.72" fill="url(#paint99_linear_153_3035)"/>
<path d="M290.62 523.89C290.62 523.89 290.05 529.24 289.48 529.84C288.91 530.44 285.44 533.72 285.44 533.72" stroke="white" stroke-width="0.57" stroke-linecap="round" stroke-linejoin="round"/>
</g>
<g opacity="0.2">
<path d="M292.3 523.35C292.3 523.35 291.49 529.64 290.92 530.24C290.35 530.84 286.68 535 286.68 535" fill="url(#paint100_linear_153_3035)"/>
<path d="M292.3 523.35C292.3 523.35 291.49 529.64 290.92 530.24C290.35 530.84 286.68 535 286.68 535" stroke="white" stroke-width="0.57" stroke-linecap="round" stroke-linejoin="round"/>
</g>
<g opacity="0.2">
<path d="M293.4 525.1C293.4 525.1 292.83 530.45 292.26 531.05C291.69 531.65 288.22 534.93 288.22 534.93" fill="url(#paint101_linear_153_3035)"/>
<path d="M293.4 525.1C293.4 525.1 292.83 530.45 292.26 531.05C291.69 531.65 288.22 534.93 288.22 534.93" stroke="white" stroke-width="0.57" stroke-linecap="round" stroke-linejoin="round"/>
</g>
<g opacity="0.2">
<path d="M289.16 523.08C289.16 523.08 288.59 528.43 288.02 529.03C287.45 529.63 283.98 532.91 283.98 532.91" fill="url(#paint102_linear_153_3035)"/>
<path d="M289.16 523.08C289.16 523.08 288.59 528.43 288.02 529.03C287.45 529.63 283.98 532.91 283.98 532.91" stroke="white" stroke-width="0.57" stroke-linecap="round" stroke-linejoin="round"/>
</g>
</g>
</g>
<path d="M301.53 544.18C301.53 544.18 296.09 552.12 300.34 558.8C300.34 558.8 305.97 551.46 301.53 544.18Z" fill="url(#paint103_linear_153_3035)"/>
<mask id="mask9_153_3035" style="mask-type:luminance" maskUnits="userSpaceOnUse" x="298" y="544" width="6" height="15">
<path d="M301.53 544.18C301.53 544.18 296.09 552.12 300.34 558.8C300.34 558.8 305.97 551.46 301.53 544.18Z" fill="white"/>
</mask>
<g mask="url(#mask9_153_3035)">
<path opacity="0.04" d="M300.33 558.8L301.46 544.56L305.03 546.26C305.03 546.26 303.12 559.06 300.33 558.8Z" fill="white"/>
<g opacity="0.6">
<g opacity="0.2">
<path d="M295.45 553.48C295.45 553.48 299.94 552.15 300.72 552.44C301.49 552.73 306.38 554.49 306.38 554.49" fill="url(#paint104_linear_153_3035)"/>
<path d="M295.45 553.48C295.45 553.48 299.94 552.15 300.72 552.44C301.49 552.73 306.38 554.49 306.38 554.49" stroke="white" stroke-width="0.57" stroke-linecap="round" stroke-linejoin="round"/>
</g>
<g opacity="0.2">
<path d="M294.66 552.16C294.66 552.16 300.17 550.6 300.94 550.89C301.71 551.18 307.28 553.38 307.28 553.38" fill="url(#paint105_linear_153_3035)"/>
<path d="M294.66 552.16C294.66 552.16 300.17 550.6 300.94 550.89C301.71 551.18 307.28 553.38 307.28 553.38" stroke="white" stroke-width="0.57" stroke-linecap="round" stroke-linejoin="round"/>
</g>
<g opacity="0.2">
<path d="M291.96 551.04C291.96 551.04 300.34 548.53 301.12 548.82C301.89 549.11 307.98 551.15 307.98 551.15" fill="url(#paint106_linear_153_3035)"/>
<path d="M291.96 551.04C291.96 551.04 300.34 548.53 301.12 548.82C301.89 549.11 307.98 551.15 307.98 551.15" stroke="white" stroke-width="0.57" stroke-linecap="round" stroke-linejoin="round"/>
</g>
<g opacity="0.2">
<path d="M292.4 549.25C292.4 549.25 300.57 546.98 301.34 547.27C302.11 547.56 309.78 550.76 309.78 550.76" fill="url(#paint107_linear_153_3035)"/>
<path d="M292.4 549.25C292.4 549.25 300.57 546.98 301.34 547.27C302.11 547.56 309.78 550.76 309.78 550.76" stroke="white" stroke-width="0.57" stroke-linecap="round" stroke-linejoin="round"/>
</g>
<g opacity="0.2">
<path d="M292.81 547.66C292.81 547.66 300.94 545.38 301.72 545.67C302.49 545.96 311.59 550.04 311.59 550.04" fill="url(#paint108_linear_153_3035)"/>
<path d="M292.81 547.66C292.81 547.66 300.94 545.38 301.72 545.67C302.49 545.96 311.59 550.04 311.59 550.04" stroke="white" stroke-width="0.57" stroke-linecap="round" stroke-linejoin="round"/>
</g>
<g opacity="0.2">
<path d="M296.03 545.4C296.03 545.4 301.18 543.83 301.95 544.12C302.72 544.41 307.1 546.32 307.1 546.32" fill="url(#paint109_linear_153_3035)"/>
<path d="M296.03 545.4C296.03 545.4 301.18 543.83 301.95 544.12C302.72 544.41 307.1 546.32 307.1 546.32" stroke="white" stroke-width="0.57" stroke-linecap="round" stroke-linejoin="round"/>
</g>
<g opacity="0.2">
<path d="M294.87 544.06C294.87 544.06 300.98 542.35 301.75 542.63C302.52 542.92 307.79 544.68 307.79 544.68" fill="url(#paint110_linear_153_3035)"/>
<path d="M294.87 544.06C294.87 544.06 300.98 542.35 301.75 542.63C302.52 542.92 307.79 544.68 307.79 544.68" stroke="white" stroke-width="0.57" stroke-linecap="round" stroke-linejoin="round"/>
</g>
<g opacity="0.2">
<path d="M294.55 558.16C294.55 558.16 299.7 556.59 300.47 556.88C301.24 557.17 305.62 559.08 305.62 559.08" fill="url(#paint111_linear_153_3035)"/>
<path d="M294.55 558.16C294.55 558.16 299.7 556.59 300.47 556.88C301.24 557.17 305.62 559.08 305.62 559.08" stroke="white" stroke-width="0.57" stroke-linecap="round" stroke-linejoin="round"/>
</g>
<g opacity="0.2">
<path d="M293.39 556.82C293.39 556.82 299.5 555.11 300.27 555.39C301.04 555.68 306.31 557.44 306.31 557.44" fill="url(#paint112_linear_153_3035)"/>
<path d="M293.39 556.82C293.39 556.82 299.5 555.11 300.27 555.39C301.04 555.68 306.31 557.44 306.31 557.44" stroke="white" stroke-width="0.57" stroke-linecap="round" stroke-linejoin="round"/>
</g>
<g opacity="0.2">
<path d="M294.58 555.13C294.58 555.13 299.73 553.56 300.5 553.85C301.27 554.14 305.65 556.05 305.65 556.05" fill="url(#paint113_linear_153_3035)"/>
<path d="M294.58 555.13C294.58 555.13 299.73 553.56 300.5 553.85C301.27 554.14 305.65 556.05 305.65 556.05" stroke="white" stroke-width="0.57" stroke-linecap="round" stroke-linejoin="round"/>
</g>
<g opacity="0.2">
<path d="M294.38 559.82C294.38 559.82 299.53 558.25 300.3 558.54C301.07 558.83 305.45 560.74 305.45 560.74" fill="url(#paint114_linear_153_3035)"/>
<path d="M294.38 559.82C294.38 559.82 299.53 558.25 300.3 558.54C301.07 558.83 305.45 560.74 305.45 560.74" stroke="white" stroke-width="0.57" stroke-linecap="round" stroke-linejoin="round"/>
</g>
</g>
</g>
<path d="M292.46 530.7C295.99 532.35 301.13 534.88 304.65 536.45C306.44 537.23 305.33 539.92 303.51 539.2C301.76 538.03 299.41 536.37 297.63 535.19L292.06 531.4C291.66 531.14 292.03 530.49 292.46 530.7Z" fill="#7DD39C"/>
<path d="M300.27 555L300.32 540.02C300.4 537.91 303.53 538.14 303.29 540.25L301.07 555.06C301.01 555.54 300.26 555.48 300.27 555Z" fill="#7DD39C"/>
<path d="M317.07 536.97C317.39 537.66 318.18 537.74 318.63 537.12C319.34 536.14 320.12 535.16 320.97 534.17L321.35 534.64C320.31 536.12 319.46 537.76 318.76 539.43C318.61 539.8 318.62 540.23 318.79 540.57C321.16 545.47 323.65 550.3 326.04 554.38C326.48 555.13 327.44 554.95 327.73 554.07C328.7 551.09 330.11 548.08 331.58 544.74L331.84 545.12C330.15 550.1 330.01 555.83 329.83 559.79C329.82 560.1 329.9 560.4 330.07 560.63C330.73 561.53 331.37 562.32 331.98 562.98C334.5 565.73 337.59 567.89 340.93 569.56C341.71 569.95 342.54 569 342.25 568.03C340.8 563.23 340.07 558.41 339.71 553.57L340.35 554.43C340.5 554.63 340.58 554.88 340.59 555.15C340.81 560.02 342.96 566.81 344.46 570.73C344.57 571.02 344.78 571.24 345.03 571.33C347.52 572.24 350.06 572.91 352.56 573.37C352.44 573.21 352.36 572.98 352.19 572.87C348.33 570.2 343.83 558.08 343.83 558.08C344.15 558.06 344.44 558.22 344.63 558.53C347.66 563.47 351.69 570.33 353.44 572.94C353.6 573.18 353.83 573.32 354.09 573.35C357.52 573.68 362.34 573.99 365.52 573.75C366.32 573.69 366.75 572.52 366.24 571.78C363.44 567.7 355.21 556.91 339.46 544.98C326.3 535.01 316.24 524.32 310.89 518.15C310.1 517.25 308.85 518.43 309.35 519.61C311.27 524.14 314.02 530.47 317.09 536.98L317.07 536.97Z" fill="#A0CDDC"/>
<path d="M305.1 531.88C304.97 532.77 305.74 533.52 306.62 533.36C308.03 533.12 309.51 532.93 311.06 532.8L311.14 533.54C309.05 533.94 307.06 534.64 305.2 535.5C304.79 535.69 304.51 536.08 304.45 536.52C303.61 542.87 302.94 549.27 302.67 554.91C302.62 555.95 303.74 556.63 304.64 556.1C307.67 554.32 311.17 552.91 314.97 551.26L314.99 551.82C309.86 554.73 305.84 559.62 302.97 562.94C302.75 563.2 302.63 563.54 302.65 563.88C302.73 565.24 302.86 566.49 303.05 567.6C303.82 572.2 305.58 576.77 307.94 581.12C308.49 582.14 310 582.02 310.35 580.92C312.09 575.46 314.58 570.6 317.48 566.04L317.57 567.35C317.59 567.65 317.5 567.94 317.34 568.18C314.27 572.64 311.93 580.45 310.84 585.19C310.76 585.54 310.83 585.91 311.03 586.22C313.01 589.17 315.21 591.97 317.5 594.53C317.48 594.29 317.55 594.01 317.45 593.76C315.23 588.07 318.73 573.56 318.73 573.56C319.07 573.81 319.27 574.22 319.26 574.65C319.08 581.6 318.65 591.12 318.7 594.91C318.7 595.26 318.85 595.58 319.1 595.83C322.45 599.08 327.28 603.54 330.75 606.08C331.63 606.72 332.86 606.07 332.83 604.98C332.67 598.98 331.39 582.38 323.03 558.29C316.04 538.15 312.79 520.06 311.38 510.02C311.17 508.55 309.06 508.5 308.79 509.96C307.73 515.59 306.32 523.53 305.11 531.89L305.1 531.88Z" fill="#75BFA4"/>
<path d="M359.81 555.46C360.37 548.79 369.14 546.1 369.14 546.1C368.56 547.48 363.19 555.43 363.42 557.69C365.91 559 368.67 560.06 371.6 560.93C371.2 555.09 378.74 548.33 378.74 548.33C378.07 549.92 376.16 559.62 376.48 562.16C379.2 562.74 381.99 563.18 384.78 563.51C384.54 557.39 389.99 552.74 389.99 552.74C389.35 554.26 389.52 561.54 389.81 564C392.1 564.17 392.67 564.31 394.84 564.37C395.49 558.61 400.09 554.6 400.09 554.6C399.49 556.01 401.2 562.09 401.44 564.4C410.06 564.36 416.32 563.67 416.32 563.67C415.57 558.03 414.65 552.93 413.6 548.31C411.21 548.71 405.27 547.99 404.02 549C404.02 549 405.3 544.08 411.72 542.11C410.99 539.42 410.84 538.06 410.02 535.73C407.33 536.1 399.45 538.4 397.96 539.6C397.96 539.6 399.77 530.85 407.97 530.46C406.97 528.15 405.93 526.06 404.85 524.16C402.04 524.5 398.06 525.2 396.4 526.54C396.4 526.54 396.9 522.86 401.62 519.2C399.73 516.66 397.77 514.62 395.77 512.99C393.37 513.39 390.79 514.04 389.54 515.05C389.54 515.05 389.82 512.97 391.97 510.38C385.7 506.87 379.39 506.91 374.34 508.33C369.57 509.67 364.8 513.51 360.96 518.08C349.17 509.28 351.17 511.81 350.68 514.47L359.12 520.44C356.95 523.39 355.21 526.51 354.11 529.38C349.24 542.06 352.63 550.24 359.84 555.48L359.81 555.46ZM408.27 560.03C408.85 560.94 408.59 562.16 407.67 562.74C406.76 563.32 405.49 563.29 404.91 562.37C404.33 561.46 404.64 560.01 405.55 559.43C406.46 558.85 407.68 559.11 408.26 560.03H408.27ZM405.17 556.93C405.61 557.62 405.41 558.54 404.72 558.99C404.03 559.44 403.6 559.01 403.15 558.32C402.71 557.63 402.42 556.93 403.11 556.49C403.8 556.05 404.72 556.25 405.17 556.94V556.93Z" fill="#75BFA4"/>
<path d="M193.8 523.09C199.8 528.45 203.86 544.12 203.86 544.12C205.64 531.82 196.95 521.98 196.95 521.98C200.67 521.21 213.02 527.2 218.76 530.13C218.81 530.17 218.87 530.2 218.92 530.24C218.92 530.24 218.92 530.23 218.9 530.2C220.65 531.09 221.75 531.68 221.75 531.68C220.42 526.77 211.1 522.16 205.03 519.63C218.43 520.02 226.33 505.58 226.33 505.58C226.1 505.88 225.87 506.16 225.64 506.44V506.43C221.48 511.07 210.56 513.12 204.06 513.96C219.76 510.84 221.61 490.55 221.61 490.55C220.9 493.49 219.77 496.12 218.38 498.47C220.29 494.94 220.87 492.32 220.87 492.32C217.12 503.15 199.86 511.23 199.86 511.23C212.57 497.97 210.38 483.33 210.38 483.33C209.84 496.41 196.87 510.42 196.87 510.42C192.6 510.6 191.16 513 190.78 515.35C190.4 517.71 191.23 520.16 192.82 521.97L193.82 523.1L193.8 523.09ZM201.3 513.91C201.25 513.91 201.2 513.92 201.15 513.93C201.13 513.93 201.11 513.93 201.11 513.93C201.17 513.93 201.24 513.93 201.3 513.92V513.91Z" fill="#599B80"/>
<path d="M147.32 523.05C147.42 523.53 146.84 524.16 146.17 524.29C145.1 524.5 143.98 524.77 142.8 525.08L142.74 525.53C144.32 525.24 145.84 525.14 147.25 525.17C147.56 525.17 147.77 525.33 147.82 525.58C148.46 529.05 148.97 532.58 149.18 535.79C149.22 536.38 148.36 537.05 147.68 536.97C145.38 536.7 142.72 536.76 139.84 536.76V537.09C143.72 537.49 146.77 539.32 148.95 540.52C149.12 540.61 149.21 540.78 149.19 540.98C149.13 541.79 149.03 542.54 148.89 543.23C148.3 546.09 146.97 549.18 145.18 552.29C144.76 553.02 143.62 553.33 143.35 552.78C142.03 550.05 140.13 547.86 137.94 545.95L137.87 546.73C137.86 546.91 137.92 547.05 138.05 547.15C140.38 548.96 142.16 552.9 142.99 555.37C143.05 555.55 142.99 555.79 142.85 556.01C141.35 558.22 139.68 560.39 137.94 562.44C137.95 562.29 137.9 562.15 137.98 561.98C139.66 558.13 137 550.6 137 550.6C136.74 550.83 136.59 551.12 136.6 551.36C136.74 555.34 137.07 560.74 137.03 562.96C137.03 563.16 136.92 563.39 136.73 563.59C134.19 566.32 130.52 570.11 127.89 572.45C127.22 573.04 126.29 572.97 126.31 572.33C126.43 568.81 130.06 558.97 136.41 542.91C141.71 529.49 141.78 522.03 142.85 515.86C143.01 514.95 144.61 514.4 144.82 515.18C145.63 518.18 146.44 518.5 147.36 523.04L147.32 523.05Z" fill="#B2D4BE"/>
<path d="M139.59 519.83C139.21 520.14 139.25 520.99 139.68 521.52C140.37 522.37 141.06 523.29 141.77 524.29L141.53 524.67C140.5 523.43 139.4 522.39 138.29 521.51C138.05 521.32 137.79 521.3 137.6 521.46C134.89 523.72 132.24 526.11 130.03 528.44C129.62 528.87 129.85 529.93 130.42 530.31C132.36 531.57 134.37 533.32 136.59 535.16L136.39 535.42C133.14 533.24 129.63 532.69 127.18 532.22C126.99 532.18 126.82 532.26 126.7 532.42C126.23 533.08 125.83 533.73 125.49 534.35C124.11 536.92 123.16 540.15 122.55 543.68C122.41 544.51 123.09 545.48 123.65 545.22C126.41 543.96 129.27 543.49 132.18 543.43L131.73 544.07C131.63 544.22 131.48 544.29 131.32 544.28C128.37 544.18 124.48 546.07 122.27 547.44C122.1 547.54 122 547.75 121.97 548.03C121.71 550.69 121.61 553.42 121.63 556.12C121.71 556 121.84 555.92 121.89 555.75C123.06 551.71 129.92 547.62 129.92 547.62C129.97 547.97 129.91 548.28 129.74 548.46C127.09 551.43 123.38 555.38 122 557.1C121.87 557.26 121.81 557.5 121.83 557.78C122.04 561.5 122.44 566.76 122.96 570.24C123.09 571.12 125.25 572.5 125.37 571.87C126.37 566.2 129.91 558.48 135.3 542.08C139.8 528.37 144.52 522.59 147.65 517.16C148.11 516.36 147.23 514.91 146.57 515.38C144.03 517.17 143.2 516.9 139.59 519.8V519.83Z" fill="#8AC1C5"/>
<path d="M200.36 519C199.05 517.56 197.43 516.46 195.63 515.9C192.79 515.02 186.29 516.22 183.34 522.4C183.28 517.41 184.38 512.52 187.07 508.53C188.56 506.3 190.47 504.45 192.61 502.94L189.9 499.27C183.18 505.16 180.71 513.52 181.62 522.09C179.66 518.43 174.75 511.59 166.19 513.64C157.53 515.72 151.62 526.6 152.33 539.64C154.2 537.54 156.55 535.53 159.41 534.13C168.6 529.64 173.4 533.04 167.13 535.54C161.45 537.8 154.62 545.48 153.39 546.9C154.05 549.69 155.02 552.51 156.32 555.32C157.97 551.87 160.26 548.37 163.35 546.01C171.52 539.76 176.79 542.2 171.12 545.9C166.67 548.81 161.63 557.67 159.68 561.33C160.54 562.64 161.48 563.94 162.51 565.21C163.86 562.88 165.56 560.7 167.69 559.07C175.86 552.82 181.13 555.26 175.46 558.96C172.34 560.99 169.15 565.96 166.91 570.02C170.78 573.77 175.49 577.27 181.17 580.32C181.17 580.32 185.62 577.53 191 572.76C189.49 569.12 187.41 564.86 185.05 562.22C180.27 556.88 185.86 556.14 192.56 564.73C193.58 566.04 194.43 567.41 195.15 568.81C196.59 567.35 198.03 565.76 199.41 564.08C197.91 560.1 195.4 554.32 192.47 551.04C187.69 545.7 193.28 544.96 199.98 553.55C201.31 555.26 202.36 557.09 203.19 558.92C204.82 556.42 206.24 553.75 207.31 550.96C205.15 547.3 201.65 541.96 198.18 539.25C192.59 534.89 197.9 533.07 205.94 540.27C207.16 541.37 208.24 542.56 209.18 543.81C210.23 536.04 208.13 527.57 200.36 518.99V519Z" fill="#E2EBE2"/>
<path d="M65.27 262.65C49.67 255.11 33.19 248.91 15.87 247.11C14.95 246.97 13.07 246.79 12.14 246.76C10.89 246.68 9.63 246.58 8.37 246.46V246.34C10.83 245.96 13.43 245.51 15.93 245.45C29.97 244.77 44.07 248.71 56.35 255.39C59.67 257.3 62.92 259.31 65.84 261.82L65.27 262.64V262.65Z" fill="#BBD0A0"/>
<path d="M66.06 263.19C41.6 260.06 16.71 256.23 -7.78996 261.08L-7.82996 260.96C9.76004 253.8 29.62 254.66 48.04 257.65C54.22 258.74 60.3501 260.15 66.3 262.21L66.06 263.18V263.19Z" fill="#A5BC84"/>
<path d="M112.58 286.16C124.48 264.56 136.42 240.92 129.5 216.02L129.61 215.97C131.43 218.63 132.91 221.57 133.98 224.69C140.24 243.78 132.37 264.9 120.15 279.86C118.04 282.33 115.88 284.74 113.34 286.82L112.58 286.17V286.16Z" fill="#C4DD9F"/>
<path d="M111.02 285.79C126.23 275.92 143.69 265.6 153.14 249.66L153.25 249.71C148.55 263.33 136.13 273.07 124.25 280.39C120.15 282.82 115.92 285 111.45 286.69L111.02 285.79Z" fill="#BBD0A0"/>
<path d="M91.91 253.55C90.93 252.22 88.96 252.23 88 253.57C86.46 255.71 84.76 257.86 82.89 260.04L81.83 259.18C84.05 255.96 85.76 252.47 87.1 248.94C87.39 248.17 87.26 247.3 86.76 246.64C79.66 237.22 72.28 227.96 65.34 220.2C64.06 218.77 61.71 219.33 61.21 221.18C59.53 227.42 56.76 233.81 53.91 240.87L53.16 240.16C56.14 229.72 55.09 218.1 54.56 210.04C54.52 209.41 54.23 208.82 53.76 208.4C51.9 206.73 50.11 205.26 48.43 204.04C41.48 199.01 33.26 195.27 24.55 192.61C22.51 191.98 20.68 194.09 21.65 195.99C26.43 205.4 29.43 215.01 31.51 224.72L29.71 223.12C29.3 222.75 29.03 222.26 28.94 221.72C27.21 211.9 20.2 198.62 15.5 191C15.15 190.43 14.58 190.03 13.93 189.9C7.51999 188.58 1.01998 187.76 -5.30002 187.36C-4.96002 187.66 -4.70002 188.1 -4.25002 188.3C6.00999 192.89 20.16 216.48 20.16 216.48C19.38 216.59 18.6 216.32 18.06 215.74C9.31998 206.38 -2.40002 193.34 -7.37002 188.42C-7.83002 187.97 -8.43002 187.72 -9.08002 187.73C-17.68 187.79 -29.78 188.17 -37.61 189.32C-39.6 189.61 -40.37 192.07 -38.92 193.46C-30.95 201.12 -7.84002 221.25 34.26 242.08C69.44 259.48 97.08 279.02 111.91 290.38C114.09 292.05 116.92 289.38 115.39 287.11C109.51 278.35 101.1 266.11 91.89 253.57L91.91 253.55Z" fill="#75BFA4"/>
<path d="M115.76 269.79C115.7 268.67 114.57 267.94 113.52 268.35C111.85 269 110.08 269.6 108.2 270.15L107.92 269.26C110.39 268.24 112.66 266.89 114.74 265.37C115.19 265.04 115.44 264.49 115.4 263.93C114.84 255.91 114.07 247.88 112.99 240.87C112.79 239.58 111.24 239.03 110.27 239.9C107 242.84 103.04 245.46 98.78 248.44L98.62 247.76C104.2 242.9 107.92 235.88 110.61 231.07C110.82 230.69 110.88 230.25 110.77 229.84C110.33 228.19 109.85 226.69 109.35 225.37C107.25 219.91 103.94 214.73 99.96 209.97C99.03 208.85 97.2 209.38 97.05 210.82C96.28 217.97 94.43 224.57 92.01 230.9L91.58 229.32C91.48 228.96 91.51 228.58 91.66 228.23C94.32 221.98 95.24 211.79 95.39 205.69C95.4 205.24 95.22 204.8 94.9 204.48C91.73 201.35 88.32 198.46 84.86 195.89C84.94 196.19 84.93 196.54 85.11 196.82C89.26 203.25 88.59 221.98 88.59 221.98C88.1 221.75 87.76 221.31 87.66 220.78C86.14 212.19 84.29 200.38 83.28 195.73C83.19 195.3 82.93 194.94 82.56 194.7C77.62 191.54 70.57 187.27 65.67 185.01C64.43 184.44 63.07 185.55 63.38 186.89C65.09 194.23 74.71 211.37 91.02 238.91C104.65 261.92 107.98 277.69 112.23 289.69C112.85 291.45 115.46 290.98 115.43 289.11C115.32 281.92 116.38 280.4 115.78 269.81L115.76 269.79Z" fill="#9BD3BC"/>
<path d="M378.54 293.03C379.06 293.03 379.43 292.55 379.28 292.05C379.04 291.26 378.83 290.42 378.64 289.54L379.06 289.44C379.44 290.61 379.98 291.7 380.61 292.71C380.75 292.93 380.99 293.06 381.25 293.06C384.96 293.09 388.68 293.01 391.94 292.76C392.54 292.71 392.85 292.02 392.48 291.54C391.24 289.93 390.18 288.02 388.96 285.96L389.28 285.91C391.32 288.65 394.42 290.6 396.53 292.01C396.7 292.12 396.9 292.16 397.09 292.12C397.86 291.97 398.57 291.81 399.2 291.62C401.78 290.85 404.29 289.51 406.61 287.84C407.16 287.45 406.98 286.59 406.32 286.47C403.06 285.87 400.09 284.78 397.26 283.44L398 283.3C398.17 283.27 398.34 283.3 398.5 283.37C401.28 284.81 405.94 285.6 408.73 285.88C408.94 285.9 409.15 285.83 409.31 285.7C410.86 284.35 412.31 282.89 413.62 281.39C413.48 281.42 413.32 281.39 413.18 281.47C410.07 283.15 401.48 282.18 401.48 282.18C401.6 281.96 401.82 281.82 402.07 281.8C406.08 281.4 411.57 280.97 413.75 280.67C413.95 280.64 414.13 280.54 414.25 280.38C415.88 278.22 418.09 275.13 419.3 272.95C419.61 272.4 419.14 271.74 418.52 271.83C415.09 272.36 406.86 276.18 393.62 282.71C382.56 288.17 375.18 289.15 369.52 290.68C368.69 290.9 368.81 292.12 369.67 292.17C372.98 292.37 373.64 292.91 378.53 293.01L378.54 293.03Z" fill="#9BD3BC"/>
<path d="M102.47 276.65C101.65 276.05 100.21 276.49 99.6199 277.52C98.6799 279.17 97.6199 280.86 96.4299 282.6L95.5799 282.3C96.9299 279.84 97.8899 277.33 98.5699 274.87C98.7199 274.33 98.5499 273.83 98.1299 273.54C92.1699 269.34 86.0099 265.3 80.3099 262.08C79.2599 261.49 77.5899 262.35 77.3799 263.59C76.6799 267.78 75.1899 272.29 73.6999 277.24L73.0999 276.97C74.3999 269.93 72.6699 263.05 71.6099 258.24C71.5299 257.86 71.2699 257.57 70.8899 257.41C69.3899 256.8 67.9699 256.29 66.6399 255.92C61.1499 254.37 54.8499 253.9 48.2799 254.18C46.7399 254.25 45.5799 255.94 46.4499 256.89C50.7199 261.59 53.7099 266.81 56.0299 272.29L54.5799 271.71C54.2499 271.58 54.0199 271.33 53.8999 271.02C51.8199 265.4 45.5999 258.82 41.5399 255.19C41.2399 254.92 40.7899 254.8 40.2999 254.86C35.5199 255.46 30.7099 256.39 26.0699 257.54C26.3399 257.65 26.5699 257.86 26.9199 257.88C34.7799 258.43 47.0699 269.74 47.0699 269.74C46.5099 269.98 45.9199 269.98 45.4799 269.75C38.3199 265.95 28.6899 260.55 24.6599 258.64C24.2899 258.46 23.8299 258.45 23.3599 258.59C17.0899 260.52 8.30994 263.42 2.68994 265.84C1.26994 266.45 0.909936 268.13 2.07994 268.66C8.52994 271.59 28.2799 274.16 60.7099 277.64C87.8099 280.54 101.39 287.1 113.15 290.79C114.87 291.33 116.72 289.08 115.41 288.02C110.39 283.95 110.23 282.27 102.46 276.63L102.47 276.65Z" fill="#7ACE90"/>
<path d="M384 286.04C384.54 285.77 384.59 285.16 384.09 284.82C383.29 284.28 382.5 283.69 381.7 283.04L382.06 282.73C383.26 283.51 384.58 284.15 385.92 284.66C386.21 284.77 386.56 284.76 386.83 284.62C390.68 282.68 394.47 280.65 397.67 278.72C398.26 278.36 398.1 277.62 397.39 277.41C395 276.71 392.58 275.66 389.9 274.57L390.19 274.36C394.19 275.59 398.74 275.6 401.9 275.66C402.15 275.66 402.38 275.59 402.56 275.46C403.26 274.93 403.88 274.42 404.39 273.93C406.52 271.91 408.18 269.46 409.44 266.83C409.73 266.21 408.96 265.58 408.19 265.83C404.4 267.04 400.58 267.7 396.75 268.07L397.42 267.56C397.57 267.44 397.77 267.37 397.98 267.36C401.85 267.1 407.2 265.31 410.29 264.07C410.52 263.98 410.69 263.81 410.76 263.61C411.43 261.65 411.92 259.66 412.23 257.7C412.11 257.8 411.93 257.87 411.84 258C409.79 261.06 400.25 264.78 400.25 264.78C400.23 264.53 400.35 264.3 400.59 264.15C404.45 261.7 409.83 258.43 411.87 257.03C412.06 256.9 412.17 256.72 412.18 256.52C412.37 253.84 412.52 250.07 412.27 247.6C412.21 246.97 411.27 246.66 410.69 247.07C407.51 249.33 399.09 255.94 389.92 268.43C382.26 278.87 373.96 286.9 369.16 291.19C368.46 291.82 369.42 292.78 370.35 292.37C373.91 290.79 378.89 288.53 384.01 286.03L384 286.04Z" fill="#75BFA4"/>
<path d="M29.58 496.84C18.8 504.49 8.97002 513.38 0.170019 523.22C-7.56998 532.05 -14.07 541.65 -19.87 551.91L-19.98 551.86C-13.96 533.75 -2.00998 517.79 12.92 505.99C17.93 502.06 23.27 498.55 29.12 495.95L29.59 496.83L29.58 496.84Z" fill="#B6CDBA"/>
<path d="M26.79 495.58C8.15999 522.35 -10.2 549.99 -19.76 581.47L-19.88 581.45C-16.13 556.83 -3.90001 534.23 10.32 514.09C15.16 507.39 20.28 500.9 26.03 494.94L26.79 495.59V495.58Z" fill="#C5D7C9"/>
<path d="M37.18 458.56C35.36 458.7 34.17 461.04 34.84 463.2C35.9 466.66 36.88 470.32 37.78 474.21L36.33 474.8C34.67 469.7 32.46 465 29.97 460.71C29.43 459.77 28.53 459.26 27.62 459.35C14.56 460.52 1.49003 462.15 -9.92997 464.4C-12.03 464.81 -12.93 468.03 -11.51 470.03C-6.70997 476.8 -2.43997 484.97 2.42003 493.77L1.31003 494.11C-6.60997 482.58 -18.06 474.92 -25.89 469.35C-26.5 468.92 -27.22 468.8 -27.9 469.03C-30.58 469.95 -33.03 470.93 -35.18 471.99C-44.06 476.35 -52.5 483.21 -60.24 491.46C-62.05 493.4 -61.2 497.17 -58.84 497.49C-47.2 499.06 -36.44 502.87 -26.14 507.86L-28.72 508.76C-29.31 508.97 -29.93 508.9 -30.49 508.6C-40.67 503.12 -57.27 501.23 -67.2 500.94C-67.94 500.92 -68.65 501.29 -69.17 501.96C-74.27 508.53 -78.96 515.58 -83.14 522.75C-82.66 522.57 -82.09 522.61 -81.63 522.23C-71.16 513.62 -40.66 514.96 -40.66 514.96C-41.03 515.97 -41.76 516.68 -42.62 516.88C-56.61 520.05 -75.83 523.9 -83.41 526.01C-84.11 526.2 -84.7 526.73 -85.08 527.5C-90.22 537.72 -97.16 552.31 -100.82 562.45C-101.75 565.02 -99.93 567.82 -97.76 567.17C-85.82 563.62 -53.12 551.72 -8.31997 517.91C29.12 489.65 64 471.95 83.52 463.12C86.38 461.83 85.61 456.44 82.57 456.5C70.86 456.74 54.39 457.29 37.16 458.57L37.18 458.56Z" fill="#6EB9BF"/>
<path d="M64.48 444.35C63.3 443.72 62.06 444.67 62.01 446.23C61.94 448.74 61.76 451.33 61.49 454.04L60.45 453.83C60.5 450.09 60.12 446.39 59.48 442.81C59.34 442.03 58.89 441.37 58.3 441.06C49.84 436.64 41.28 432.49 33.62 429.38C32.21 428.81 30.96 430.4 31.42 432.17C32.98 438.14 33.91 444.77 35.07 451.99L34.3 451.76C31.8 441.68 26.25 432.55 22.53 426.11C22.24 425.61 21.81 425.25 21.33 425.13C19.45 424.63 17.7 424.27 16.12 424.06C9.60003 423.21 2.83002 424.04 -3.80997 426C-5.36998 426.46 -5.63998 429.08 -4.22998 430.19C2.75002 435.71 8.69002 442.24 14.09 449.3L12.28 448.83C11.87 448.72 11.49 448.44 11.2 448.04C5.98002 440.73 -4.04997 433.07 -10.22 429C-10.68 428.7 -11.21 428.64 -11.68 428.84C-16.29 430.81 -20.76 433.24 -24.92 435.93C-24.58 436.01 -24.23 436.26 -23.86 436.21C-15.43 435.11 3.44003 447.9 3.44003 447.9C2.99002 448.36 2.38003 448.51 1.80003 448.29C-7.66998 444.71 -20.58 439.5 -25.79 437.8C-26.27 437.64 -26.76 437.73 -27.16 438.04C-32.58 442.2 -40.08 448.3 -44.56 453C-45.7 454.19 -45.15 456.6 -43.65 457.06C-35.38 459.6 -13.57 458.5 21.85 455.64C51.45 453.25 69.07 459.14 83.23 461.47C85.31 461.81 85.98 458.25 84.06 457.09C76.65 452.64 75.56 450.34 64.46 444.35H64.48Z" fill="#A0CDDC"/>
<path d="M65.05 463.79C64 464.3 63.54 466.34 64.14 467.83C65.1 470.21 66.04 472.76 66.95 475.5L66.16 476.27C64.68 472.79 62.93 469.73 61.05 467.04C60.64 466.45 60.07 466.27 59.54 466.54C52.03 470.37 44.56 474.55 38.12 478.83C36.94 479.62 36.73 482.25 37.76 483.45C41.23 487.49 44.54 492.71 48.25 498.27L47.64 498.78C41.87 491.84 34.42 488.62 29.3 486.18C28.9 485.99 28.47 486.06 28.09 486.39C26.62 487.69 25.28 488.98 24.13 490.27C19.37 495.57 15.13 502.66 11.43 510.65C10.56 512.52 11.43 515.19 12.84 514.9C19.8 513.46 26.46 513.92 32.97 515.38L31.55 516.64C31.23 516.93 30.86 517.02 30.5 516.92C24.01 515.07 14.13 517.38 8.30001 519.4C7.87001 519.55 7.49001 519.99 7.25001 520.62C4.92001 526.74 2.89001 533.14 1.15001 539.5C1.41002 539.26 1.75001 539.15 1.98001 538.76C7.24002 529.88 25.19 524.03 25.19 524.03C25.07 524.88 24.72 525.58 24.24 525.92C16.38 531.47 5.54001 538.72 1.33001 542.02C0.940015 542.32 0.650015 542.86 0.500015 543.52C-1.48999 552.41 -4.08999 565.02 -5.22999 573.52C-5.51999 575.67 -4.17999 577.38 -2.96999 576.41C3.65001 571.03 17.97 549.65 40.78 513.96C59.84 484.13 74.15 473.11 84.68 462.03C86.22 460.4 85.24 456.5 83.47 457.23C76.65 460.05 74.99 458.96 65.05 463.81V463.79Z" fill="#75C4A5"/>
<path d="M373.11 377.38C374.08 375.83 376.42 376.49 377.22 378.54C379.92 385.46 383.69 392.57 387.65 400.43L388.24 399.66C383.56 388.07 382.52 375.27 381.6 366.37C381.53 365.67 381.7 365.03 382.07 364.57C383.55 362.76 385 361.17 386.39 359.85C392.14 354.42 399.33 350.45 407.17 347.67C409.01 347.02 411.12 349.38 410.53 351.46C407.63 361.76 406.45 372.32 406.17 383.01L407.61 381.28C407.94 380.88 408.1 380.35 408.1 379.75C408.03 368.94 412.38 354.41 415.52 346.08C415.75 345.46 416.23 345.03 416.83 344.89C422.72 343.55 428.77 342.77 434.73 342.45C434.46 342.77 434.29 343.26 433.89 343.47C424.91 348.35 415.54 374.13 415.54 374.13C416.3 374.27 417 373.98 417.42 373.35C424.12 363.18 433.01 349 436.89 343.66C437.24 343.18 437.8 342.9 438.39 342.92C446.61 343.15 458.23 343.8 465.91 345.21C467.86 345.57 469.03 348.29 467.89 349.8C461.82 357.86 421.24 385.31 385.5 407.22C383.82 408.25 381.62 407.38 381.09 405.49L373.11 377.38Z" fill="#DFE6EA"/>
<path d="M394.21 428.91C421.68 439.76 446.44 464.48 458.14 491.48L458.03 491.54C445.92 472.5 430.64 455.73 412.51 442.29C406.53 437.8 400.3 433.58 393.8 429.83L394.2 428.91H394.21Z" fill="#B6C789"/>
<path d="M381.23 384.69C383.43 384.69 385.06 387.39 384.46 390.04C383.49 394.28 382.66 398.76 381.92 403.51L383.71 404.09C385.25 397.83 387.48 391.99 390.07 386.62C390.64 385.45 391.66 384.76 392.77 384.77C408.54 385.01 424.37 385.79 438.26 387.46C440.81 387.77 442.18 391.54 440.66 394.07C435.51 402.62 431.11 412.81 426.08 423.79L427.44 424.1C435.91 409.56 448.96 399.34 457.85 391.96C458.55 391.38 459.4 391.18 460.23 391.4C463.53 392.26 466.55 393.22 469.22 394.3C480.27 398.74 491 406.2 501.02 415.41C503.37 417.57 502.68 422.17 499.88 422.76C486.05 425.68 473.49 431.22 461.58 438.13L464.75 438.98C465.47 439.17 466.21 439.04 466.86 438.63C478.58 431.14 498.33 427.39 510.21 426.15C511.1 426.06 511.99 426.44 512.67 427.19C519.37 434.61 525.63 442.65 531.29 450.87C530.7 450.7 530.01 450.79 529.43 450.38C516.1 440.99 479.63 445.34 479.63 445.34C480.16 446.52 481.1 447.31 482.15 447.47C499.22 450.01 522.62 452.92 531.9 454.77C532.75 454.94 533.51 455.52 534.04 456.4C541.12 468.2 550.76 485.08 556.06 496.92C557.4 499.92 555.47 503.44 552.81 502.86C538.17 499.68 497.88 488.33 441.1 451.78C393.65 421.24 350.23 403.13 326.01 394.29C322.46 392.99 322.9 386.46 326.55 386.26C340.62 385.5 360.42 384.68 381.21 384.68L381.23 384.69Z" fill="#E2EBE2"/>
<path d="M348.26 393.45C349.57 393.97 350.3 396.38 349.71 398.21C348.77 401.15 347.88 404.29 347.03 407.66L348.04 408.52C349.5 404.21 351.33 400.38 353.34 396.99C353.78 396.25 354.45 395.98 355.1 396.25C364.45 400.17 373.79 404.51 381.9 409.07C383.39 409.91 383.88 413.05 382.75 414.58C378.95 419.74 375.44 426.3 371.5 433.3L372.28 433.85C378.58 425.01 387.22 420.48 393.15 417.09C393.61 416.82 394.14 416.88 394.62 417.24C396.51 418.67 398.22 420.1 399.71 421.54C405.89 427.48 411.62 435.6 416.77 444.85C417.98 447.02 417.17 450.29 415.45 450.07C406.98 448.97 399.03 450.12 391.35 452.45L393.16 453.84C393.57 454.16 394.02 454.23 394.44 454.08C402.06 451.28 414.12 453.16 421.29 455.06C421.82 455.2 422.32 455.7 422.66 456.42C426 463.55 429.02 471.04 431.67 478.52C431.33 478.25 430.92 478.16 430.61 477.71C423.5 467.54 401.45 462.12 401.45 462.12C401.66 463.12 402.15 463.94 402.76 464.31C412.68 470.26 426.34 477.99 431.69 481.57C432.18 481.9 432.58 482.51 432.82 483.3C436 493.79 440.26 508.68 442.38 518.78C442.92 521.34 441.46 523.51 439.93 522.44C431.5 516.58 412.41 492.22 381.85 451.45C356.31 417.38 338.16 405.43 324.53 393.09C322.53 391.28 323.36 386.51 325.55 387.23C333.98 390 335.88 388.54 348.24 393.47L348.26 393.45Z" fill="#8AC1C5"/>
<path d="M386.58 459.77C406.07 483.67 422.24 522.05 419.25 553.21H419.13C414.94 528.63 405.78 505.76 395.8 483.09L385.74 460.31L386.58 459.77Z" fill="#84B7AE"/>
</g>
</g>
<defs>
<linearGradient id="paint0_linear_153_3035" x1="274.762" y1="544.641" x2="274.506" y2="555.465" gradientUnits="userSpaceOnUse">
<stop offset="0.09" stop-color="#77BEB5"/>
<stop offset="0.94" stop-color="#76C995"/>
</linearGradient>
<linearGradient id="paint1_linear_153_3035" x1="266.522" y1="531.286" x2="263.076" y2="532.341" gradientUnits="userSpaceOnUse">
<stop stop-color="#76C995"/>
<stop offset="0.81" stop-color="#77BEB5"/>
</linearGradient>
<linearGradient id="paint2_linear_153_3035" x1="268.007" y1="531.188" x2="263.982" y2="532.419" gradientUnits="userSpaceOnUse">
<stop stop-color="#76C995"/>
<stop offset="0.81" stop-color="#77BEB5"/>
</linearGradient>
<linearGradient id="paint3_linear_153_3035" x1="269.636" y1="530.096" x2="265.732" y2="531.291" gradientUnits="userSpaceOnUse">
<stop stop-color="#76C995"/>
<stop offset="0.81" stop-color="#77BEB5"/>
</linearGradient>
<linearGradient id="paint4_linear_153_3035" x1="271.472" y1="530.93" x2="266.075" y2="532.583" gradientUnits="userSpaceOnUse">
<stop stop-color="#76C995"/>
<stop offset="0.81" stop-color="#77BEB5"/>
</linearGradient>
<linearGradient id="paint5_linear_153_3035" x1="273.265" y1="531.792" x2="266.735" y2="533.791" gradientUnits="userSpaceOnUse">
<stop stop-color="#76C995"/>
<stop offset="0.81" stop-color="#77BEB5"/>
</linearGradient>
<linearGradient id="paint6_linear_153_3035" x1="274.664" y1="531.456" x2="271.218" y2="532.51" gradientUnits="userSpaceOnUse">
<stop stop-color="#76C995"/>
<stop offset="0.81" stop-color="#77BEB5"/>
</linearGradient>
<linearGradient id="paint7_linear_153_3035" x1="276.159" y1="531.13" x2="272.617" y2="532.214" gradientUnits="userSpaceOnUse">
<stop stop-color="#76C995"/>
<stop offset="0.81" stop-color="#77BEB5"/>
</linearGradient>
<linearGradient id="paint8_linear_153_3035" x1="261.868" y1="530.721" x2="258.422" y2="531.776" gradientUnits="userSpaceOnUse">
<stop stop-color="#76C995"/>
<stop offset="0.81" stop-color="#77BEB5"/>
</linearGradient>
<linearGradient id="paint9_linear_153_3035" x1="263.363" y1="530.395" x2="259.821" y2="531.48" gradientUnits="userSpaceOnUse">
<stop stop-color="#76C995"/>
<stop offset="0.81" stop-color="#77BEB5"/>
</linearGradient>
<linearGradient id="paint10_linear_153_3035" x1="264.893" y1="530.573" x2="261.447" y2="531.627" gradientUnits="userSpaceOnUse">
<stop stop-color="#76C995"/>
<stop offset="0.81" stop-color="#77BEB5"/>
</linearGradient>
<linearGradient id="paint11_linear_153_3035" x1="260.212" y1="530.648" x2="256.766" y2="531.703" gradientUnits="userSpaceOnUse">
<stop stop-color="#76C995"/>
<stop offset="0.81" stop-color="#77BEB5"/>
</linearGradient>
<linearGradient id="paint12_linear_153_3035" x1="279.108" y1="537.658" x2="274.071" y2="547.243" gradientUnits="userSpaceOnUse">
<stop offset="0.09" stop-color="#77BEB5"/>
<stop offset="0.94" stop-color="#76C995"/>
</linearGradient>
<linearGradient id="paint13_linear_153_3035" x1="275.73" y1="518.907" x2="272.162" y2="518.32" gradientUnits="userSpaceOnUse">
<stop stop-color="#76C995"/>
<stop offset="0.81" stop-color="#77BEB5"/>
</linearGradient>
<linearGradient id="paint14_linear_153_3035" x1="277.105" y1="519.478" x2="272.952" y2="518.795" gradientUnits="userSpaceOnUse">
<stop stop-color="#76C995"/>
<stop offset="0.81" stop-color="#77BEB5"/>
</linearGradient>
<linearGradient id="paint15_linear_153_3035" x1="279.049" y1="519.223" x2="275.021" y2="518.561" gradientUnits="userSpaceOnUse">
<stop stop-color="#76C995"/>
<stop offset="0.81" stop-color="#77BEB5"/>
</linearGradient>
<linearGradient id="paint16_linear_153_3035" x1="280.324" y1="520.787" x2="274.754" y2="519.87" gradientUnits="userSpaceOnUse">
<stop stop-color="#76C995"/>
<stop offset="0.81" stop-color="#77BEB5"/>
</linearGradient>
<linearGradient id="paint17_linear_153_3035" x1="281.535" y1="522.352" x2="274.809" y2="521.246" gradientUnits="userSpaceOnUse">
<stop stop-color="#76C995"/>
<stop offset="0.81" stop-color="#77BEB5"/>
</linearGradient>
<linearGradient id="paint18_linear_153_3035" x1="282.951" y1="522.674" x2="279.395" y2="522.089" gradientUnits="userSpaceOnUse">
<stop stop-color="#76C995"/>
<stop offset="0.81" stop-color="#77BEB5"/>
</linearGradient>
<linearGradient id="paint19_linear_153_3035" x1="284.435" y1="523.046" x2="280.779" y2="522.445" gradientUnits="userSpaceOnUse">
<stop stop-color="#76C995"/>
<stop offset="0.81" stop-color="#77BEB5"/>
</linearGradient>
<linearGradient id="paint20_linear_153_3035" x1="285.715" y1="523.882" x2="282.159" y2="523.297" gradientUnits="userSpaceOnUse">
<stop stop-color="#76C995"/>
<stop offset="0.81" stop-color="#77BEB5"/>
</linearGradient>
<linearGradient id="paint21_linear_153_3035" x1="271.812" y1="516.335" x2="268.256" y2="515.75" gradientUnits="userSpaceOnUse">
<stop stop-color="#76C995"/>
<stop offset="0.81" stop-color="#77BEB5"/>
</linearGradient>
<linearGradient id="paint22_linear_153_3035" x1="273.295" y1="516.706" x2="269.64" y2="516.105" gradientUnits="userSpaceOnUse">
<stop stop-color="#76C995"/>
<stop offset="0.81" stop-color="#77BEB5"/>
</linearGradient>
<linearGradient id="paint23_linear_153_3035" x1="274.586" y1="517.557" x2="271.03" y2="516.972" gradientUnits="userSpaceOnUse">
<stop stop-color="#76C995"/>
<stop offset="0.81" stop-color="#77BEB5"/>
</linearGradient>
<linearGradient id="paint24_linear_153_3035" x1="270.36" y1="515.534" x2="266.804" y2="514.949" gradientUnits="userSpaceOnUse">
<stop stop-color="#76C995"/>
<stop offset="0.81" stop-color="#77BEB5"/>
</linearGradient>
<linearGradient id="paint25_linear_153_3035" x1="278.97" y1="551.902" x2="285.962" y2="560.174" gradientUnits="userSpaceOnUse">
<stop offset="0.09" stop-color="#77BEB5"/>
<stop offset="0.94" stop-color="#76C995"/>
</linearGradient>
<linearGradient id="paint26_linear_153_3035" x1="269.257" y1="549.677" x2="267.381" y2="552.754" gradientUnits="userSpaceOnUse">
<stop stop-color="#76C995"/>
<stop offset="0.81" stop-color="#77BEB5"/>
</linearGradient>
<linearGradient id="paint27_linear_153_3035" x1="270.301" y1="548.617" x2="268.111" y2="552.21" gradientUnits="userSpaceOnUse">
<stop stop-color="#76C995"/>
<stop offset="0.81" stop-color="#77BEB5"/>
</linearGradient>
<linearGradient id="paint28_linear_153_3035" x1="270.795" y1="546.719" x2="268.67" y2="550.205" gradientUnits="userSpaceOnUse">
<stop stop-color="#76C995"/>
<stop offset="0.81" stop-color="#77BEB5"/>
</linearGradient>
<linearGradient id="paint29_linear_153_3035" x1="272.722" y1="546.123" x2="269.784" y2="550.943" gradientUnits="userSpaceOnUse">
<stop stop-color="#76C995"/>
<stop offset="0.81" stop-color="#77BEB5"/>
</linearGradient>
<linearGradient id="paint30_linear_153_3035" x1="274.628" y1="545.588" x2="271.079" y2="551.408" gradientUnits="userSpaceOnUse">
<stop stop-color="#76C995"/>
<stop offset="0.81" stop-color="#77BEB5"/>
</linearGradient>
<linearGradient id="paint31_linear_153_3035" x1="275.457" y1="544.397" x2="273.581" y2="547.474" gradientUnits="userSpaceOnUse">
<stop stop-color="#76C995"/>
<stop offset="0.81" stop-color="#77BEB5"/>
</linearGradient>
<linearGradient id="paint32_linear_153_3035" x1="276.358" y1="543.161" x2="274.43" y2="546.324" gradientUnits="userSpaceOnUse">
<stop stop-color="#76C995"/>
<stop offset="0.81" stop-color="#77BEB5"/>
</linearGradient>
<linearGradient id="paint33_linear_153_3035" x1="277.614" y1="542.288" x2="275.744" y2="545.354" gradientUnits="userSpaceOnUse">
<stop stop-color="#76C995"/>
<stop offset="0.81" stop-color="#77BEB5"/>
</linearGradient>
<linearGradient id="paint34_linear_153_3035" x1="265.402" y1="552.345" x2="263.526" y2="555.421" gradientUnits="userSpaceOnUse">
<stop stop-color="#76C995"/>
<stop offset="0.81" stop-color="#77BEB5"/>
</linearGradient>
<linearGradient id="paint35_linear_153_3035" x1="266.303" y1="551.109" x2="264.375" y2="554.272" gradientUnits="userSpaceOnUse">
<stop stop-color="#76C995"/>
<stop offset="0.81" stop-color="#77BEB5"/>
</linearGradient>
<linearGradient id="paint36_linear_153_3035" x1="267.565" y1="550.225" x2="265.689" y2="553.302" gradientUnits="userSpaceOnUse">
<stop stop-color="#76C995"/>
<stop offset="0.81" stop-color="#77BEB5"/>
</linearGradient>
<linearGradient id="paint37_linear_153_3035" x1="264.115" y1="553.39" x2="262.24" y2="556.467" gradientUnits="userSpaceOnUse">
<stop stop-color="#76C995"/>
<stop offset="0.81" stop-color="#77BEB5"/>
</linearGradient>
<linearGradient id="paint38_linear_153_3035" x1="285.54" y1="535.83" x2="280.503" y2="545.415" gradientUnits="userSpaceOnUse">
<stop offset="0.09" stop-color="#77BEB5"/>
<stop offset="0.94" stop-color="#76C995"/>
</linearGradient>
<linearGradient id="paint39_linear_153_3035" x1="282.147" y1="517.077" x2="278.592" y2="516.492" gradientUnits="userSpaceOnUse">
<stop stop-color="#76C995"/>
<stop offset="0.81" stop-color="#77BEB5"/>
</linearGradient>
<linearGradient id="paint40_linear_153_3035" x1="283.52" y1="517.66" x2="279.367" y2="516.977" gradientUnits="userSpaceOnUse">
<stop stop-color="#76C995"/>
<stop offset="0.81" stop-color="#77BEB5"/>
</linearGradient>
<linearGradient id="paint41_linear_153_3035" x1="285.464" y1="517.405" x2="281.449" y2="516.745" gradientUnits="userSpaceOnUse">
<stop stop-color="#76C995"/>
<stop offset="0.81" stop-color="#77BEB5"/>
</linearGradient>
<linearGradient id="paint42_linear_153_3035" x1="286.74" y1="518.969" x2="281.17" y2="518.052" gradientUnits="userSpaceOnUse">
<stop stop-color="#76C995"/>
<stop offset="0.81" stop-color="#77BEB5"/>
</linearGradient>
<linearGradient id="paint43_linear_153_3035" x1="287.963" y1="520.536" x2="281.224" y2="519.428" gradientUnits="userSpaceOnUse">
<stop stop-color="#76C995"/>
<stop offset="0.81" stop-color="#77BEB5"/>
</linearGradient>
<linearGradient id="paint44_linear_153_3035" x1="289.368" y1="520.844" x2="285.812" y2="520.259" gradientUnits="userSpaceOnUse">
<stop stop-color="#76C995"/>
<stop offset="0.81" stop-color="#77BEB5"/>
</linearGradient>
<linearGradient id="paint45_linear_153_3035" x1="290.85" y1="521.228" x2="287.195" y2="520.627" gradientUnits="userSpaceOnUse">
<stop stop-color="#76C995"/>
<stop offset="0.81" stop-color="#77BEB5"/>
</linearGradient>
<linearGradient id="paint46_linear_153_3035" x1="292.142" y1="522.066" x2="288.587" y2="521.481" gradientUnits="userSpaceOnUse">
<stop stop-color="#76C995"/>
<stop offset="0.81" stop-color="#77BEB5"/>
</linearGradient>
<linearGradient id="paint47_linear_153_3035" x1="278.227" y1="514.517" x2="274.671" y2="513.932" gradientUnits="userSpaceOnUse">
<stop stop-color="#76C995"/>
<stop offset="0.81" stop-color="#77BEB5"/>
</linearGradient>
<linearGradient id="paint48_linear_153_3035" x1="279.711" y1="514.888" x2="276.068" y2="514.289" gradientUnits="userSpaceOnUse">
<stop stop-color="#76C995"/>
<stop offset="0.81" stop-color="#77BEB5"/>
</linearGradient>
<linearGradient id="paint49_linear_153_3035" x1="281.003" y1="515.727" x2="277.447" y2="515.142" gradientUnits="userSpaceOnUse">
<stop stop-color="#76C995"/>
<stop offset="0.81" stop-color="#77BEB5"/>
</linearGradient>
<linearGradient id="paint50_linear_153_3035" x1="276.775" y1="513.716" x2="273.219" y2="513.131" gradientUnits="userSpaceOnUse">
<stop stop-color="#76C995"/>
<stop offset="0.81" stop-color="#77BEB5"/>
</linearGradient>
<linearGradient id="paint51_linear_153_3035" x1="287.634" y1="553.279" x2="296.767" y2="559.096" gradientUnits="userSpaceOnUse">
<stop offset="0.09" stop-color="#77BEB5"/>
<stop offset="0.94" stop-color="#76C995"/>
</linearGradient>
<linearGradient id="paint52_linear_153_3035" x1="280.327" y1="554.562" x2="279.445" y2="558.069" gradientUnits="userSpaceOnUse">
<stop stop-color="#76C995"/>
<stop offset="0.81" stop-color="#77BEB5"/>
</linearGradient>
<linearGradient id="paint53_linear_153_3035" x1="281.011" y1="553.24" x2="279.984" y2="557.321" gradientUnits="userSpaceOnUse">
<stop stop-color="#76C995"/>
<stop offset="0.81" stop-color="#77BEB5"/>
</linearGradient>
<linearGradient id="paint54_linear_153_3035" x1="280.919" y1="551.281" x2="279.923" y2="555.24" gradientUnits="userSpaceOnUse">
<stop stop-color="#76C995"/>
<stop offset="0.81" stop-color="#77BEB5"/>
</linearGradient>
<linearGradient id="paint55_linear_153_3035" x1="282.583" y1="550.14" x2="281.206" y2="555.615" gradientUnits="userSpaceOnUse">
<stop stop-color="#76C995"/>
<stop offset="0.81" stop-color="#77BEB5"/>
</linearGradient>
<linearGradient id="paint56_linear_153_3035" x1="284.244" y1="549.064" x2="282.581" y2="555.675" gradientUnits="userSpaceOnUse">
<stop stop-color="#76C995"/>
<stop offset="0.81" stop-color="#77BEB5"/>
</linearGradient>
<linearGradient id="paint57_linear_153_3035" x1="284.683" y1="547.68" x2="283.804" y2="551.175" gradientUnits="userSpaceOnUse">
<stop stop-color="#76C995"/>
<stop offset="0.81" stop-color="#77BEB5"/>
</linearGradient>
<linearGradient id="paint58_linear_153_3035" x1="285.177" y1="546.233" x2="284.273" y2="549.825" gradientUnits="userSpaceOnUse">
<stop stop-color="#76C995"/>
<stop offset="0.81" stop-color="#77BEB5"/>
</linearGradient>
<linearGradient id="paint59_linear_153_3035" x1="286.117" y1="545.027" x2="285.238" y2="548.522" gradientUnits="userSpaceOnUse">
<stop stop-color="#76C995"/>
<stop offset="0.81" stop-color="#77BEB5"/>
</linearGradient>
<linearGradient id="paint60_linear_153_3035" x1="277.437" y1="558.253" x2="276.558" y2="561.747" gradientUnits="userSpaceOnUse">
<stop stop-color="#76C995"/>
<stop offset="0.81" stop-color="#77BEB5"/>
</linearGradient>
<linearGradient id="paint61_linear_153_3035" x1="277.931" y1="556.805" x2="277.027" y2="560.397" gradientUnits="userSpaceOnUse">
<stop stop-color="#76C995"/>
<stop offset="0.81" stop-color="#77BEB5"/>
</linearGradient>
<linearGradient id="paint62_linear_153_3035" x1="278.874" y1="555.587" x2="277.995" y2="559.082" gradientUnits="userSpaceOnUse">
<stop stop-color="#76C995"/>
<stop offset="0.81" stop-color="#77BEB5"/>
</linearGradient>
<linearGradient id="paint63_linear_153_3035" x1="276.518" y1="559.632" x2="275.639" y2="563.127" gradientUnits="userSpaceOnUse">
<stop stop-color="#76C995"/>
<stop offset="0.81" stop-color="#77BEB5"/>
</linearGradient>
<linearGradient id="paint64_linear_153_3035" x1="290.84" y1="532.933" x2="285.803" y2="542.517" gradientUnits="userSpaceOnUse">
<stop offset="0.09" stop-color="#77BEB5"/>
<stop offset="0.94" stop-color="#76C995"/>
</linearGradient>
<linearGradient id="paint65_linear_153_3035" x1="287.438" y1="514.18" x2="283.882" y2="513.595" gradientUnits="userSpaceOnUse">
<stop stop-color="#76C995"/>
<stop offset="0.81" stop-color="#77BEB5"/>
</linearGradient>
<linearGradient id="paint66_linear_153_3035" x1="288.813" y1="514.751" x2="284.66" y2="514.068" gradientUnits="userSpaceOnUse">
<stop stop-color="#76C995"/>
<stop offset="0.81" stop-color="#77BEB5"/>
</linearGradient>
<linearGradient id="paint67_linear_153_3035" x1="290.757" y1="514.496" x2="286.729" y2="513.833" gradientUnits="userSpaceOnUse">
<stop stop-color="#76C995"/>
<stop offset="0.81" stop-color="#77BEB5"/>
</linearGradient>
<linearGradient id="paint68_linear_153_3035" x1="292.03" y1="516.072" x2="286.46" y2="515.156" gradientUnits="userSpaceOnUse">
<stop stop-color="#76C995"/>
<stop offset="0.81" stop-color="#77BEB5"/>
</linearGradient>
<linearGradient id="paint69_linear_153_3035" x1="293.254" y1="517.639" x2="286.515" y2="516.531" gradientUnits="userSpaceOnUse">
<stop stop-color="#76C995"/>
<stop offset="0.81" stop-color="#77BEB5"/>
</linearGradient>
<linearGradient id="paint70_linear_153_3035" x1="294.659" y1="517.947" x2="291.103" y2="517.362" gradientUnits="userSpaceOnUse">
<stop stop-color="#76C995"/>
<stop offset="0.81" stop-color="#77BEB5"/>
</linearGradient>
<linearGradient id="paint71_linear_153_3035" x1="296.143" y1="518.319" x2="292.487" y2="517.717" gradientUnits="userSpaceOnUse">
<stop stop-color="#76C995"/>
<stop offset="0.81" stop-color="#77BEB5"/>
</linearGradient>
<linearGradient id="paint72_linear_153_3035" x1="297.435" y1="519.157" x2="293.879" y2="518.572" gradientUnits="userSpaceOnUse">
<stop stop-color="#76C995"/>
<stop offset="0.81" stop-color="#77BEB5"/>
</linearGradient>
<linearGradient id="paint73_linear_153_3035" x1="283.517" y1="511.62" x2="279.962" y2="511.035" gradientUnits="userSpaceOnUse">
<stop stop-color="#76C995"/>
<stop offset="0.81" stop-color="#77BEB5"/>
</linearGradient>
<linearGradient id="paint74_linear_153_3035" x1="285.001" y1="511.992" x2="281.346" y2="511.39" gradientUnits="userSpaceOnUse">
<stop stop-color="#76C995"/>
<stop offset="0.81" stop-color="#77BEB5"/>
</linearGradient>
<linearGradient id="paint75_linear_153_3035" x1="286.294" y1="512.83" x2="282.738" y2="512.245" gradientUnits="userSpaceOnUse">
<stop stop-color="#76C995"/>
<stop offset="0.81" stop-color="#77BEB5"/>
</linearGradient>
<linearGradient id="paint76_linear_153_3035" x1="282.066" y1="510.819" x2="278.51" y2="510.234" gradientUnits="userSpaceOnUse">
<stop stop-color="#76C995"/>
<stop offset="0.81" stop-color="#77BEB5"/>
</linearGradient>
<linearGradient id="paint77_linear_153_3035" x1="295.684" y1="551.525" x2="305.702" y2="555.643" gradientUnits="userSpaceOnUse">
<stop offset="0.09" stop-color="#77BEB5"/>
<stop offset="0.94" stop-color="#76C995"/>
</linearGradient>
<linearGradient id="paint78_linear_153_3035" x1="289.929" y1="555.436" x2="289.682" y2="559.044" gradientUnits="userSpaceOnUse">
<stop stop-color="#76C995"/>
<stop offset="0.81" stop-color="#77BEB5"/>
</linearGradient>
<linearGradient id="paint79_linear_153_3035" x1="290.38" y1="554.014" x2="290.092" y2="558.213" gradientUnits="userSpaceOnUse">
<stop stop-color="#76C995"/>
<stop offset="0.81" stop-color="#77BEB5"/>
</linearGradient>
<linearGradient id="paint80_linear_153_3035" x1="289.943" y1="552.102" x2="289.663" y2="556.175" gradientUnits="userSpaceOnUse">
<stop stop-color="#76C995"/>
<stop offset="0.81" stop-color="#77BEB5"/>
</linearGradient>
<linearGradient id="paint81_linear_153_3035" x1="291.378" y1="550.685" x2="290.992" y2="556.317" gradientUnits="userSpaceOnUse">
<stop stop-color="#76C995"/>
<stop offset="0.81" stop-color="#77BEB5"/>
</linearGradient>
<linearGradient id="paint82_linear_153_3035" x1="292.822" y1="549.332" x2="292.356" y2="556.133" gradientUnits="userSpaceOnUse">
<stop stop-color="#76C995"/>
<stop offset="0.81" stop-color="#77BEB5"/>
</linearGradient>
<linearGradient id="paint83_linear_153_3035" x1="292.997" y1="547.891" x2="292.751" y2="551.486" gradientUnits="userSpaceOnUse">
<stop stop-color="#76C995"/>
<stop offset="0.81" stop-color="#77BEB5"/>
</linearGradient>
<linearGradient id="paint84_linear_153_3035" x1="293.239" y1="546.38" x2="292.986" y2="550.076" gradientUnits="userSpaceOnUse">
<stop stop-color="#76C995"/>
<stop offset="0.81" stop-color="#77BEB5"/>
</linearGradient>
<linearGradient id="paint85_linear_153_3035" x1="293.951" y1="545.027" x2="293.705" y2="548.622" gradientUnits="userSpaceOnUse">
<stop stop-color="#76C995"/>
<stop offset="0.81" stop-color="#77BEB5"/>
</linearGradient>
<linearGradient id="paint86_linear_153_3035" x1="287.75" y1="559.581" x2="287.504" y2="563.176" gradientUnits="userSpaceOnUse">
<stop stop-color="#76C995"/>
<stop offset="0.81" stop-color="#77BEB5"/>
</linearGradient>
<linearGradient id="paint87_linear_153_3035" x1="287.98" y1="558.068" x2="287.727" y2="561.764" gradientUnits="userSpaceOnUse">
<stop stop-color="#76C995"/>
<stop offset="0.81" stop-color="#77BEB5"/>
</linearGradient>
<linearGradient id="paint88_linear_153_3035" x1="288.693" y1="556.702" x2="288.446" y2="560.297" gradientUnits="userSpaceOnUse">
<stop stop-color="#76C995"/>
<stop offset="0.81" stop-color="#77BEB5"/>
</linearGradient>
<linearGradient id="paint89_linear_153_3035" x1="287.091" y1="561.101" x2="286.844" y2="564.696" gradientUnits="userSpaceOnUse">
<stop stop-color="#76C995"/>
<stop offset="0.81" stop-color="#77BEB5"/>
</linearGradient>
<linearGradient id="paint90_linear_153_3035" x1="295.507" y1="528.319" x2="290.46" y2="537.903" gradientUnits="userSpaceOnUse">
<stop offset="0.09" stop-color="#77BEB5"/>
<stop offset="0.94" stop-color="#76C995"/>
</linearGradient>
<linearGradient id="paint91_linear_153_3035" x1="292.089" y1="509.582" x2="288.521" y2="508.995" gradientUnits="userSpaceOnUse">
<stop stop-color="#76C995"/>
<stop offset="0.81" stop-color="#77BEB5"/>
</linearGradient>
<linearGradient id="paint92_linear_153_3035" x1="293.463" y1="510.153" x2="289.311" y2="509.47" gradientUnits="userSpaceOnUse">
<stop stop-color="#76C995"/>
<stop offset="0.81" stop-color="#77BEB5"/>
</linearGradient>
<linearGradient id="paint93_linear_153_3035" x1="295.408" y1="509.898" x2="291.38" y2="509.235" gradientUnits="userSpaceOnUse">
<stop stop-color="#76C995"/>
<stop offset="0.81" stop-color="#77BEB5"/>
</linearGradient>
<linearGradient id="paint94_linear_153_3035" x1="296.683" y1="511.461" x2="291.113" y2="510.545" gradientUnits="userSpaceOnUse">
<stop stop-color="#76C995"/>
<stop offset="0.81" stop-color="#77BEB5"/>
</linearGradient>
<linearGradient id="paint95_linear_153_3035" x1="297.894" y1="513.027" x2="291.168" y2="511.92" gradientUnits="userSpaceOnUse">
<stop stop-color="#76C995"/>
<stop offset="0.81" stop-color="#77BEB5"/>
</linearGradient>
<linearGradient id="paint96_linear_153_3035" x1="299.31" y1="513.349" x2="295.754" y2="512.764" gradientUnits="userSpaceOnUse">
<stop stop-color="#76C995"/>
<stop offset="0.81" stop-color="#77BEB5"/>
</linearGradient>
<linearGradient id="paint97_linear_153_3035" x1="300.793" y1="513.721" x2="297.138" y2="513.12" gradientUnits="userSpaceOnUse">
<stop stop-color="#76C995"/>
<stop offset="0.81" stop-color="#77BEB5"/>
</linearGradient>
<linearGradient id="paint98_linear_153_3035" x1="302.073" y1="514.557" x2="298.53" y2="513.974" gradientUnits="userSpaceOnUse">
<stop stop-color="#76C995"/>
<stop offset="0.81" stop-color="#77BEB5"/>
</linearGradient>
<linearGradient id="paint99_linear_153_3035" x1="288.168" y1="507.022" x2="284.612" y2="506.437" gradientUnits="userSpaceOnUse">
<stop stop-color="#76C995"/>
<stop offset="0.81" stop-color="#77BEB5"/>
</linearGradient>
<linearGradient id="paint100_linear_153_3035" x1="289.652" y1="507.393" x2="285.997" y2="506.792" gradientUnits="userSpaceOnUse">
<stop stop-color="#76C995"/>
<stop offset="0.81" stop-color="#77BEB5"/>
</linearGradient>
<linearGradient id="paint101_linear_153_3035" x1="290.945" y1="508.232" x2="287.389" y2="507.647" gradientUnits="userSpaceOnUse">
<stop stop-color="#76C995"/>
<stop offset="0.81" stop-color="#77BEB5"/>
</linearGradient>
<linearGradient id="paint102_linear_153_3035" x1="286.717" y1="506.221" x2="283.161" y2="505.636" gradientUnits="userSpaceOnUse">
<stop stop-color="#76C995"/>
<stop offset="0.81" stop-color="#77BEB5"/>
</linearGradient>
<linearGradient id="paint103_linear_153_3035" x1="302.133" y1="550.04" x2="312.924" y2="550.928" gradientUnits="userSpaceOnUse">
<stop offset="0.09" stop-color="#77BEB5"/>
<stop offset="0.94" stop-color="#76C995"/>
</linearGradient>
<linearGradient id="paint104_linear_153_3035" x1="300.582" y1="556.927" x2="301.434" y2="560.429" gradientUnits="userSpaceOnUse">
<stop stop-color="#76C995"/>
<stop offset="0.81" stop-color="#77BEB5"/>
</linearGradient>
<linearGradient id="paint105_linear_153_3035" x1="300.567" y1="555.426" x2="301.562" y2="559.516" gradientUnits="userSpaceOnUse">
<stop stop-color="#76C995"/>
<stop offset="0.81" stop-color="#77BEB5"/>
</linearGradient>
<linearGradient id="paint106_linear_153_3035" x1="299.573" y1="553.736" x2="300.537" y2="557.703" gradientUnits="userSpaceOnUse">
<stop stop-color="#76C995"/>
<stop offset="0.81" stop-color="#77BEB5"/>
</linearGradient>
<linearGradient id="paint107_linear_153_3035" x1="300.528" y1="551.961" x2="301.862" y2="557.446" gradientUnits="userSpaceOnUse">
<stop stop-color="#76C995"/>
<stop offset="0.81" stop-color="#77BEB5"/>
</linearGradient>
<linearGradient id="paint108_linear_153_3035" x1="301.481" y1="550.225" x2="303.095" y2="556.86" gradientUnits="userSpaceOnUse">
<stop stop-color="#76C995"/>
<stop offset="0.81" stop-color="#77BEB5"/>
</linearGradient>
<linearGradient id="paint109_linear_153_3035" x1="301.227" y1="548.808" x2="302.079" y2="552.31" gradientUnits="userSpaceOnUse">
<stop stop-color="#76C995"/>
<stop offset="0.81" stop-color="#77BEB5"/>
</linearGradient>
<linearGradient id="paint110_linear_153_3035" x1="300.989" y1="547.297" x2="301.862" y2="550.884" gradientUnits="userSpaceOnUse">
<stop stop-color="#76C995"/>
<stop offset="0.81" stop-color="#77BEB5"/>
</linearGradient>
<linearGradient id="paint111_linear_153_3035" x1="299.758" y1="561.536" x2="300.607" y2="565.026" gradientUnits="userSpaceOnUse">
<stop stop-color="#76C995"/>
<stop offset="0.81" stop-color="#77BEB5"/>
</linearGradient>
<linearGradient id="paint112_linear_153_3035" x1="299.52" y1="560.025" x2="300.393" y2="563.612" gradientUnits="userSpaceOnUse">
<stop stop-color="#76C995"/>
<stop offset="0.81" stop-color="#77BEB5"/>
</linearGradient>
<linearGradient id="paint113_linear_153_3035" x1="299.787" y1="558.508" x2="300.638" y2="562.01" gradientUnits="userSpaceOnUse">
<stop stop-color="#76C995"/>
<stop offset="0.81" stop-color="#77BEB5"/>
</linearGradient>
<linearGradient id="paint114_linear_153_3035" x1="299.589" y1="563.185" x2="300.44" y2="566.687" gradientUnits="userSpaceOnUse">
<stop stop-color="#76C995"/>
<stop offset="0.81" stop-color="#77BEB5"/>
</linearGradient>
<clipPath id="clip0_153_3035">
<rect width="428" height="926" fill="white"/>
</clipPath>
</defs>
</svg>
