<svg width="42" height="42" viewBox="0 0 42 42" fill="none" xmlns="http://www.w3.org/2000/svg">
<rect x="1" y="1" width="40" height="40" rx="20" stroke="#DEE2E6"/>
<mask id="mask0_111_7369" style="mask-type:luminance" maskUnits="userSpaceOnUse" x="1" y="1" width="40" height="40">
<path d="M21 41C32.0457 41 41 32.0457 41 21C41 9.95431 32.0457 1 21 1C9.95431 1 1 9.95431 1 21C1 32.0457 9.95431 41 21 41Z" fill="white"/>
</mask>
<g mask="url(#mask0_111_7369)">
<path d="M21 41C9.95431 41 1 32.0457 1 21C1 9.95431 9.95431 1 21 1C32.0457 1 41 9.95431 41 21C41 32.0457 32.0457 41 21 41Z" fill="white"/>
<path d="M9.57361 30.9123C8.66314 30.9123 7.92506 29.4505 7.92506 27.6473C7.92506 25.8441 8.66314 24.3823 9.57361 24.3823C10.4841 24.3823 11.2222 25.8441 11.2222 27.6473C11.2222 29.4505 10.4841 30.9123 9.57361 30.9123Z" fill="#FFCA0C"/>
<path d="M32.4262 30.9123C31.5157 30.9123 30.7776 29.4505 30.7776 27.6473C30.7776 25.8441 31.5157 24.3823 32.4262 24.3823C33.3366 24.3823 34.0747 25.8441 34.0747 27.6473C34.0747 29.4505 33.3366 30.9123 32.4262 30.9123Z" fill="#FFCA0C"/>
<path d="M21 7.70752C27.3102 7.70752 32.4263 11.8221 32.4263 16.8974V43.6571H9.57372V16.8974C9.57372 11.8221 14.6898 7.70752 21 7.70752Z" fill="#868E96"/>
<path d="M13.3473 26.7442L13.8932 21.3923C13.9845 20.4921 14.8415 19.8018 15.8689 19.8018H26.132C27.1594 19.8018 28.0164 20.4921 28.1078 21.3923L28.6536 26.7442C28.7573 27.7667 27.8435 28.6472 26.6778 28.6472H24.823L25.4503 35.3834C25.5454 36.4009 24.6328 37.2727 23.4733 37.2727H18.5276C17.3681 37.2727 16.4555 36.4009 16.5506 35.3834L17.1779 28.6472H15.3244C14.1587 28.6472 13.2448 27.7667 13.3486 26.7442H13.3473Z" fill="#FFCA0C"/>
<path d="M23.6167 22.9893H24.0625C24.7779 22.9893 25.3579 23.5692 25.3579 24.2846V24.9552C25.3579 25.6706 24.7779 26.2506 24.0625 26.2506H23.6167C22.9013 26.2506 22.3214 25.6706 22.3214 24.9552V24.2846C22.3214 23.5692 22.9013 22.9893 23.6167 22.9893Z" fill="#EAF6FD"/>
<path d="M17.6289 22.9893H18.0747C18.7902 22.9893 19.3701 23.5692 19.3701 24.2846V24.9552C19.3701 25.6706 18.7902 26.2506 18.0747 26.2506H17.6289C16.9135 26.2506 16.3336 25.6706 16.3336 24.9552V24.2846C16.3336 23.5692 16.9135 22.9893 17.6289 22.9893Z" fill="#EAF6FD"/>
<path d="M24.5242 26.1135C23.8934 26.1135 23.382 25.5087 23.382 24.7626C23.382 24.0165 23.8934 23.4116 24.5242 23.4116C25.1551 23.4116 25.6665 24.0165 25.6665 24.7626C25.6665 25.5087 25.1551 26.1135 24.5242 26.1135Z" fill="#002748"/>
<path d="M18.4032 26.1135C17.7723 26.1135 17.2609 25.5087 17.2609 24.7626C17.2609 24.0165 17.7723 23.4116 18.4032 23.4116C19.034 23.4116 19.5454 24.0165 19.5454 24.7626C19.5454 25.5087 19.034 26.1135 18.4032 26.1135Z" fill="#002748"/>
<path d="M21.1607 29.7908C21.1607 29.9736 21.6831 30.1218 22.3277 30.1218C22.9723 30.1218 23.4946 29.9736 23.4946 29.7908C23.4946 29.6081 22.9723 29.2104 22.3277 29.2104C21.6831 29.2104 21.1607 29.6081 21.1607 29.7908Z" fill="#002748"/>
<path d="M20.8394 29.7908C20.8394 29.9736 20.317 30.1218 19.6724 30.1218C19.0278 30.1218 18.5054 29.9736 18.5054 29.7908C18.5054 29.6081 19.0278 29.2104 19.6724 29.2104C20.317 29.2104 20.8394 29.6081 20.8394 29.7908Z" fill="#002748"/>
<path d="M21.0284 32.973C22.6584 32.973 23.7673 32.4667 23.8365 32.4346C24.0217 32.3481 24.102 32.1271 24.0155 31.9419C23.9291 31.7566 23.7093 31.6764 23.524 31.7628C23.4944 31.7764 21.2086 32.8038 18.4561 31.7529C18.2647 31.6801 18.0511 31.7764 17.9782 31.9666C17.9054 32.158 18.0017 32.3716 18.1919 32.4445C19.2279 32.8396 20.1973 32.9717 21.0296 32.9717L21.0284 32.973Z" fill="#002748"/>
<path d="M21.9398 13.2683C21.3804 11.1245 21.6842 8.40659 23.7538 7.19271C24.8702 6.51476 26.1618 6.29125 27.4893 6.24309C27.6141 6.23939 27.7116 6.13566 27.7079 6.01094C27.7042 5.89733 27.619 5.80595 27.5091 5.7936C25.458 5.52687 23.0549 5.82571 21.5385 7.40881C19.9986 8.99562 19.5553 11.3382 19.7096 13.477C19.7121 13.5955 19.7504 13.7906 19.7677 13.9228C19.8615 14.5476 20.4444 14.9798 21.0705 14.886C21.8176 14.7859 22.2646 13.945 21.9386 13.2695L21.9398 13.2683Z" fill="#FFCA0C"/>
<path d="M27.9794 7.5212C27.1167 7.5212 26.4173 6.82182 26.4173 5.95909C26.4173 5.09635 27.1167 4.39697 27.9794 4.39697C28.8421 4.39697 29.5415 5.09635 29.5415 5.95909C29.5415 6.82182 28.8421 7.5212 27.9794 7.5212Z" fill="#FF4D4D"/>
<ellipse cx="27.8465" cy="14.8082" rx="2.5" ry="1.5" transform="rotate(43.4475 27.8465 14.8082)" fill="#D9D9D9"/>
<ellipse cx="27.8465" cy="14.8085" rx="1.85818" ry="1.11491" transform="rotate(43.4475 27.8465 14.8085)" fill="#F5F5F5"/>
</g>
</svg>
