<svg width="20" height="20" viewBox="0 0 20 20" fill="none" xmlns="http://www.w3.org/2000/svg">
<path d="M9.99957 0C4.47709 0 0 4.47709 0 9.99957C0 15.5221 4.47709 19.9991 9.99957 19.9991C15.5221 19.9991 19.9991 15.5221 19.9991 9.99957C19.9991 4.47709 15.5229 0 9.99957 0ZM16.2333 12.7904C16.0856 12.9322 15.9344 13.0765 15.778 13.2062C13.1744 15.3734 9.20586 16.2058 6.55929 14.2267C4.81639 12.97 3.91187 10.7134 4.26062 8.59941C4.30786 8.31164 4.35597 8.00155 4.50973 7.74986C4.67294 7.48185 5.01568 7.11163 4.83099 6.76459C4.75282 6.61684 4.71761 6.49744 4.56299 6.49315C4.10171 6.6409 3.70227 6.78607 3.31057 6.89516L3.17743 5.24331L3.92475 5.21754C4.73221 5.17717 5.57317 4.97788 6.37203 4.77258L6.81098 4.65576L7.04634 5.38504L6.63832 5.59808C6.33338 5.75613 6.16415 5.90646 5.80252 6.04819C5.68569 6.09458 5.90474 6.86767 6.08684 7.44749C6.47941 8.69561 6.96817 9.78654 8.00584 10.6412C10.0485 12.3223 12.6951 11.9452 15.1209 11.5887C15.2506 11.5715 15.4757 11.5312 15.6011 11.5243L16.5743 11.7837L16.8234 12.2828L16.2333 12.7922V12.7904Z" fill="#FFCA0C"/>
</svg>
