<svg width="42" height="42" viewBox="0 0 42 42" fill="none" xmlns="http://www.w3.org/2000/svg">
<rect x="1" y="1" width="40" height="40" rx="20" stroke="#DEE2E6"/>
<mask id="mask0_128_2891" style="mask-type:luminance" maskUnits="userSpaceOnUse" x="1" y="1" width="40" height="40">
<path d="M21 41C32.0457 41 41 32.0457 41 21C41 9.95431 32.0457 1 21 1C9.95431 1 1 9.95431 1 21C1 32.0457 9.95431 41 21 41Z" fill="white"/>
</mask>
<g mask="url(#mask0_128_2891)">
<path d="M21 41C9.95431 41 1 32.0457 1 21C1 9.95431 9.95431 1 21 1C32.0457 1 41 9.95431 41 21C41 32.0457 32.0457 41 21 41Z" fill="white"/>
<path d="M9.57361 30.9123C8.66314 30.9123 7.92506 29.4505 7.92506 27.6473C7.92506 25.8441 8.66314 24.3823 9.57361 24.3823C10.4841 24.3823 11.2222 25.8441 11.2222 27.6473C11.2222 29.4505 10.4841 30.9123 9.57361 30.9123Z" fill="#FFCA0C"/>
<path d="M32.4262 30.9123C31.5157 30.9123 30.7776 29.4505 30.7776 27.6473C30.7776 25.8441 31.5157 24.3823 32.4262 24.3823C33.3366 24.3823 34.0747 25.8441 34.0747 27.6473C34.0747 29.4505 33.3366 30.9123 32.4262 30.9123Z" fill="#FFCA0C"/>
<path d="M21 7.70776C27.3102 7.70776 32.4263 11.8224 32.4263 16.8977V43.6574H9.57372V16.8977C9.57372 11.8224 14.6898 7.70776 21 7.70776Z" fill="#868E96"/>
<path d="M13.3476 26.7447L13.8934 21.3928C13.9848 20.4925 14.8418 19.8022 15.8692 19.8022H26.1322C27.1596 19.8022 28.0166 20.4925 28.108 21.3928L28.6538 26.7447C28.7576 27.7672 27.8438 28.6476 26.678 28.6476H24.8233L25.4506 35.3839C25.5457 36.4014 24.6331 37.2732 23.4735 37.2732H18.5279C17.3683 37.2732 16.4558 36.4014 16.5508 35.3839L17.1782 28.6476H15.3246C14.1589 28.6476 13.2451 27.7672 13.3488 26.7447H13.3476Z" fill="#FFCA0C"/>
<path d="M23.6167 22.9895H24.0625C24.7779 22.9895 25.3579 23.5695 25.3579 24.2849V24.9554C25.3579 25.6708 24.7779 26.2508 24.0625 26.2508H23.6167C22.9013 26.2508 22.3214 25.6708 22.3214 24.9554V24.2849C22.3214 23.5695 22.9013 22.9895 23.6167 22.9895Z" fill="#EAF6FD"/>
<path d="M17.6287 22.9895H18.0745C18.7899 22.9895 19.3699 23.5695 19.3699 24.2849V24.9554C19.3699 25.6708 18.7899 26.2508 18.0745 26.2508H17.6287C16.9133 26.2508 16.3333 25.6708 16.3333 24.9554V24.2849C16.3333 23.5695 16.9133 22.9895 17.6287 22.9895Z" fill="#EAF6FD"/>
<path d="M24.5242 26.1135C23.8934 26.1135 23.382 25.5087 23.382 24.7626C23.382 24.0165 23.8934 23.4116 24.5242 23.4116C25.1551 23.4116 25.6665 24.0165 25.6665 24.7626C25.6665 25.5087 25.1551 26.1135 24.5242 26.1135Z" fill="#002748"/>
<path d="M18.4032 26.1135C17.7723 26.1135 17.2609 25.5087 17.2609 24.7626C17.2609 24.0165 17.7723 23.4116 18.4032 23.4116C19.034 23.4116 19.5454 24.0165 19.5454 24.7626C19.5454 25.5087 19.034 26.1135 18.4032 26.1135Z" fill="#002748"/>
<path d="M21.1605 29.7911C21.1605 29.9738 21.6828 30.122 22.3274 30.122C22.972 30.122 23.4944 29.9738 23.4944 29.7911C23.4944 29.6083 22.972 29.2107 22.3274 29.2107C21.6828 29.2107 21.1605 29.6083 21.1605 29.7911Z" fill="#002748"/>
<path d="M20.8394 29.7911C20.8394 29.9738 20.317 30.122 19.6724 30.122C19.0278 30.122 18.5054 29.9738 18.5054 29.7911C18.5054 29.6083 19.0278 29.2107 19.6724 29.2107C20.317 29.2107 20.8394 29.6083 20.8394 29.7911Z" fill="#002748"/>
<path d="M21.0284 32.9732C22.6584 32.9732 23.7673 32.4669 23.8365 32.4348C24.0217 32.3484 24.102 32.1273 24.0155 31.9421C23.9291 31.7569 23.7093 31.6766 23.524 31.763C23.4944 31.7766 21.2086 32.804 18.4561 31.7532C18.2647 31.6803 18.0511 31.7766 17.9782 31.9668C17.9054 32.1582 18.0017 32.3718 18.1919 32.4447C19.2279 32.8399 20.1973 32.972 21.0296 32.972L21.0284 32.9732Z" fill="#002748"/>
<path d="M21.9398 13.2685C21.3804 11.1248 21.6842 8.40683 23.7538 7.19295C24.8702 6.51501 26.1618 6.2915 27.4893 6.24334C27.6141 6.23963 27.7116 6.1359 27.7079 6.01118C27.7042 5.89757 27.619 5.80619 27.5091 5.79384C25.458 5.52711 23.0549 5.82595 21.5385 7.40906C19.9986 8.99587 19.5553 11.3384 19.7096 13.4772C19.7121 13.5958 19.7504 13.7909 19.7677 13.923C19.8615 14.5479 20.4444 14.9801 21.0705 14.8862C21.8176 14.7862 22.2646 13.9452 21.9386 13.2698L21.9398 13.2685Z" fill="#FFCA0C"/>
<path d="M27.9794 7.52145C27.1167 7.52145 26.4173 6.82206 26.4173 5.95933C26.4173 5.0966 27.1167 4.39722 27.9794 4.39722C28.8421 4.39722 29.5415 5.0966 29.5415 5.95933C29.5415 6.82206 28.8421 7.52145 27.9794 7.52145Z" fill="#FF4D4D"/>
<ellipse cx="27.8465" cy="14.8082" rx="2.5" ry="1.5" transform="rotate(43.4475 27.8465 14.8082)" fill="#D9D9D9"/>
<ellipse cx="27.8465" cy="14.8082" rx="1.85818" ry="1.11491" transform="rotate(43.4475 27.8465 14.8082)" fill="#F5F5F5"/>
</g>
</svg>
