<svg width="104" height="92" viewBox="0 0 104 92" fill="none" xmlns="http://www.w3.org/2000/svg">
<g clip-path="url(#clip0_111_8712)">
<path d="M85.2631 63.8481C83.0235 60.4272 86.5601 51.2534 87.1692 41.6093C89.2722 21.279 84.918 8.66109 74.0696 3.79968C67.5198 0.228326 60.7083 -0.793056 53.6443 0.598894C53.5239 0.622054 53.4058 0.652163 53.29 0.691536C42.3489 4.249 35.1506 18.59 32.0957 27.0436C29.0223 35.5412 26.0717 50.1023 23.2438 52.1358L18.1739 64.8208C17.5162 64.8532 16.9788 65.0455 16.9788 65.0455C16.9788 65.0455 17.4583 63.0351 16.4531 62.3125C15.4479 61.5899 14.0907 62.3125 14.0907 62.3125C14.0907 62.3125 0.333337 84.0719 0.00677293 93.3129C-0.250309 100.588 6.80903 106.644 21.56 108.833C23.2577 117.523 24.5338 125.659 24.6079 129.652H104C102.525 121.78 100.971 87.8447 85.2631 63.8527V63.8481Z" fill="#2F80ED"/>
<path d="M44.6396 26.3026C41.1863 27.4166 37.7562 35.136 40.9408 37.0051C44.1254 38.8718 45.6192 39.9279 45.9203 41.1485C46.2214 42.3691 37.2398 49.0023 40.2043 54.4241C43.1689 59.846 60.2081 67.4149 65.4215 61.5229C70.635 55.6308 63.3602 46.934 65.271 45.4888C67.1817 44.0436 77.1523 47.1448 78.2293 42.3413C79.3063 37.5378 76.93 28.2133 70.357 27.3147C63.7841 26.4161 50.6984 24.3455 44.6396 26.3026Z" fill="#FFCA0C"/>
<path d="M49.297 44.3192C49.4383 43.6938 51.9582 43.7471 53.4613 44.8634C54.9644 45.9798 55.0941 48.4441 53.2482 48.4209C51.4023 48.3977 52.2291 46.4522 51.0757 45.9427C49.9223 45.4332 49.1557 44.9445 49.297 44.3192Z" fill="#002327"/>
<path d="M61.8642 49.2315C62.3274 48.6317 61.5747 46.2994 58.7515 46.9734C57.1163 47.3625 55.5924 47.9623 56.8453 49.0856C58.0983 50.2089 58.6634 48.6178 59.7311 49.0416C60.7988 49.4655 61.5492 49.6345 61.8619 49.2315H61.8642Z" fill="#002327"/>
<path d="M51.3721 30.9207C48.9124 31.0296 44.7204 35.884 49.9964 39.1728C55.2723 42.4616 58.8599 36.1921 57.6278 33.8088C56.3956 31.4256 54.3274 30.7887 51.3721 30.9207Z" fill="#EAF6FD"/>
<path d="M51.0412 39.7191C52.7309 39.7191 54.1007 38.3493 54.1007 36.6596C54.1007 34.9699 52.7309 33.6001 51.0412 33.6001C49.3515 33.6001 47.9817 34.9699 47.9817 36.6596C47.9817 38.3493 49.3515 39.7191 51.0412 39.7191Z" fill="#002327"/>
<path d="M62.4658 33.4105C60.0062 33.5193 55.8141 38.3738 61.0901 41.6626C66.3661 44.9514 69.9537 38.6818 68.7215 36.2986C67.4894 33.9154 65.4211 33.2785 62.4658 33.4105Z" fill="#EAF6FD"/>
<path d="M62.364 42.2601C64.0537 42.2601 65.4235 40.8903 65.4235 39.2006C65.4235 37.5109 64.0537 36.1411 62.364 36.1411C60.6742 36.1411 59.3044 37.5109 59.3044 39.2006C59.3044 40.8903 60.6742 42.2601 62.364 42.2601Z" fill="#002327"/>
<path d="M45.9851 8.16307C43.7246 9.4369 40.957 10.1132 38.4857 10.8381C37.4667 11.1462 36.4962 11.4032 35.6347 11.9174C35.5281 11.9938 35.4401 12.0517 35.3729 12.149C35.3567 12.2 35.3868 12.1351 35.3822 12.1351C35.5768 12.4918 35.9172 12.7234 36.3248 12.9897C39.5905 14.7963 43.4722 15.6509 47.1987 15.6022C48.2548 15.5837 49.3133 15.4888 50.3601 15.3359C50.696 15.2919 51.004 15.2155 51.3699 15.2363C52.0184 15.2548 52.5071 15.9172 52.1875 16.5541C52.081 16.7603 51.9768 16.8529 51.8285 16.9872C51.7405 17.059 51.7753 17.0382 51.7706 17.0359C51.759 17.0359 51.8007 17.0058 51.7984 16.9803C51.7984 16.9687 51.8193 16.9409 51.8216 16.9201C51.8355 16.8575 51.8332 16.7834 51.8169 16.7255C51.7892 16.663 51.7892 16.6792 51.8077 16.7024C52.2269 17.1054 52.8545 17.2837 53.4405 17.4412C54.2233 17.6311 55.0548 17.7006 55.8886 17.7052C57.5631 17.6983 59.2492 17.3509 60.8588 16.7533C61.2618 16.6028 61.5467 17.1887 61.153 17.4041C59.5642 18.2541 57.7877 18.8077 55.9465 18.9652C55.0247 19.0462 54.089 19.0207 53.1487 18.8586C52.0972 18.6386 50.7191 18.3352 50.2837 17.1656C50.11 16.6584 50.3578 16.0886 50.7516 15.769C50.7701 15.7505 50.7724 15.7482 50.784 15.7366C50.784 15.7366 50.777 15.7412 50.7747 15.7458C50.777 15.7435 50.74 15.7852 50.7191 15.8362C50.7006 15.8779 50.6798 15.9242 50.6705 15.9705C50.5686 16.3272 50.8095 16.7649 51.1661 16.8622C51.2217 16.8807 51.2588 16.8807 51.2588 16.883C51.2796 16.883 51.2472 16.8853 51.2194 16.89C49.9155 17.1517 48.5814 17.3393 47.2474 17.3833C43.581 17.5477 39.9194 16.7417 36.6051 15.1784C35.5907 14.6573 34.4789 14.0389 33.9231 12.9782C33.4136 12.0309 33.8953 11.0396 34.7916 10.5602C34.9769 10.4305 35.2873 10.3193 35.4934 10.2244C37.2559 9.5944 38.9698 9.379 40.7555 9.03623C42.4786 8.72356 44.1832 8.40163 45.8415 7.85967C46.0338 7.79714 46.1542 8.0658 45.9805 8.16539L45.9851 8.16307Z" fill="#FFCA0C"/>
<path d="M85.5708 39.2005C85.0149 42.172 82.2264 48.3374 83.4354 49.8405C85.2836 52.138 89.6818 50.3732 90.9139 44.8864C92.146 39.3997 86.0502 36.639 85.5708 39.2005Z" fill="#FFCA0C"/>
<path d="M32.7257 28.5746C32.1398 34.1378 31.9035 39.1104 30.1109 39.1057C27.3872 39.1011 24.2351 36.9194 25.4649 31.4326C26.6947 25.9459 32.9967 25.9945 32.7234 28.5746H32.7257Z" fill="#FFCA0C"/>
<path d="M61.0512 51.1328C60.903 50.7831 58.8046 50.4403 58.5383 51.4455C58.3345 52.2144 57.0769 54.7019 58.7027 55.3156C60.3286 55.9294 62.5011 55.4453 62.779 54.8594C63.0569 54.2734 63.1403 53.1663 62.6099 52.5595C62.0795 51.9527 61.0489 51.1328 61.0489 51.1328H61.0512Z" fill="#E6003A"/>
<path d="M47.7432 51.0497C50.988 52.5968 59.3281 56.4739 62.4525 54.0258C63.5619 52.8771 59.569 50.2738 58.7422 52.6895C58.6078 53.0508 58.4851 53.4468 58.3971 53.8151C58.3114 54.1833 58.2419 54.5145 58.2975 54.8619C58.3067 54.9059 58.2859 54.8851 58.2558 54.8758C58.2187 54.8642 58.2373 54.8689 58.1655 54.8527C58.4179 54.899 58.5847 55.1398 58.5383 55.3923C58.455 55.8046 57.9894 55.8671 57.6976 55.6309C57.0399 55.0958 57.1696 54.1069 57.2576 53.3796C57.3085 53.0855 57.378 52.7728 57.4498 52.4856C57.9547 50.5425 59.8307 49.8778 61.5724 50.6096C63.8421 51.4573 65.2897 54.3223 62.5173 55.6007C60.771 56.3697 58.7769 56.1219 57.0329 55.7119C55.8795 55.4386 54.7724 55.0472 53.6932 54.6118C51.5392 53.7201 49.4918 52.6408 47.5579 51.367C47.375 51.2442 47.5371 50.9431 47.7432 51.052V51.0497Z" fill="#002327"/>
<path d="M10.7996 38.6285C10.7996 38.6285 21.326 71.6879 20.2074 78.2724L44.3731 74.2147L45.4454 70.3399L47.509 74.3977L54.6124 72.9223C54.6124 72.9223 47.2172 33.334 42.1613 32.3057C42.1613 32.3057 21.4997 37.5399 10.8019 38.6285H10.7996Z" fill="white"/>
<path d="M13.8501 63.7926C14.1025 63.0375 18.2645 56.9533 23.5081 55.8694C28.7516 54.7854 31.2043 55.8578 32.001 56.1959C33.4787 56.8236 32.9738 58.6625 32.1678 58.783C32.1678 58.783 34.5232 61.1476 32.4619 62.1343C32.4619 62.1343 34.6159 63.6606 33.3073 65.1776C33.4648 65.3652 30.1829 66.4491 28.2814 68.3552C25.4999 71.1414 23.1074 74.099 20.9256 73.7725C18.2552 73.3741 13.8524 64.1377 13.8524 64.1377" fill="#FFCA0C"/>
<path d="M69.243 72.994C68.9906 72.239 64.8286 66.1547 59.5851 65.0708C54.3415 63.9869 51.8888 65.0592 51.0921 65.3973C49.6144 66.025 50.1193 67.8639 50.9253 67.9844C50.9253 67.9844 48.5699 70.3491 50.6312 71.3357C50.6312 71.3357 48.4773 72.862 49.7858 74.379C49.6283 74.5666 52.9102 75.6505 54.8117 77.5566C57.5932 80.3428 59.9857 83.3005 62.1675 82.9739C64.8379 82.5755 69.2407 73.3391 69.2407 73.3391" fill="#FFCA0C"/>
</g>
<defs>
<clipPath id="clip0_111_8712">
<rect width="104" height="92" fill="white"/>
</clipPath>
</defs>
</svg>
