<svg width="42" height="42" viewBox="0 0 42 42" fill="none" xmlns="http://www.w3.org/2000/svg">
<rect x="1" y="1" width="40" height="40" rx="20" stroke="#DEE2E6"/>
<mask id="mask0_111_4235" style="mask-type:luminance" maskUnits="userSpaceOnUse" x="1" y="1" width="40" height="40">
<path d="M21 41C32.0457 41 41 32.0457 41 21C41 9.9543 32.0457 1 21 1C9.9543 1 1 9.9543 1 21C1 32.0457 9.9543 41 21 41Z" fill="white"/>
</mask>
<g mask="url(#mask0_111_4235)">
<path d="M21 41C32.0457 41 41 32.0457 41 21C41 9.9543 32.0457 1 21 1C9.9543 1 1 9.9543 1 21C1 32.0457 9.9543 41 21 41Z" fill="#008CD6"/>
<path d="M24.8899 6.16814C21.3965 5.16913 18.0487 5.40993 14.8405 6.8251C14.7862 6.84856 14.7331 6.87573 14.6824 6.9066C9.86151 9.76409 7.96968 17.3474 7.41769 21.6917C6.86324 26.0582 7.01265 33.2946 5.88645 34.5616C4.76025 35.8286 -8.52822 37.9772 -12.6132 48.2613C-16.6981 58.5453 -8.84435 64.6789 -3.52081 65.9273C1.55575 67.1178 2.5881 66.53 2.68566 65.7446C2.78445 64.9592 4.42189 58.9441 3.44387 59.49C0.349279 61.22 -8.59737 55.8915 -5.01871 51.12C-1.44005 46.3484 2.44856 47.2351 3.78223 47.6352C5.11465 48.0353 5.85187 58.1588 7.08304 63.2082C9.58983 73.4897 10.6703 77.0498 10.3999 79.3368C10.1295 81.6238 11.3718 81.2497 13.2759 81.2497C15.1801 81.2497 15.2875 77.529 16.4446 75.5371C17.6017 73.5453 25.2456 72.7858 26.4026 75.6322C27.5597 78.4774 26.8879 81.2731 29.2527 81.2731H31.0766C31.8311 81.2731 32.3893 81.1052 32.2843 80.5001C31.9904 78.8058 33.9181 70.7285 34.7973 66.772C37.2794 55.5989 40.2826 49.0664 43.7477 45.0679C47.2127 41.0694 57.2065 28.7515 57.0732 18.3563C56.9843 11.4262 55.5456 11.5979 55.2171 11.5757C54.7047 11.5411 54.1564 11.2978 53.6995 11.7584C53.5439 11.9152 53.3043 12.0276 53.024 12.0647L52.9759 12.0708C52.7783 12.0968 52.5745 12.0869 52.3856 12.0437C51.9324 11.9387 51.0519 11.7547 50.637 11.809C50.3752 11.8436 50.1826 11.9881 50.0517 12.135C49.8442 12.3672 49.4454 12.4956 49.0329 12.4783C48.7353 12.466 48.4686 12.4746 48.3698 12.6068C48.2488 12.7673 48.6563 13.3502 48.6896 13.5391C49.0737 15.6977 43.981 31.9054 38.8995 33.7811C34.7207 35.3235 36.1544 29.0565 35.1505 22.7389C33.9823 12.8513 30.5679 7.31905 24.8924 6.16444L24.8899 6.16814Z" fill="#FDECCC"/>
<path d="M13.3019 20.0009C11.7793 20.8987 10.973 24.933 12.6857 25.4813C14.3985 26.0296 15.2209 26.3717 15.4951 26.9199C15.7692 27.4682 12.2066 31.5791 14.1935 33.8389C16.1804 36.1 25.0863 37.8807 26.9362 34.5243C28.786 31.1679 24.401 27.8103 25.1555 26.9199C25.91 26.0296 30.9791 26.4408 30.9791 24.0427C30.9791 21.6446 28.8551 17.4658 25.6358 17.7399C22.4153 18.014 15.9754 18.4253 13.3044 20.0009H13.3019Z" fill="#FFCA0C"/>
<path d="M17.4363 28.0687C17.4363 27.7562 18.6403 27.513 19.4738 27.8834C20.3074 28.2539 20.6321 29.4122 19.7517 29.5974C18.8712 29.7827 19.0564 28.7701 18.4551 28.6515C17.8537 28.533 17.4363 28.3823 17.4363 28.0699V28.0687Z" fill="#002327"/>
<path d="M23.9327 29.0638C24.0896 28.7291 23.482 27.7005 22.2126 28.3216C21.4766 28.681 20.8159 29.1292 21.5321 29.5281C22.2484 29.927 22.3472 29.1119 22.8992 29.1996C23.4511 29.2873 23.8265 29.2873 23.9327 29.0626V29.0638Z" fill="#002327"/>
<path d="M34.1317 21.7671C34.1848 23.239 33.5168 26.4658 34.2515 27.0511C35.3752 27.9451 37.2769 26.6387 37.2769 23.8997C37.2769 21.1608 34.086 20.4989 34.1317 21.7671Z" fill="#FFCA0C"/>
<path d="M7.88082 22.3524C8.19571 25.0593 8.6131 27.4475 7.76103 27.6364C6.46565 27.9242 4.7356 27.224 4.7356 24.485C4.7356 21.7461 7.7351 21.0965 7.88082 22.3524Z" fill="#FFCA0C"/>
<path d="M16.994 21.4793C15.8369 21.7929 14.2056 25.2568 17.22 25.5482C20.4701 25.8618 21.1604 23.1056 20.275 22.1844C19.3686 21.2434 18.3844 21.1014 16.994 21.478V21.4793Z" fill="#EAF6FD"/>
<path d="M17.2717 24.5542C18.0949 24.5542 18.7622 23.8869 18.7622 23.0637C18.7622 22.2406 18.0949 21.5732 17.2717 21.5732C16.4486 21.5732 15.7812 22.2406 15.7812 23.0637C15.7812 23.8869 16.4486 24.5542 17.2717 24.5542Z" fill="#002327"/>
<path d="M22.5324 21.4795C21.3754 21.7931 19.8491 23.7072 22.5917 24.9927C25.9864 26.5844 27.2324 23.8245 25.8135 22.1858C24.9577 21.1979 23.9229 21.1028 22.5324 21.4795Z" fill="#EAF6FD"/>
<path d="M22.9238 24.5542C23.747 24.5542 24.4143 23.8869 24.4143 23.0637C24.4143 22.2406 23.747 21.5732 22.9238 21.5732C22.1007 21.5732 21.4333 22.2406 21.4333 23.0637C21.4333 23.8869 22.1007 24.5542 22.9238 24.5542Z" fill="#002327"/>
<path d="M16.1087 29.7022C17.6745 29.8516 19.1762 30.3344 20.7432 30.4357C22.3004 30.5666 23.881 30.4246 25.3678 29.9245C25.4691 29.8874 25.5444 30.0356 25.4493 30.0936C23.1389 31.5619 19.5824 31.594 17.0658 30.6358C16.6829 30.4765 16.315 30.2888 15.9729 30.0257C15.8939 29.9652 15.879 29.8504 15.9396 29.7713C15.9815 29.717 16.0458 29.6935 16.11 29.7022H16.1087Z" fill="#002327"/>
<path d="M17.6584 18.2687C15.8123 17.0672 13.3339 16.698 11.3359 17.7217C11.0592 17.8575 10.7258 17.7427 10.59 17.4661C10.4393 17.166 10.5986 16.7918 10.9185 16.6906C11.8138 16.3979 12.7572 16.288 13.6883 16.3856C15.1825 16.551 16.6075 17.1969 17.7337 18.1761C17.7881 18.2255 17.7201 18.3144 17.6572 18.2687H17.6584Z" fill="#FFCA0C"/>
<path d="M18.234 17.5917C17.2683 17.1892 16.3668 16.7002 15.5123 16.1037C14.68 15.5097 13.8674 14.7947 13.4303 13.8488C13.4068 13.7982 13.4303 13.7389 13.4797 13.7167C13.5266 13.6957 13.5797 13.713 13.6057 13.755C14.4392 14.9676 15.8544 15.6048 17.1905 16.1111C17.635 16.2717 18.1166 16.4235 18.5686 16.531C19.3318 16.7446 18.9848 17.8535 18.234 17.5905V17.5917Z" fill="#FFCA0C"/>
</g>
</svg>
