<svg width="38" height="38" viewBox="0 0 38 38" fill="none" xmlns="http://www.w3.org/2000/svg">
<rect x="1" y="1" width="36" height="36" rx="18" stroke="#DEE2E6"/>
<mask id="mask0_111_4396" style="mask-type:luminance" maskUnits="userSpaceOnUse" x="1" y="1" width="36" height="36">
<path d="M19 37C28.9411 37 37 28.9411 37 19C37 9.05887 28.9411 1 19 1C9.05887 1 1 9.05887 1 19C1 28.9411 9.05887 37 19 37Z" fill="white"/>
</mask>
<g mask="url(#mask0_111_4396)">
<path d="M19 37C28.9411 37 37 28.9411 37 19C37 9.05887 28.9411 1 19 1C9.05887 1 1 9.05887 1 19C1 28.9411 9.05887 37 19 37Z" fill="#FDFCE6"/>
<path d="M22.5009 5.65128C19.3568 4.75217 16.3439 4.96889 13.4565 6.24254C13.4076 6.26365 13.3598 6.28811 13.3142 6.31589C8.97538 8.88764 7.27274 15.7127 6.77595 19.6225C6.27694 23.5524 6.41141 30.0651 5.39783 31.2054C4.38424 32.3457 -7.57537 34.2795 -11.2518 43.5351C-14.9283 52.7907 -7.85989 58.311 -3.06871 59.4346C1.5002 60.5059 2.42932 59.9769 2.51712 59.2701C2.60603 58.5632 4.07973 53.1497 3.19951 53.6409C0.414376 55.198 -7.63761 50.4023 -4.41682 46.1079C-1.19602 41.8135 2.30373 42.6115 3.50403 42.9716C4.70321 43.3317 5.36671 52.4428 6.47476 56.9873C8.73088 66.2407 9.70334 69.4448 9.45994 71.5031C9.21655 73.5614 10.3346 73.2246 12.0484 73.2246C13.7621 73.2246 13.8588 69.876 14.9002 68.0834C15.9415 66.2907 22.821 65.6072 23.8624 68.1689C24.9038 70.7296 24.2992 73.2458 26.4275 73.2458H28.069C28.748 73.2458 29.2504 73.0946 29.1559 72.55C28.8914 71.0252 30.6263 63.7556 31.4176 60.1947C33.6515 50.1389 36.3544 44.2597 39.4729 40.661C42.5915 37.0624 51.5859 25.9763 51.4659 16.6207C51.3859 10.3836 50.0911 10.538 49.7955 10.518C49.3342 10.4869 48.8408 10.268 48.4296 10.6825C48.2895 10.8237 48.0739 10.9248 47.8216 10.9581L47.7783 10.9637C47.6005 10.987 47.4171 10.9782 47.2471 10.9393C46.8392 10.8448 46.0468 10.6792 45.6733 10.7281C45.4377 10.7592 45.2643 10.8892 45.1465 11.0215C44.9598 11.2304 44.6008 11.346 44.2296 11.3305C43.9618 11.3193 43.7217 11.3271 43.6328 11.446C43.5239 11.5905 43.8907 12.1151 43.9207 12.2851C44.2663 14.2278 39.683 28.8148 35.1096 30.503C31.3487 31.8911 32.639 26.2508 31.7354 20.565C30.6841 11.6661 27.6111 6.68709 22.5032 5.64795L22.5009 5.65128Z" fill="#E4678A"/>
<path d="M12.0716 18.101C10.7013 18.9089 9.97556 22.5398 11.5171 23.0333C13.0585 23.5267 13.7987 23.8346 14.0455 24.328C14.2922 24.8215 11.0858 28.5213 12.8741 30.5551C14.6623 32.5901 22.6776 34.1927 24.3424 31.172C26.0073 28.1512 22.0608 25.1294 22.7398 24.328C23.4189 23.5267 27.9811 23.8968 27.9811 21.7385C27.9811 19.5802 26.0695 15.8193 23.1722 16.066C20.2737 16.3127 14.4778 16.6828 12.0739 18.101H12.0716Z" fill="#FFCA0C"/>
<path d="M15.7927 25.3615C15.7927 25.0803 16.8763 24.8614 17.6265 25.1948C18.3767 25.5282 18.669 26.5707 17.8766 26.7374C17.0842 26.9041 17.2509 25.9928 16.7096 25.8861C16.1684 25.7794 15.7927 25.6438 15.7927 25.3626V25.3615Z" fill="#002327"/>
<path d="M21.6394 26.2574C21.7806 25.9562 21.2338 25.0304 20.0913 25.5894C19.4289 25.9129 18.8343 26.3163 19.4789 26.6753C20.1235 27.0342 20.2124 26.3007 20.7092 26.3796C21.206 26.4585 21.5438 26.4585 21.6394 26.2563V26.2574Z" fill="#002327"/>
<path d="M30.8185 19.6902C30.8662 21.015 30.265 23.919 30.9263 24.4458C31.9376 25.2505 33.6492 24.0746 33.6492 21.6096C33.6492 19.1445 30.7773 18.5488 30.8185 19.6902Z" fill="#FFCA0C"/>
<path d="M7.19276 20.217C7.47616 22.6532 7.85181 24.8026 7.08495 24.9726C5.91911 25.2316 4.36206 24.6014 4.36206 22.1364C4.36206 19.6713 7.06162 19.0867 7.19276 20.217Z" fill="#FFCA0C"/>
<mask id="mask1_111_4396" style="mask-type:luminance" maskUnits="userSpaceOnUse" x="12" y="20" width="7" height="4">
<path d="M18.7221 20.2749L18.9255 23.2601H12.9307L13.3852 22.052C13.5975 21.4885 13.5419 21.2985 14.0721 21.0484L18.721 20.276L18.7221 20.2749Z" fill="white"/>
</mask>
<g mask="url(#mask1_111_4396)">
<path d="M15.3946 19.4313C14.3532 19.7136 13.0262 22.1931 15.598 23.0934C18.1708 23.9947 19.1033 20.9673 18.3475 20.0659C17.5918 19.1646 16.646 19.0913 15.3946 19.4302V19.4313Z" fill="#EAF6FD"/>
<path d="M17.1339 22.5933C17.8748 22.5933 18.4754 21.9927 18.4754 21.2518C18.4754 20.511 17.8748 19.9104 17.1339 19.9104C16.3931 19.9104 15.7925 20.511 15.7925 21.2518C15.7925 21.9927 16.3931 22.5933 17.1339 22.5933Z" fill="#002327"/>
</g>
<path d="M19.7581 28.42C19.0791 28.7212 17.2786 27.8588 17.4731 28.5934C17.6676 29.328 19.5347 30.3938 20.7306 29.6881C21.9264 28.9824 23.309 27.5642 22.8956 27.1741C22.1176 26.4417 21.3229 27.7254 19.7581 28.42Z" fill="white"/>
<path d="M19.847 28.6191C19.129 28.8658 18.41 28.4591 17.7065 28.4735C17.6553 28.4768 17.6231 28.4968 17.6353 28.4879C17.6375 28.4779 17.6387 28.4835 17.6353 28.4879C17.6342 28.4968 17.6353 28.5168 17.6398 28.5391C17.9521 29.5015 19.7803 30.0928 20.6283 29.5527C21.4074 29.0548 22.1853 28.4157 22.6621 27.6233C22.7032 27.5422 22.7666 27.4121 22.7366 27.3432C22.6132 27.2565 22.4965 27.1932 22.3276 27.2121C21.9642 27.2799 21.6552 27.5366 21.3296 27.75C20.8706 28.069 20.3827 28.389 19.8459 28.6191H19.847ZM19.6703 28.2212C20.1593 27.9978 20.6061 27.6911 21.0573 27.3621C21.5852 26.972 22.4187 26.343 23.0267 26.9742C23.7902 27.6944 21.7219 29.2592 21.164 29.6193C20.0393 30.5007 18.4622 29.9739 17.5464 29.0425C17.3264 28.8291 17.1041 28.3135 17.5153 28.1512C17.7176 28.0767 17.9421 28.1101 18.1266 28.1279C18.6367 28.1734 19.1835 28.3724 19.6692 28.2201L19.6703 28.2212Z" fill="#002327"/>
<mask id="mask2_111_4396" style="mask-type:luminance" maskUnits="userSpaceOnUse" x="18" y="20" width="9" height="5">
<path d="M26.4518 20.2749H18.9255V24.3192H26.4518V20.2749Z" fill="white"/>
</mask>
<g mask="url(#mask2_111_4396)">
<path d="M20.3792 19.4313C19.3378 19.7136 18.0109 22.1931 20.5826 23.0933C23.1543 23.9936 24.0879 20.9673 23.3322 20.0659C22.5764 19.1646 21.6306 19.0913 20.3792 19.4302V19.4313Z" fill="#EAF6FD"/>
<path d="M22.2218 22.5933C22.9627 22.5933 23.5633 21.9927 23.5633 21.2518C23.5633 20.511 22.9627 19.9104 22.2218 19.9104C21.481 19.9104 20.8804 20.511 20.8804 21.2518C20.8804 21.9927 21.481 22.5933 22.2218 22.5933Z" fill="#002327"/>
</g>
<path d="M14.0521 9.83217C14.4578 9.2887 14.7801 8.64299 14.8123 7.96504C14.8501 7.336 14.5456 6.6725 13.9277 6.47912C13.3564 6.28908 12.6329 6.49357 12.1872 6.87922C11.8405 7.18041 11.6527 7.63496 11.6093 8.09174C11.5593 8.38848 11.6771 8.99308 11.716 9.29315C10.9858 8.74857 10.0567 7.98283 9.11425 8.3707C8.92976 8.44294 8.8164 8.56408 8.68748 8.71189C6.78924 10.8369 11.6493 12.714 13.133 13.3397L13.3986 13.4453C13.3886 13.4775 13.3475 13.7387 13.332 13.7687C13.2931 13.9043 13.2342 14.0354 13.1619 14.1555C12.6218 15.0857 11.407 15.2402 10.4557 15.0001C10.3423 14.9723 10.3635 14.8056 10.4779 14.8056C11.3515 14.8156 12.514 14.5733 12.7174 13.5953L12.9352 13.9499C12.4595 13.8154 12.0127 13.6509 11.5626 13.4686C9.40655 12.6017 5.77454 10.3834 8.45631 7.94837C9.42544 7.23486 10.6746 7.67608 11.4871 8.33514L10.9792 8.62965C10.9458 8.22289 10.9981 7.82501 11.1325 7.43936C11.6038 5.86453 14.1677 5.23437 14.9801 6.84477C15.3347 7.55828 15.1835 8.39182 14.8357 9.06087C14.6645 9.38873 14.45 9.6888 14.2111 9.95998C14.1744 10.0022 14.1099 10.0067 14.0677 9.96887C14.0277 9.93331 14.0221 9.87329 14.0533 9.83106L14.0521 9.83217Z" fill="#FFCA0C"/>
<path d="M25.8972 13.5986C27.1375 12.8906 28.4767 12.1093 29.0969 10.7745C29.1814 10.5945 29.2514 10.4045 29.3236 10.1888C29.337 10.1366 29.417 10.1322 29.4348 10.1833C29.9227 11.6348 28.3489 12.7739 27.1998 13.2952C26.7919 13.4763 26.3718 13.6208 25.9328 13.703C25.8717 13.7153 25.8394 13.6252 25.8972 13.5975V13.5986Z" fill="#FFCA0C"/>
</g>
</svg>
