<svg width="316" height="482" viewBox="0 0 316 482" fill="none" xmlns="http://www.w3.org/2000/svg">
<path d="M156.5 423.89C153.14 425.93 150.65 425.56 144.4 426.72C138.14 427.89 125.76 428.84 140.22 432.5C154.68 436.15 166.94 435.28 169.7 433.69C172.46 432.1 168.41 425.73 168.45 423.99C168.49 422.24 162.17 420.45 156.5 423.89Z" fill="#FFCA0C"/>
<path d="M234.76 403.53C234.76 403.53 223.22 407.68 223.79 408.88C224.35 410.08 227.03 410.61 228.88 409.83C228.88 409.83 224.81 415.02 224.17 417.14C223.53 419.26 228.14 418.04 230.94 413.34C230.94 413.34 229.6 419.63 231.26 420C232.92 420.37 234.49 413.63 234.49 413.63C234.49 413.63 234.66 419.85 236.07 420.2C237.48 420.55 241.43 408.29 240.6 406.76C239.77 405.23 234.77 403.54 234.77 403.54L234.76 403.53Z" fill="#FFCA0C"/>
<path d="M138.31 239.55C138.31 239.55 155.05 238.47 155.09 236.56C155.13 234.64 152.16 232.79 149.39 233.13C149.39 233.13 157.57 227.51 159.65 224.81C161.73 222.1 155.31 221.9 148.99 227.36C148.99 227.36 154.47 219.07 152.66 217.87C150.85 216.67 144.8 225.49 144.8 225.49C144.8 225.49 148.38 216.69 146.86 215.62C145.34 214.55 133 230.14 133.09 232.63C133.18 235.12 138.31 239.56 138.31 239.56V239.55Z" fill="#FFCA0C"/>
<path d="M186.76 264.07C185.08 270.58 183.91 276.46 181.78 276.14C178.54 275.65 175.18 272.5 177.61 266.19C180.04 259.88 187.54 261.05 186.75 264.08L186.76 264.07Z" fill="#FFCA0C"/>
<path d="M125.4 385C131.36 407.2 154.09 433.2 165.09 425.32C172.63 419.92 151.05 410.99 155.48 385.84C157.29 375.57 186.19 360.69 207.7 359.57C235.46 358.13 243.93 391.16 229.72 405.06C222.27 412.35 237.94 411.02 242.9 408.09C251.74 402.86 259.74 378.19 245.12 352.25C239.65 342.56 231.2 328.45 236.98 314.88C242.77 301.31 266.19 260.38 233.56 243.27C200.93 226.16 194.04 249.34 190.71 255.53C183.12 269.64 178.33 292.03 155.23 279.19C134 267.39 138.15 254.08 143.62 241.27C144.28 239.72 145.12 238.27 146 236.83C146.48 236.04 146.77 234.92 145.63 233.82C145.16 233.37 143.48 234.55 142.33 234.09C141.18 233.63 141.25 231.77 139.75 231.57C138.95 231.46 137.18 232.4 136.54 232.33C135.83 232.25 135.56 230.06 135.03 230.09C132.61 230.22 131.84 233.07 127.03 244.68C121.16 258.83 128.14 279.9 137.56 302.39C147.3 325.66 114.58 338.16 105.96 336.35C97.34 334.54 93.79 327.04 76.31 334.27C58.83 341.5 70.72 343.3 72.96 348.36C75.2 353.42 76.56 348.12 84.56 349.11C93.46 350.22 116.74 352.79 125.39 384.98L125.4 385Z" fill="#2F80ED"/>
<path d="M194.27 263.28C189.8 264.02 184.15 272.91 187.74 275.8C191.33 278.69 192.97 280.27 193.12 281.83C193.27 283.39 180.97 289.92 183.63 297.16C186.29 304.39 205.92 316.87 213.43 310.55C220.94 304.23 213.57 292.17 216.19 290.74C218.81 289.31 230.54 294.97 232.75 289.24C234.96 283.51 233.75 271.57 225.8 269.25C217.85 266.93 202.09 261.97 194.26 263.27L194.27 263.28Z" fill="#FFCA0C"/>
<path d="M196.71 286.36C197 285.61 200.1 286.14 201.75 287.8C203.4 289.45 203.11 292.52 200.83 292.15C198.55 291.78 199.93 289.53 198.61 288.69C197.29 287.85 196.43 287.11 196.71 286.36Z" fill="#002327"/>
<path d="M211.31 294.74C211.99 294.09 211.49 291.07 207.89 291.38C205.8 291.56 203.81 292.02 205.15 293.64C206.49 295.26 207.48 293.4 208.72 294.12C209.96 294.84 210.85 295.19 211.31 294.75V294.74Z" fill="#002327"/>
<path d="M201.73 270.22C198.68 269.9 192.61 275.12 198.52 280.15C204.42 285.18 210 278.1 208.92 274.94C207.84 271.77 205.4 270.61 201.73 270.23V270.22Z" fill="#EAF6FD"/>
<path d="M203.05 280.55C204.287 280.55 205.29 279.547 205.29 278.31C205.29 277.073 204.287 276.07 203.05 276.07C201.813 276.07 200.81 277.073 200.81 278.31C200.81 279.547 201.813 280.55 203.05 280.55Z" fill="#002327"/>
<path d="M214.96 275.33C211.91 275.01 205.84 280.23 211.75 285.26C217.66 290.29 223.23 283.21 222.15 280.05C221.07 276.88 218.63 275.72 214.96 275.34V275.33Z" fill="#EAF6FD"/>
<path d="M216.55 287.34C218.66 287.34 220.37 285.63 220.37 283.52C220.37 281.41 218.66 279.7 216.55 279.7C214.44 279.7 212.73 281.41 212.73 283.52C212.73 285.63 214.44 287.34 216.55 287.34Z" fill="#002327"/>
<path d="M194.53 299.82C192.31 302.17 187.77 307.19 192.1 310.12C196.42 313.04 199.75 313.86 200.9 308.55C202.05 303.24 202.98 299.95 201.16 298.98C198.39 297.49 196.99 297.21 194.53 299.83V299.82Z" fill="#F1F3F5"/>
<path d="M194.89 300.17C193.31 302.15 189.96 306.12 192.16 308.42C192.3 308.62 192.7 308.82 192.9 308.98C194.26 309.78 195.93 310.81 197.42 310.94C199.39 310.93 199.49 308.32 200.21 306.33C200.67 304.68 201.22 303.03 201.41 301.47C201.49 300.69 201.43 299.97 201.03 299.63C200.45 299.19 199.62 298.76 198.93 298.5C197.3 297.79 195.9 298.95 194.91 300.18L194.89 300.17ZM194.17 299.48C195.9 297.67 198.11 296.8 200.48 298.03L201.09 298.3C201.82 298.54 202.55 299.28 202.73 300.02C203.31 302.3 202.72 304.67 202.47 306.83C202.13 308.77 202.1 310.62 200.76 312.35C197.94 315.68 193.27 312.97 190.72 310.77C186.74 307.05 191.26 302.12 194.17 299.5V299.48Z" fill="#002327"/>
<path d="M198.16 239.92C194.2 241.66 189.89 242.15 185.71 242.84C184.16 243.11 182.01 243.38 180.95 244.08C181.03 244.06 181.22 243.72 181.2 243.52C181.2 243.49 181.2 243.45 181.2 243.42C181.2 243.4 181.22 243.42 181.22 243.42C181.2 243.41 181.28 243.49 181.3 243.54C183.69 246.16 187.51 247.7 190.77 249.09C195.16 250.74 199.86 251.39 204.55 251.4C206.34 251.42 207.65 253.26 206.55 254.9C206.25 255.31 206.01 255.47 205.67 255.69C205.47 255.81 205.6 255.74 205.63 255.7C205.91 255.49 206.11 254.88 206.03 254.56C205.91 254.08 205.85 254.23 205.97 254.32C207.43 255.68 209.59 256.2 211.57 256.59C214.13 257.03 216.82 256.96 219.5 256.51C220.53 256.32 220.97 257.85 219.98 258.23C214.77 260.21 207.92 260.73 203.22 257.09C202.01 256.1 201.47 253.83 203.08 252.57C203.27 252.41 203.51 252.26 203.48 252.27C203.48 252.27 203.47 252.27 203.42 252.32C202.33 253.35 202.98 255.22 204.3 255.51C195.44 256.14 186.23 253.55 179.36 247.8C177.58 246.3 175.95 243.2 178.09 241.2C179.03 240.34 179.88 240.13 180.92 239.87C183.96 239.32 186.68 239.45 189.64 239.42C192.43 239.42 195.18 239.42 197.95 239.11C198.42 239.04 198.61 239.74 198.18 239.92H198.16Z" fill="#FFCA0C"/>
<path d="M242.53 285.96C242.1 289.57 239.24 297.19 240.81 298.9C243.21 301.51 248.35 299.04 249.39 292.36C250.43 285.68 242.9 282.85 242.53 285.96Z" fill="#FFCA0C"/>
<path d="M68.08 337.49C63.65 335.46 62.3 332.66 56.75 327.07C51.2 321.48 41.59 309.47 47.92 326.81C54.25 344.16 63.69 356.1 67.24 357.83C70.79 359.56 74.48 350.96 76.3 349.79C78.12 348.62 75.55 340.9 68.08 337.48V337.49Z" fill="#FFCA0C"/>
<path d="M60.51 270.66C60.96 265.2 58.97 260.8 60.61 254.04C62.25 247.29 58.92 245.07 57.91 246.29C56.9 247.51 54.36 256.88 54.72 261.29C55.08 265.7 58.91 277.55 59.44 277.62C59.97 277.69 60.51 270.65 60.51 270.65V270.66Z" fill="#EE9D25"/>
<path d="M73.84 252.89C68.42 256.52 66.36 255.79 65.82 261.49C65.28 267.19 66.42 272.93 64.27 275.76C62.12 278.59 59.58 280.24 59.58 280.24C59.58 280.24 60.07 283.31 61.33 283.31C62.59 283.31 61.15 284.85 61.15 284.85C61.15 284.85 58.11 283.97 57.69 281.86C57.27 279.75 56 281.03 54.82 279.03C53.64 277.04 44.4 273.97 43.25 281.84C42.1 289.7 40.19 289.33 40.14 286.63C40.09 283.93 40.24 270.89 44.95 269.35C49.66 267.81 56.21 274 57.24 275.32C57.24 275.32 54.43 259.43 61.6 255.24C68.78 251.06 76.85 250.87 73.83 252.89H73.84Z" fill="#FFCA0C"/>
<path d="M50.05 452.95C55.37 457.26 58.01 464.65 65.35 468.21C72.69 471.77 70.69 478.61 68.86 479.16C67.03 479.7 51.52 483.45 47.73 478.77C43.94 474.08 42.61 449.2 42.91 448.27C43.21 447.34 50.05 452.96 50.05 452.96V452.95Z" fill="#EE9D25"/>
<path d="M106.68 459.51C92.46 463.56 90.01 468.9 81.13 459.69C72.25 450.48 66.15 437.93 58.58 437.03C51.01 436.13 44.42 438.12 44.42 438.12C44.42 438.12 40.95 431.65 43.08 429.18C45.21 426.71 40.63 426.77 40.63 426.77C40.63 426.77 36.72 434.29 38.97 438.89C41.22 443.49 37.29 443.68 38.09 449.57C38.89 455.46 28.29 474.2 14.4 472.55C0.52 470.9 -1.79 476.32 2.17 477.01C6.13 477.7 26.87 480.87 37.71 479.98C48.55 479.09 47.45 455.93 47.36 451.54C47.36 451.54 64.82 485.64 82.77 479.16C100.72 472.69 114.6 457.26 106.68 459.52V459.51Z" fill="#FFCA0C"/>
<path d="M273.94 421.28C274.3 422.92 274.58 423.35 273.94 424.14C273.3 424.93 270.87 425.07 268.44 426.92C266.01 428.77 265.37 433.27 259.52 429.78C253.67 426.29 255.52 425.21 253.67 426.28C251.82 427.35 255.67 431.63 260.81 432.85C265.95 434.07 265.45 432.78 272.8 433.14C272.8 433.14 273.8 434.35 275.01 435.21C276.22 436.07 279.15 436.64 274.22 437.57C269.29 438.5 270.44 441.07 277.15 440.07C283.86 439.07 288 436.43 285.86 433.29C283.72 430.15 279.22 429.94 279.08 428.58C279.08 428.58 283.43 430.15 287.36 432.15C291.29 434.15 292.86 433.29 294.64 432.51C296.42 431.72 291.29 431.72 287.79 429.94C284.29 428.16 282.15 424.66 279.22 424.09C276.29 423.52 275.65 423.38 275.29 421.66C274.93 419.94 275 419.16 274.43 419.38C273.86 419.6 273.57 419.69 273.93 421.31L273.94 421.28Z" fill="#EE9D25"/>
<path d="M121.62 18.06C123.02 18.06 123.72 18.76 123.72 20.16V25.2599C123.72 31.7899 126.05 35.06 130.72 35.06C133.25 35.06 135.07 34.2799 136.17 32.7099C137.27 31.1399 137.82 28.6599 137.82 25.2599C137.82 21.6599 136.9 19.04 135.07 17.41C133.24 15.78 130.12 14.96 125.72 14.96H105.12C103.72 14.96 103.02 14.29 103.02 12.96V4.15996C103.02 2.75996 103.72 2.05995 105.12 2.05995H125.22C135.22 2.05995 142.92 3.88995 148.32 7.55995C153.72 11.23 156.42 17.09 156.42 25.16C156.42 29.09 155.8 32.51 154.57 35.41C153.34 38.31 151.59 40.7099 149.32 42.6099C147.05 44.5099 144.35 45.91 141.22 46.81C138.09 47.71 134.59 48.16 130.72 48.16C126.85 48.16 123.44 47.71 120.27 46.81C117.1 45.91 114.4 44.5099 112.17 42.6099C109.94 40.7099 108.2 38.31 106.97 35.41C105.74 32.51 105.12 29.09 105.12 25.16V20.16C105.12 18.76 105.79 18.06 107.12 18.06H121.62ZM104.82 69.06C104.82 67.7299 105.52 67.06 106.92 67.06H123.32L134.62 55.3599C135.35 54.6899 136.32 54.3599 137.52 54.3599H155.82C156.62 54.3599 157.12 54.66 157.32 55.26C157.52 55.86 157.32 56.4299 156.72 56.9599L133.52 81.06C132.79 81.7299 131.82 82.06 130.62 82.06H106.92C105.52 82.06 104.82 81.39 104.82 80.06V69.06ZM146.82 74.66C145.82 73.79 145.79 72.83 146.72 71.76L155.92 62.16C156.85 61.23 157.82 61.23 158.82 62.16L164.52 67.06H179.62C181.02 67.06 181.72 67.7299 181.72 69.06V80.06C181.72 81.39 181.02 82.06 179.62 82.06H157.32C156.72 82.06 156.2 81.9799 155.77 81.81C155.34 81.64 154.89 81.39 154.42 81.06L146.82 74.66ZM163.92 54.56C162.52 54.56 161.82 53.89 161.82 52.56V3.05995C161.82 1.65995 162.52 0.959961 163.92 0.959961H178.22C179.62 0.959961 180.32 1.65995 180.32 3.05995V18.96H185.02C186.35 18.96 187.02 19.66 187.02 21.06V32.76C187.02 34.09 186.35 34.76 185.02 34.76H180.32V52.56C180.32 53.89 179.62 54.56 178.22 54.56H163.92Z" fill="#2F80ED"/>
<path d="M198.21 58.9601C196.81 58.9601 196.11 58.2901 196.11 56.9601L195.41 3.66006C195.41 2.26006 196.11 1.56006 197.51 1.56006H212.61C214.01 1.56006 214.71 2.26006 214.71 3.66006L214.01 56.9601C214.01 58.2901 213.31 58.9601 211.91 58.9601H198.21ZM197.92 82.5601C196.52 82.5601 195.82 81.8901 195.82 80.5601V67.7601C195.82 66.2901 196.52 65.5601 197.92 65.5601H212.22C213.62 65.5601 214.32 66.2901 214.32 67.7601V80.5601C214.32 81.8901 213.62 82.5601 212.22 82.5601H197.92Z" fill="#2F80ED"/>
<path d="M41.19 98.2499C41.19 97.9699 41.34 97.8299 41.63 97.8299H51.28C51.57 97.8299 51.72 97.9699 51.72 98.2499V100.21C51.72 100.49 51.57 100.63 51.28 100.63H41.63C41.34 100.63 41.19 100.49 41.19 100.21V98.2499ZM44.95 101.24C45.25 101.24 45.4 101.39 45.39 101.68L45.22 102.76H47.03C48.2 102.76 49.33 102.7 50.43 102.59C51.53 102.48 52.48 102.27 53.27 101.97V98.0599C53.27 97.7699 53.42 97.6199 53.71 97.6199H56.68C56.97 97.6199 57.12 97.7699 57.12 98.0599V100.29H58.1C58.38 100.29 58.52 100.44 58.52 100.73V103.16C58.52 103.44 58.38 103.58 58.1 103.58H57.12V105.47C57.12 105.75 56.97 105.89 56.68 105.89H53.71C53.42 105.89 53.27 105.75 53.27 105.47V104.55C52.58 104.88 51.65 105.14 50.49 105.31C49.33 105.48 48.04 105.57 46.61 105.57H41.83C41.69 105.57 41.58 105.54 41.5 105.47C41.42 105.4 41.38 105.29 41.4 105.14L41.9 101.65C41.93 101.39 42.07 101.25 42.34 101.25H44.96L44.95 101.24ZM42.42 114.49C42.14 114.49 42 114.35 42 114.07V107.33C42 107.05 42.14 106.91 42.42 106.91H45.42C45.7 106.91 45.84 107.05 45.84 107.33V112.05H53.29V110.61H46.91C46.62 110.61 46.47 110.46 46.47 110.17V108.69C46.47 108.41 46.62 108.27 46.91 108.27H53.29V107.31C53.29 107.03 53.44 106.89 53.73 106.89H56.7C56.99 106.89 57.14 107.03 57.14 107.31V114.05C57.14 114.33 56.99 114.47 56.7 114.47H42.43L42.42 114.49Z" fill="#495057"/>
<path d="M60.18 107.23C59.9 107.23 59.76 107.09 59.76 106.81V98.2398C59.76 97.9598 59.9 97.8199 60.18 97.8199H63.09C63.37 97.8199 63.51 97.9598 63.51 98.2398V104.38H66.15V102.3H64.57C64.28 102.3 64.13 102.15 64.13 101.86V99.8398C64.13 99.5598 64.28 99.4199 64.57 99.4199H66.15V98.2299C66.15 97.9499 66.3 97.8098 66.59 97.8098H69.46C69.75 97.8098 69.9 97.9499 69.9 98.2299V106.8C69.9 107.08 69.75 107.22 69.46 107.22H60.18V107.23ZM75.67 111.06C75.93 111.06 76.07 111.2 76.07 111.48V113.98C76.07 114.26 75.94 114.4 75.67 114.4H60.99C60.71 114.4 60.57 114.26 60.57 113.98V109.36C60.57 109.08 60.71 108.94 60.99 108.94H64.13C64.42 108.94 64.57 109.08 64.57 109.36V111.07H75.68L75.67 111.06ZM72.47 108.94C72.18 108.94 72.03 108.8 72.03 108.52V106.67H70.95C70.67 106.67 70.53 106.53 70.53 106.25V104.25C70.53 103.96 70.67 103.81 70.95 103.81H72.03V101.79H70.95C70.67 101.79 70.53 101.65 70.53 101.37V99.3698C70.53 99.0798 70.67 98.9298 70.95 98.9298H72.03V98.0399C72.03 97.7499 72.18 97.5999 72.47 97.5999H75.44C75.73 97.5999 75.88 97.7499 75.88 98.0399V108.5C75.88 108.78 75.73 108.92 75.44 108.92H72.47V108.94Z" fill="#495057"/>
<path d="M77.92 98.6799C77.92 98.3999 78.07 98.2599 78.36 98.2599H81.48V97.1199C81.48 96.8299 81.63 96.6799 81.92 96.6799H84.79C85.08 96.6799 85.23 96.8299 85.23 97.1199V98.2599H88.23C88.52 98.2599 88.67 98.3999 88.67 98.6799V100.22C88.67 100.5 88.52 100.64 88.23 100.64H78.37C78.08 100.64 77.93 100.5 77.93 100.22V98.6799H77.92ZM88.36 103.9C88.36 104.34 88.24 104.73 88 105.04C87.76 105.36 87.42 105.62 86.98 105.82C86.54 106.02 86.02 106.17 85.4 106.26C84.78 106.35 84.1 106.4 83.35 106.4C82.6 106.4 81.92 106.36 81.31 106.26C80.7 106.17 80.17 106.02 79.73 105.82C79.29 105.62 78.94 105.36 78.7 105.04C78.46 104.72 78.34 104.34 78.34 103.9V103.67C78.34 103.23 78.46 102.85 78.7 102.53C78.94 102.21 79.28 101.95 79.72 101.75C80.16 101.55 80.68 101.4 81.3 101.31C81.92 101.22 82.6 101.17 83.35 101.17C84.1 101.17 84.78 101.22 85.39 101.31C86 101.4 86.53 101.55 86.97 101.75C87.41 101.95 87.76 102.21 88 102.53C88.24 102.85 88.36 103.23 88.36 103.67V103.9ZM79.15 114.49C78.87 114.49 78.73 114.35 78.73 114.07V110.47C78.73 110.18 78.87 110.03 79.15 110.03H89.76V109.18H79.15C78.87 109.18 78.73 109.04 78.73 108.76V107.66C78.73 107.38 78.87 107.24 79.15 107.24H93.44C93.72 107.24 93.86 107.38 93.86 107.66V111.22C93.86 111.5 93.72 111.64 93.44 111.64H82.85V112.53H93.62C93.9 112.53 94.04 112.67 94.04 112.95V114.07C94.04 114.35 93.9 114.49 93.62 114.49H79.14H79.15ZM84.7 103.78C84.7 103.52 84.6 103.29 84.4 103.09C84.2 102.9 83.85 102.8 83.35 102.8C82.85 102.8 82.48 102.9 82.29 103.09C82.1 103.28 82 103.52 82 103.8C82 104.08 82.1 104.31 82.3 104.5C82.5 104.69 82.85 104.78 83.35 104.78C83.85 104.78 84.22 104.68 84.41 104.48C84.6 104.28 84.7 104.05 84.7 103.78ZM90.44 106.19C90.15 106.19 90 106.05 90 105.77V98.0499C90 97.7599 90.15 97.6099 90.44 97.6099H93.41C93.7 97.6099 93.85 97.7599 93.85 98.0499V100.21H94.83C95.11 100.21 95.25 100.36 95.25 100.65V103.1C95.25 103.38 95.11 103.52 94.83 103.52H93.85V105.77C93.85 106.05 93.7 106.19 93.41 106.19H90.44Z" fill="#495057"/>
<path d="M111.51 111.31V114.37C111.51 114.65 111.37 114.79 111.09 114.79H107.89C107.61 114.79 107.47 114.65 107.47 114.37V111.31H101.71C101.42 111.31 101.27 111.16 101.27 110.85V108.64C101.27 108.36 101.42 108.22 101.71 108.22H117.25C117.54 108.22 117.69 108.36 117.69 108.64V110.85C117.69 111.16 117.54 111.31 117.25 111.31H111.51ZM106.41 106.52C106.34 106.6 106.27 106.68 106.19 106.75C106.11 106.82 106.01 106.85 105.89 106.85H101.85C101.68 106.85 101.56 106.8 101.48 106.7C101.4 106.6 101.41 106.49 101.52 106.35L108.34 98.1599C108.41 98.0599 108.49 97.9799 108.57 97.9199C108.65 97.8599 108.75 97.8298 108.86 97.8298H113.1C113.25 97.8298 113.35 97.8899 113.4 98.0099C113.45 98.1299 113.42 98.2498 113.33 98.3698L106.4 106.52H106.41ZM109.97 103.9C109.83 103.71 109.83 103.52 109.97 103.34L111.84 101.11C112.02 100.86 112.21 100.85 112.42 101.09L117.52 106.35C117.63 106.47 117.64 106.59 117.56 106.69C117.48 106.79 117.35 106.85 117.18 106.85H113.04C112.92 106.85 112.81 106.82 112.74 106.75C112.66 106.68 112.59 106.6 112.52 106.52L109.96 103.9H109.97Z" fill="#495057"/>
<path d="M127.94 101.08C128.23 101.08 128.38 101.23 128.38 101.52V102.48C128.38 103.77 128.88 104.41 129.88 104.41C130.88 104.41 131.42 103.76 131.42 102.48C131.42 101.77 131.21 101.25 130.8 100.92C130.38 100.59 129.72 100.42 128.8 100.42H124.51C124.22 100.42 124.07 100.29 124.07 100.02V98.1899C124.07 97.8999 124.22 97.7499 124.51 97.7499H128.69C130.77 97.7499 132.39 98.1199 133.55 98.8699C134.71 99.6199 135.29 100.81 135.29 102.45C135.29 103.24 135.16 103.93 134.89 104.52C134.62 105.11 134.26 105.6 133.78 105.99C133.3 106.38 132.73 106.67 132.07 106.85C131.41 107.04 130.68 107.13 129.88 107.13C129.08 107.13 128.37 107.04 127.71 106.85C127.05 106.66 126.49 106.37 126.02 105.99C125.55 105.6 125.18 105.11 124.92 104.52C124.66 103.93 124.52 103.24 124.52 102.45V101.51C124.52 101.22 124.66 101.07 124.94 101.07H127.96L127.94 101.08ZM124.43 111.79C124.43 111.51 124.58 111.37 124.87 111.37H127.01L129.09 108.52C129.21 108.38 129.42 108.31 129.69 108.31H132.56C132.73 108.31 132.83 108.37 132.86 108.49C132.9 108.61 132.86 108.73 132.75 108.85L128.82 114.28C128.7 114.42 128.49 114.49 128.22 114.49H124.87C124.58 114.49 124.43 114.35 124.43 114.07V111.78V111.79ZM133.49 114.28C133.37 114.42 133.16 114.49 132.89 114.49H130.02C129.85 114.49 129.75 114.43 129.71 114.32C129.67 114.21 129.71 114.09 129.81 113.97L133.76 108.52C133.88 108.38 134.09 108.31 134.36 108.31H137.23C137.4 108.31 137.5 108.37 137.53 108.49C137.56 108.61 137.53 108.73 137.41 108.85L133.48 114.28H133.49ZM138.4 111.37H140.61C140.9 111.37 141.05 111.51 141.05 111.79V114.08C141.05 114.36 140.9 114.5 140.61 114.5H137.2C136.94 114.5 136.74 114.42 136.6 114.25L135.54 113.04C135.39 112.87 135.39 112.69 135.56 112.5L137.08 110.42C137.15 110.34 137.24 110.3 137.34 110.31C137.44 110.31 137.53 110.36 137.6 110.45L138.41 111.39L138.4 111.37ZM137.13 107.48C136.84 107.48 136.69 107.34 136.69 107.06V98.0499C136.69 97.7599 136.84 97.6099 137.13 97.6099H140.1C140.39 97.6099 140.54 97.7599 140.54 98.0499V107.06C140.54 107.34 140.39 107.48 140.1 107.48H137.13Z" fill="#495057"/>
<path d="M143.23 108.44C142.94 108.44 142.79 108.29 142.79 108V105.67C142.79 105.39 142.94 105.25 143.23 105.25H158.77C159.06 105.25 159.21 105.39 159.21 105.67V108C159.21 108.29 159.06 108.44 158.77 108.44H143.23ZM158.58 111.54C158.86 111.54 159 111.69 159 111.98V114.08C159 114.36 158.86 114.5 158.58 114.5H143.5C143.22 114.5 143.08 114.36 143.08 114.08V110.07C143.08 109.79 143.22 109.65 143.5 109.65H146.68C146.97 109.65 147.12 109.79 147.12 110.07V111.55H158.58V111.54ZM147.22 100.89H158.41C158.7 100.89 158.85 101.04 158.85 101.33V103.43C158.85 103.71 158.7 103.85 158.41 103.85H143.62C143.48 103.85 143.37 103.82 143.29 103.75C143.21 103.68 143.17 103.57 143.19 103.42V98.2198C143.22 97.9598 143.36 97.8198 143.63 97.8198H146.79C147.09 97.8198 147.24 97.9698 147.23 98.2598V100.9L147.22 100.89Z" fill="#495057"/>
<path d="M166.07 98.2499C166.07 97.9699 166.22 97.8299 166.51 97.8299H176.16C176.45 97.8299 176.6 97.9699 176.6 98.2499V99.9599C176.6 100.24 176.45 100.38 176.16 100.38H173.44L170.07 105.35C170.01 105.45 169.95 105.53 169.86 105.59C169.78 105.65 169.67 105.68 169.55 105.68H166.28C166.11 105.68 166 105.64 165.94 105.54C165.88 105.45 165.88 105.33 165.95 105.18L169.13 100.38H166.51C166.22 100.38 166.07 100.24 166.07 99.9599V98.2499ZM167.17 114.49C166.89 114.49 166.75 114.35 166.75 114.07V110.12C166.75 109.84 166.89 109.7 167.17 109.7H177.96V108.87H167.17C166.89 108.87 166.75 108.73 166.75 108.45V107.14C166.75 106.86 166.89 106.72 167.17 106.72H181.65C181.93 106.72 182.07 106.86 182.07 107.14V111.01C182.07 111.29 181.93 111.43 181.65 111.43H170.88V112.3H181.84C182.12 112.3 182.26 112.44 182.26 112.72V114.07C182.26 114.35 182.12 114.49 181.84 114.49H167.18H167.17ZM173.22 105.55C173.11 105.55 173.02 105.52 172.95 105.47C172.88 105.41 172.81 105.33 172.74 105.22L171.97 104.18C171.89 104 171.89 103.82 171.99 103.64L173.67 101.14C173.86 100.84 174.05 100.84 174.23 101.14L176.79 105.07C176.93 105.39 176.82 105.55 176.48 105.55H173.21H173.22ZM178.65 105.88C178.36 105.88 178.21 105.74 178.21 105.46V98.0599C178.21 97.7699 178.36 97.6199 178.65 97.6199H181.62C181.91 97.6199 182.06 97.7699 182.06 98.0599V105.46C182.06 105.74 181.91 105.88 181.62 105.88H178.65Z" fill="#495057"/>
<path d="M194.75 108.77V109.91C194.75 110.19 194.61 110.33 194.33 110.33H191.13C190.85 110.33 190.71 110.19 190.71 109.91V108.77H184.74C184.45 108.77 184.3 108.62 184.3 108.33V106.19C184.3 105.91 184.45 105.77 184.74 105.77H200.28C200.57 105.77 200.72 105.91 200.72 106.19V108.33C200.72 108.62 200.57 108.77 200.28 108.77H194.75ZM185.12 104.76C184.84 104.76 184.7 104.62 184.7 104.34V101.49C184.7 101.21 184.84 101.07 185.12 101.07H188.2C188.49 101.07 188.64 101.21 188.64 101.49V102.14H196.4V100.45H184.94C184.65 100.45 184.5 100.3 184.5 100.01V98.2599C184.5 97.9799 184.65 97.8398 184.94 97.8398H199.89C200.18 97.8398 200.33 97.9799 200.33 98.2599V104.33C200.33 104.61 200.18 104.75 199.89 104.75H185.12V104.76ZM200.09 111.64C200.37 111.64 200.51 111.78 200.51 112.06V114.08C200.51 114.36 200.37 114.5 200.09 114.5H185.01C184.73 114.5 184.59 114.36 184.59 114.08V110.48C184.59 110.2 184.73 110.06 185.01 110.06H188.19C188.48 110.06 188.63 110.2 188.63 110.48V111.64H200.09Z" fill="#495057"/>
<path d="M206.21 101.76C206.5 101.76 206.65 101.9 206.65 102.18V108.52C206.65 109.56 206.76 110.29 206.97 110.71C207.18 111.13 207.54 111.34 208.04 111.34C208.54 111.34 208.92 111.13 209.13 110.71C209.34 110.29 209.45 109.56 209.45 108.52V104.69C209.45 104.09 209.41 103.57 209.32 103.12C209.23 102.67 209.08 102.3 208.86 102C208.64 101.7 208.35 101.48 207.98 101.33C207.61 101.18 207.14 101.11 206.59 101.11H202.78C202.49 101.11 202.34 100.97 202.34 100.69V98.4199C202.34 98.1399 202.49 97.9999 202.78 97.9999H206.48C208.86 97.9999 210.6 98.5399 211.69 99.6099C212.78 100.68 213.32 102.41 213.32 104.8V108.36C213.32 109.54 213.2 110.52 212.94 111.3C212.69 112.08 212.34 112.71 211.88 113.18C211.42 113.65 210.87 113.98 210.22 114.18C209.57 114.37 208.84 114.47 208.04 114.47C207.24 114.47 206.53 114.37 205.88 114.18C205.23 113.99 204.67 113.65 204.22 113.18C203.76 112.71 203.41 112.08 203.16 111.3C202.91 110.52 202.79 109.54 202.79 108.36V102.16C202.79 101.88 202.93 101.74 203.21 101.74H206.23L206.21 101.76ZM215.36 114.59C215.08 114.59 214.94 114.45 214.94 114.17V98.0499C214.94 97.7599 215.08 97.6099 215.36 97.6099H218.38C218.66 97.6099 218.8 97.7599 218.8 98.0499V114.17C218.8 114.45 218.66 114.59 218.38 114.59H215.36Z" fill="#495057"/>
<path d="M238.53 106.09C238.24 106.09 238.09 105.95 238.09 105.67V103.44H236.3C235.95 104.3 235.34 104.96 234.45 105.41C233.56 105.86 232.49 106.09 231.23 106.09C230.44 106.09 229.71 106 229.06 105.82C228.4 105.64 227.84 105.37 227.38 105.02C226.92 104.67 226.55 104.23 226.3 103.71C226.05 103.19 225.92 102.6 225.92 101.93V101.51C225.92 101.22 226.06 101.07 226.34 101.07H229.36C229.65 101.07 229.8 101.22 229.8 101.51V101.95C229.8 102.89 230.29 103.36 231.26 103.36C231.79 103.36 232.16 103.24 232.39 103C232.62 102.76 232.73 102.41 232.73 101.95C232.73 101.44 232.54 101.05 232.16 100.8C231.78 100.54 231.13 100.42 230.22 100.42H225.93C225.64 100.42 225.49 100.29 225.49 100.02V98.1899C225.49 97.8999 225.64 97.7499 225.93 97.7499H230.11C231.69 97.7499 232.99 97.9499 234.02 98.3599C235.05 98.7699 235.77 99.3699 236.18 100.16H238.11V98.0599C238.11 97.7699 238.26 97.6199 238.55 97.6199H241.52C241.81 97.6199 241.96 97.7699 241.96 98.0599V105.67C241.96 105.95 241.81 106.09 241.52 106.09H238.55H238.53ZM226.84 114.49C226.56 114.49 226.42 114.35 226.42 114.07V107.56C226.42 107.28 226.57 107.14 226.86 107.14H228.98C229.27 107.14 229.42 107.28 229.42 107.56V108.54H230.98V107.56C230.98 107.28 231.13 107.14 231.42 107.14H233.54C233.83 107.14 233.98 107.28 233.98 107.56V114.07C233.98 114.35 233.83 114.49 233.54 114.49H226.84ZM230.98 112.27V110.67H229.42V112.27H230.98ZM234.64 111.79C234.64 111.51 234.79 111.37 235.08 111.37H235.66L236.89 107.48C236.96 107.37 237.03 107.29 237.1 107.23C237.17 107.17 237.27 107.15 237.39 107.15H239.82C239.97 107.15 240.08 107.2 240.13 107.29C240.19 107.38 240.19 107.5 240.13 107.65L237.99 114.16C237.94 114.26 237.87 114.34 237.78 114.4C237.7 114.46 237.59 114.49 237.47 114.49H235.08C234.79 114.49 234.64 114.35 234.64 114.07V111.78V111.79ZM240.07 109.96C240.13 109.79 240.22 109.71 240.34 109.71C240.46 109.71 240.56 109.79 240.63 109.94L241.34 111.38H241.9C242.19 111.38 242.34 111.52 242.34 111.8V114.09C242.34 114.37 242.19 114.51 241.9 114.51H239.92C239.81 114.51 239.72 114.48 239.64 114.42C239.56 114.36 239.5 114.28 239.44 114.18L239.09 113.43C239.03 113.25 239.04 113.07 239.11 112.89L240.07 109.98V109.96Z" fill="#495057"/>
<path d="M256.89 114.59C256.6 114.59 256.45 114.45 256.45 114.17V107.58H254.72V108.37C254.72 109.55 254.6 110.53 254.36 111.31C254.12 112.09 253.77 112.72 253.31 113.19C252.85 113.66 252.3 113.99 251.66 114.19C251.01 114.38 250.29 114.48 249.49 114.48C248.69 114.48 247.99 114.38 247.35 114.19C246.71 114 246.16 113.66 245.71 113.19C245.25 112.72 244.9 112.09 244.66 111.31C244.42 110.53 244.3 109.55 244.3 108.37V102.15C244.3 101.87 244.44 101.73 244.72 101.73H247.74C248.03 101.73 248.18 101.87 248.18 102.15V108.51C248.18 109.54 248.28 110.26 248.47 110.69C248.66 111.12 249.01 111.34 249.51 111.34C250.01 111.34 250.38 111.13 250.58 110.71C250.78 110.29 250.88 109.56 250.88 108.52V104.69C250.88 104.09 250.84 103.57 250.76 103.12C250.68 102.67 250.53 102.3 250.31 102C250.09 101.7 249.8 101.48 249.44 101.33C249.07 101.18 248.61 101.11 248.06 101.11H244.32C244.03 101.11 243.88 100.97 243.88 100.69V98.4199C243.88 98.1399 244.03 97.9998 244.32 97.9998H247.96C250.21 97.9998 251.87 98.4699 252.94 99.4099C254.01 100.35 254.61 101.86 254.74 103.94H256.49V98.0298C256.49 97.7398 256.64 97.5898 256.93 97.5898H259.9C260.19 97.5898 260.34 97.7398 260.34 98.0298V114.15C260.34 114.43 260.19 114.57 259.9 114.57H256.93L256.89 114.59Z" fill="#495057"/>
<path d="M262.99 114.18C262.7 114.18 262.55 114.03 262.55 113.74V111.41C262.55 111.13 262.7 110.99 262.99 110.99H265.24V109.26C265.24 108.98 265.38 108.84 265.66 108.84H268.66C268.94 108.84 269.08 108.98 269.08 109.26V110.99H272.47V109.26C272.47 108.98 272.61 108.84 272.89 108.84H275.89C276.17 108.84 276.31 108.98 276.31 109.26V110.99H278.56C278.85 110.99 279 111.13 279 111.41V113.74C279 114.03 278.85 114.18 278.56 114.18H263.02H262.99ZM271.25 105.09C271.94 105.09 272.51 105.05 272.97 104.97C273.42 104.89 273.78 104.76 274.05 104.6C274.32 104.44 274.51 104.22 274.61 103.97C274.71 103.71 274.77 103.41 274.77 103.04C274.77 102.67 274.71 102.37 274.59 102.1C274.47 101.84 274.24 101.62 273.89 101.45C273.54 101.28 273.06 101.15 272.43 101.07C271.81 100.99 270.99 100.95 270 100.95H263.07C262.78 100.95 262.63 100.81 262.63 100.53V98.3499C262.63 98.0699 262.78 97.9299 263.07 97.9299H269.89C271.6 97.9299 273.01 98.0499 274.13 98.2799C275.25 98.5099 276.15 98.8599 276.81 99.3099C277.48 99.7599 277.94 100.31 278.21 100.94C278.48 101.58 278.62 102.29 278.62 103.08C278.62 103.87 278.49 104.58 278.24 105.21C277.98 105.84 277.57 106.37 276.99 106.81C276.41 107.25 275.66 107.58 274.71 107.81C273.77 108.04 272.61 108.15 271.24 108.15H270.41C269.04 108.15 267.88 108.04 266.95 107.81C266.01 107.58 265.26 107.25 264.68 106.81C264.1 106.37 263.69 105.84 263.44 105.21C263.19 104.58 263.06 103.87 263.06 103.08V101.98C263.06 101.7 263.2 101.56 263.48 101.56H266.5C266.79 101.56 266.94 101.7 266.94 101.98V103.04C266.94 103.29 266.99 103.54 267.1 103.79C267.2 104.04 267.38 104.26 267.64 104.46C267.9 104.65 268.25 104.81 268.7 104.93C269.15 105.05 269.72 105.11 270.42 105.11H271.25V105.09Z" fill="#495057"/>
<path d="M281.56 114.59C281.27 114.59 281.12 114.45 281.12 114.17V111.3C281.12 111.01 281.27 110.86 281.56 110.86H284.53C284.82 110.86 284.97 111.01 284.97 111.3V114.17C284.97 114.45 284.82 114.59 284.53 114.59H281.56Z" fill="#495057"/>
<path d="M13.7 138.93C13.63 139.15 13.46 139.26 13.18 139.26H10.73C10.43 139.26 10.31 139.09 10.4 138.76L13.12 123.22C13.18 123 13.34 122.89 13.62 122.89H16.22C16.51 122.89 16.61 123.06 16.53 123.39L13.7 138.93ZM15.84 139.26C15.58 139.26 15.42 139.15 15.36 138.93L14.92 136.18C14.89 136 14.9 135.82 14.94 135.64L16.08 129.3C16.12 129.12 16.21 129.02 16.36 129.01C16.51 129 16.6 129.09 16.64 129.28L18.6 138.79C18.71 139.11 18.6 139.27 18.29 139.27H15.83L15.84 139.26ZM24.12 139.55C23.84 139.55 23.7 139.41 23.7 139.13V132.64H22.58V138.92C22.58 139.2 22.44 139.34 22.16 139.34H19.77C19.49 139.34 19.35 139.2 19.35 138.92V123.13C19.35 122.84 19.49 122.69 19.77 122.69H22.16C22.44 122.69 22.58 122.84 22.58 123.13V129.1H23.7V123.01C23.7 122.72 23.84 122.57 24.12 122.57H26.53C26.81 122.57 26.95 122.72 26.95 123.01V139.13C26.95 139.41 26.81 139.55 26.53 139.55H24.12Z" fill="#495057"/>
<path d="M29.53 139.14C29.24 139.14 29.09 138.99 29.09 138.7V136.5C29.09 136.21 29.24 136.06 29.53 136.06H35.29V134.21H30.11C29.83 134.21 29.69 134.07 29.69 133.79V127.72C29.69 127.44 29.83 127.3 30.11 127.3H40.86V125.78H30.07C29.79 125.78 29.65 125.63 29.65 125.34V123.43C29.65 123.15 29.79 123.01 30.07 123.01H44.38C44.67 123.01 44.82 123.15 44.82 123.43V129.34C44.82 129.62 44.67 129.76 44.38 129.76H33.63V131.34H44.57C44.86 131.34 45.01 131.49 45.01 131.78V133.8C45.01 134.08 44.86 134.22 44.57 134.22H39.33V136.07H45.07C45.36 136.07 45.51 136.22 45.51 136.51V138.71C45.51 139 45.36 139.15 45.07 139.15H29.53V139.14Z" fill="#495057"/>
<path d="M57.9 133.73V134.87C57.9 135.15 57.76 135.29 57.48 135.29H54.28C54 135.29 53.86 135.15 53.86 134.87V133.73H47.89C47.6 133.73 47.45 133.58 47.45 133.29V131.36C47.45 131.08 47.6 130.94 47.89 130.94H63.43C63.72 130.94 63.87 131.08 63.87 131.36V133.29C63.87 133.58 63.72 133.73 63.43 133.73H57.9ZM56.15 127.59C56.84 127.59 57.41 127.57 57.87 127.53C58.32 127.49 58.68 127.42 58.95 127.33C59.22 127.24 59.41 127.13 59.51 126.99C59.61 126.85 59.67 126.68 59.67 126.47C59.67 126.26 59.61 126.09 59.49 125.94C59.37 125.79 59.14 125.68 58.79 125.59C58.44 125.5 57.96 125.43 57.34 125.38C56.72 125.33 55.92 125.31 54.92 125.31H47.97C47.68 125.31 47.53 125.17 47.53 124.89V123.23C47.53 122.95 47.68 122.81 47.97 122.81H54.79C56.5 122.81 57.91 122.89 59.03 123.06C60.15 123.23 61.05 123.47 61.71 123.78C62.38 124.09 62.84 124.48 63.11 124.94C63.38 125.4 63.52 125.93 63.52 126.51C63.52 127.09 63.39 127.61 63.14 128.06C62.88 128.51 62.47 128.89 61.89 129.19C61.31 129.5 60.56 129.72 59.61 129.88C58.67 130.03 57.51 130.11 56.14 130.11H55.31C53.94 130.11 52.78 130.03 51.85 129.88C50.91 129.73 50.16 129.5 49.58 129.19C49 128.89 48.59 128.51 48.34 128.06C48.09 127.61 47.96 127.09 47.96 126.51V126.34C47.96 126.06 48.1 125.92 48.38 125.92H51.4C51.69 125.92 51.84 126.06 51.84 126.34V126.46C51.84 126.67 51.89 126.84 52 126.98C52.1 127.12 52.28 127.23 52.54 127.32C52.8 127.41 53.15 127.48 53.6 127.52C54.05 127.56 54.62 127.58 55.32 127.58H56.15V127.59ZM63.25 136.81C63.53 136.81 63.67 136.95 63.67 137.23V139.04C63.67 139.32 63.53 139.46 63.25 139.46H48.17C47.89 139.46 47.75 139.32 47.75 139.04V135.23C47.75 134.95 47.89 134.81 48.17 134.81H51.35C51.64 134.81 51.79 134.95 51.79 135.23V136.81H63.25Z" fill="#495057"/>
<path d="M70.73 123.21C70.73 122.93 70.88 122.79 71.17 122.79H80.82C81.11 122.79 81.26 122.93 81.26 123.21V124.92C81.26 125.2 81.11 125.34 80.82 125.34H78.1L74.73 130.31C74.67 130.41 74.61 130.49 74.52 130.55C74.44 130.61 74.33 130.64 74.21 130.64H70.94C70.77 130.64 70.66 130.6 70.6 130.5C70.54 130.41 70.54 130.29 70.61 130.14L73.79 125.34H71.17C70.88 125.34 70.73 125.2 70.73 124.92V123.21ZM71.84 139.45C71.56 139.45 71.42 139.31 71.42 139.03V135.08C71.42 134.8 71.56 134.66 71.84 134.66H82.63V133.83H71.84C71.56 133.83 71.42 133.69 71.42 133.41V132.1C71.42 131.82 71.56 131.68 71.84 131.68H86.32C86.6 131.68 86.74 131.82 86.74 132.1V135.97C86.74 136.25 86.6 136.39 86.32 136.39H75.55V137.26H86.51C86.79 137.26 86.93 137.4 86.93 137.68V139.03C86.93 139.31 86.79 139.45 86.51 139.45H71.85H71.84ZM77.89 130.51C77.78 130.51 77.69 130.48 77.62 130.43C77.55 130.37 77.48 130.29 77.41 130.18L76.64 129.14C76.56 128.96 76.56 128.78 76.66 128.6L78.34 126.1C78.53 125.8 78.72 125.8 78.9 126.1L81.46 130.03C81.6 130.35 81.49 130.51 81.15 130.51H77.88H77.89ZM83.32 130.84C83.03 130.84 82.88 130.7 82.88 130.42V123.02C82.88 122.73 83.03 122.58 83.32 122.58H86.29C86.58 122.58 86.73 122.73 86.73 123.02V130.42C86.73 130.7 86.58 130.84 86.29 130.84H83.32Z" fill="#495057"/>
<path d="M99.42 133.73V134.87C99.42 135.15 99.28 135.29 99 135.29H95.8C95.52 135.29 95.38 135.15 95.38 134.87V133.73H89.41C89.12 133.73 88.97 133.58 88.97 133.29V131.15C88.97 130.87 89.12 130.73 89.41 130.73H104.95C105.24 130.73 105.39 130.87 105.39 131.15V133.29C105.39 133.58 105.24 133.73 104.95 133.73H99.42ZM89.79 129.72C89.51 129.72 89.37 129.58 89.37 129.3V126.45C89.37 126.17 89.51 126.03 89.79 126.03H92.87C93.16 126.03 93.31 126.17 93.31 126.45V127.1H101.07V125.41H89.61C89.32 125.41 89.17 125.26 89.17 124.97V123.22C89.17 122.94 89.32 122.8 89.61 122.8H104.56C104.85 122.8 105 122.94 105 123.22V129.29C105 129.57 104.85 129.71 104.56 129.71H89.79V129.72ZM104.76 136.6C105.04 136.6 105.18 136.74 105.18 137.02V139.04C105.18 139.32 105.04 139.46 104.76 139.46H89.68C89.4 139.46 89.26 139.32 89.26 139.04V135.44C89.26 135.16 89.4 135.02 89.68 135.02H92.86C93.15 135.02 93.3 135.16 93.3 135.44V136.6H104.76Z" fill="#495057"/>
<path d="M107.78 131.65C107.49 131.65 107.34 131.5 107.34 131.21V130C107.34 129.72 107.49 129.58 107.78 129.58H123.32C123.61 129.58 123.76 129.72 123.76 130V131.21C123.76 131.5 123.61 131.65 123.32 131.65H107.78ZM116.03 126.74C116.72 126.74 117.29 126.72 117.75 126.69C118.2 126.66 118.56 126.6 118.83 126.53C119.1 126.46 119.29 126.36 119.39 126.24C119.49 126.12 119.55 125.96 119.55 125.78C119.55 125.6 119.49 125.45 119.37 125.32C119.25 125.2 119.02 125.09 118.67 125.01C118.32 124.93 117.84 124.87 117.22 124.83C116.6 124.79 115.8 124.78 114.8 124.78H107.85C107.56 124.78 107.41 124.64 107.41 124.36V123.11C107.41 122.83 107.56 122.69 107.85 122.69H114.67C116.38 122.69 117.79 122.75 118.91 122.88C120.03 123 120.93 123.2 121.59 123.45C122.26 123.71 122.72 124.03 122.99 124.42C123.26 124.81 123.4 125.27 123.4 125.81C123.4 126.35 123.27 126.81 123.02 127.19C122.76 127.57 122.35 127.88 121.77 128.13C121.19 128.37 120.44 128.55 119.49 128.66C118.55 128.77 117.39 128.83 116.02 128.83H115.19C113.82 128.83 112.66 128.77 111.73 128.66C110.79 128.55 110.04 128.38 109.46 128.14C108.88 127.9 108.47 127.6 108.22 127.22C107.97 126.85 107.84 126.39 107.84 125.85V125.81C107.84 125.53 107.98 125.39 108.26 125.39H111.28C111.57 125.39 111.72 125.53 111.72 125.81C111.72 125.98 111.77 126.12 111.88 126.24C111.98 126.36 112.16 126.45 112.42 126.53C112.68 126.61 113.03 126.66 113.48 126.69C113.93 126.72 114.5 126.73 115.2 126.73H116.03V126.74ZM108.05 139.55C107.77 139.55 107.63 139.41 107.63 139.13V135.66C107.63 135.37 107.77 135.22 108.05 135.22H119.36V134.35H108.05C107.77 134.35 107.63 134.21 107.63 133.93V132.91C107.63 132.63 107.77 132.49 108.05 132.49H123.05C123.33 132.49 123.47 132.63 123.47 132.91V136.34C123.47 136.62 123.33 136.76 123.05 136.76H111.76V137.65H123.14C123.42 137.65 123.56 137.79 123.56 138.07V139.13C123.56 139.41 123.42 139.55 123.14 139.55H108.06H108.05Z" fill="#495057"/>
<path d="M139.18 126.74C139.87 126.74 140.44 126.72 140.9 126.69C141.35 126.66 141.71 126.6 141.98 126.53C142.25 126.46 142.44 126.36 142.54 126.24C142.64 126.12 142.7 125.96 142.7 125.78C142.7 125.6 142.64 125.45 142.52 125.32C142.4 125.2 142.17 125.09 141.82 125.01C141.47 124.93 140.99 124.87 140.36 124.83C139.73 124.79 138.92 124.78 137.93 124.78H131C130.71 124.78 130.56 124.64 130.56 124.36V123.11C130.56 122.83 130.71 122.69 131 122.69H137.82C139.53 122.69 140.94 122.75 142.06 122.88C143.18 123 144.08 123.2 144.74 123.45C145.41 123.71 145.87 124.03 146.14 124.42C146.41 124.81 146.55 125.27 146.55 125.81C146.55 126.3 146.45 126.71 146.24 127.07C146.03 127.42 145.7 127.72 145.24 127.96C144.78 128.2 144.18 128.39 143.44 128.53C142.7 128.67 141.79 128.76 140.71 128.8V129.57H146.45C146.74 129.57 146.89 129.71 146.89 129.99V131.2C146.89 131.49 146.74 131.64 146.45 131.64H130.91C130.62 131.64 130.47 131.49 130.47 131.2V129.99C130.47 129.71 130.62 129.57 130.91 129.57H136.67V128.8C135.62 128.76 134.73 128.67 134.01 128.54C133.29 128.41 132.7 128.22 132.25 127.98C131.8 127.74 131.48 127.44 131.28 127.1C131.09 126.75 130.99 126.34 130.99 125.85V125.81C130.99 125.53 131.13 125.39 131.41 125.39H134.43C134.72 125.39 134.87 125.53 134.87 125.81C134.87 125.98 134.92 126.12 135.03 126.24C135.13 126.36 135.31 126.45 135.57 126.53C135.83 126.61 136.18 126.66 136.63 126.69C137.08 126.72 137.65 126.73 138.35 126.73H139.18V126.74ZM131.2 139.55C130.92 139.55 130.78 139.41 130.78 139.13V135.66C130.78 135.37 130.92 135.22 131.2 135.22H142.51V134.35H131.2C130.92 134.35 130.78 134.21 130.78 133.93V132.91C130.78 132.63 130.92 132.49 131.2 132.49H146.2C146.48 132.49 146.62 132.63 146.62 132.91V136.34C146.62 136.62 146.48 136.76 146.2 136.76H134.91V137.65H146.29C146.57 137.65 146.71 137.79 146.71 138.07V139.13C146.71 139.41 146.57 139.55 146.29 139.55H131.21H131.2Z" fill="#495057"/>
<path d="M148.85 129.99C148.85 129.71 149 129.57 149.29 129.57H154.51V125.97H149.25C148.96 125.97 148.81 125.83 148.81 125.55V123.41C148.81 123.13 148.96 122.99 149.25 122.99H157.94C158.23 122.99 158.38 123.13 158.38 123.41V132.02C158.38 132.3 158.23 132.44 157.94 132.44H152.68V136.27H159.44C159.73 136.27 159.88 136.41 159.88 136.69V138.83C159.88 139.11 159.73 139.25 159.44 139.25H149.29C149 139.25 148.85 139.11 148.85 138.83V129.99ZM161.56 139.55C161.27 139.55 161.12 139.41 161.12 139.13V135.09H159.52C159.26 135.09 159.12 134.95 159.12 134.67V132.24C159.12 131.95 159.25 131.8 159.52 131.8H161.12V128.8H159.52C159.26 128.8 159.12 128.66 159.12 128.38V125.95C159.12 125.66 159.25 125.51 159.52 125.51H161.12V122.99C161.12 122.7 161.27 122.55 161.56 122.55H164.53C164.82 122.55 164.97 122.7 164.97 122.99V139.11C164.97 139.39 164.82 139.53 164.53 139.53H161.56V139.55Z" fill="#495057"/>
<path d="M167.66 139.14C167.37 139.14 167.22 138.99 167.22 138.7V136.37C167.22 136.09 167.37 135.95 167.66 135.95H173.42V134.22C173.42 133.94 173.56 133.8 173.84 133.8H177.04C177.32 133.8 177.46 133.94 177.46 134.22V135.95H183.2C183.49 135.95 183.64 136.09 183.64 136.37V138.7C183.64 138.99 183.49 139.14 183.2 139.14H167.66ZM168.24 132.96C167.96 132.96 167.82 132.82 167.82 132.54V123.31C167.82 123.03 167.96 122.89 168.24 122.89H171.34C171.62 122.89 171.76 123.03 171.76 123.31V129.88H179.1V128.09H172.82C172.53 128.09 172.38 127.94 172.38 127.65V125.57C172.38 125.29 172.53 125.15 172.82 125.15H179.1V123.3C179.1 123.02 179.25 122.88 179.54 122.88H182.6C182.89 122.88 183.04 123.02 183.04 123.3V132.53C183.04 132.81 182.89 132.95 182.6 132.95H168.25L168.24 132.96Z" fill="#495057"/>
<path d="M186.02 133.4C185.73 133.4 185.58 133.25 185.58 132.96V130.63C185.58 130.35 185.73 130.21 186.02 130.21H201.56C201.85 130.21 202 130.35 202 130.63V132.96C202 133.25 201.85 133.4 201.56 133.4H186.02ZM201.37 136.5C201.65 136.5 201.79 136.65 201.79 136.94V139.04C201.79 139.32 201.65 139.46 201.37 139.46H186.29C186.01 139.46 185.87 139.32 185.87 139.04V135.03C185.87 134.75 186.01 134.61 186.29 134.61H189.47C189.76 134.61 189.91 134.75 189.91 135.03V136.51H201.37V136.5ZM190.02 125.85H201.21C201.5 125.85 201.65 126 201.65 126.29V128.39C201.65 128.67 201.5 128.81 201.21 128.81H186.42C186.28 128.81 186.17 128.78 186.09 128.71C186.01 128.64 185.97 128.53 185.99 128.38V123.18C186.02 122.92 186.16 122.78 186.43 122.78H189.59C189.89 122.78 190.04 122.93 190.03 123.22V125.86L190.02 125.85Z" fill="#495057"/>
<path d="M209.36 138.72C209.22 138.75 209.12 138.72 209.05 138.64C208.98 138.56 208.95 138.45 208.95 138.31V135.61C208.95 135.47 208.99 135.38 209.07 135.35C209.15 135.32 209.25 135.26 209.36 135.19C209.93 134.88 210.43 134.48 210.87 133.98C211.31 133.48 211.67 132.87 211.97 132.14C212.27 131.41 212.49 130.56 212.65 129.57C212.81 128.58 212.88 127.46 212.88 126.18H209.16C208.88 126.18 208.74 126.04 208.74 125.76V123.41C208.74 123.13 208.88 122.99 209.16 122.99H215.94C216.23 122.99 216.38 123.14 216.38 123.43V125.72C216.38 127.08 216.3 128.33 216.13 129.46H217.48V123.14C217.48 122.85 217.62 122.7 217.9 122.7H220.29C220.57 122.7 220.71 122.85 220.71 123.14V138.93C220.71 139.21 220.57 139.35 220.29 139.35H217.9C217.62 139.35 217.48 139.21 217.48 138.93V133.06H215.23C214.08 136.1 212.12 137.98 209.36 138.72ZM221.71 123.02C221.71 122.73 221.85 122.58 222.13 122.58H224.54C224.82 122.58 224.96 122.73 224.96 123.02V139.14C224.96 139.42 224.82 139.56 224.54 139.56H222.13C221.85 139.56 221.71 139.42 221.71 139.14V123.02Z" fill="#495057"/>
<path d="M244.59 139.55C244.3 139.55 244.15 139.41 244.15 139.13V132.54H242.42V133.33C242.42 134.51 242.3 135.49 242.06 136.27C241.82 137.05 241.47 137.68 241.01 138.15C240.55 138.62 240 138.95 239.36 139.15C238.71 139.34 237.99 139.44 237.19 139.44C236.39 139.44 235.69 139.34 235.05 139.15C234.41 138.96 233.86 138.62 233.41 138.15C232.95 137.68 232.6 137.05 232.36 136.27C232.12 135.49 232 134.51 232 133.33V127.11C232 126.83 232.14 126.69 232.42 126.69H235.44C235.73 126.69 235.88 126.83 235.88 127.11V133.47C235.88 134.5 235.98 135.22 236.17 135.65C236.36 136.08 236.71 136.3 237.21 136.3C237.71 136.3 238.08 136.09 238.28 135.67C238.48 135.25 238.58 134.52 238.58 133.48V129.65C238.58 129.05 238.54 128.53 238.46 128.08C238.38 127.63 238.23 127.26 238.01 126.96C237.79 126.66 237.5 126.44 237.14 126.29C236.77 126.14 236.31 126.07 235.76 126.07H232.02C231.73 126.07 231.58 125.93 231.58 125.65V123.38C231.58 123.1 231.73 122.96 232.02 122.96H235.66C237.91 122.96 239.57 123.43 240.64 124.37C241.71 125.31 242.31 126.82 242.44 128.9H244.19V122.99C244.19 122.7 244.34 122.55 244.63 122.55H247.6C247.89 122.55 248.04 122.7 248.04 122.99V139.11C248.04 139.39 247.89 139.53 247.6 139.53H244.63L244.59 139.55Z" fill="#495057"/>
<path d="M254.66 127.89C254.95 127.89 255.1 128.03 255.1 128.31V130.08C255.1 130.36 254.95 130.5 254.66 130.5H250.58C250.29 130.5 250.14 130.35 250.14 130.06V123.22C250.14 122.94 250.29 122.8 250.58 122.8H254.66C254.95 122.8 255.1 122.94 255.1 123.22V124.97C255.1 125.25 254.95 125.39 254.66 125.39H253.79V127.91H254.66V127.89ZM251.46 139.45C251.18 139.45 251.04 139.31 251.04 139.03V135.22C251.04 134.94 251.18 134.8 251.46 134.8H262.48V133.93H251.46C251.18 133.93 251.04 133.79 251.04 133.51V132.3C251.04 132.02 251.18 131.88 251.46 131.88H266.17C266.45 131.88 266.59 132.02 266.59 132.3V136.02C266.59 136.3 266.45 136.44 266.17 136.44H255.17V137.33H266.36C266.64 137.33 266.78 137.47 266.78 137.75V139.02C266.78 139.3 266.64 139.44 266.36 139.44H251.47L251.46 139.45ZM256.3 130.49C256.01 130.49 255.86 130.34 255.86 130.05V123.21C255.86 122.93 256.01 122.79 256.3 122.79H260.54C260.83 122.79 260.98 122.93 260.98 123.21V124.96C260.98 125.24 260.83 125.38 260.54 125.38H259.5V127.9H260.62C260.91 127.9 261.06 128.04 261.06 128.32V130.09C261.06 130.37 260.91 130.51 260.62 130.51H256.29L256.3 130.49ZM263.27 130.84C262.98 130.84 262.83 130.7 262.83 130.42V127.97H261.79C261.53 127.97 261.39 127.83 261.39 127.55V125.32C261.39 125.03 261.52 124.88 261.79 124.88H262.83V123.01C262.83 122.72 262.98 122.57 263.27 122.57H266.12C266.41 122.57 266.56 122.72 266.56 123.01V130.41C266.56 130.69 266.41 130.83 266.12 130.83H263.27V130.84Z" fill="#495057"/>
<path d="M268.78 138.1C268.64 138.13 268.54 138.1 268.47 138.02C268.4 137.94 268.37 137.83 268.37 137.69V134.99C268.37 134.85 268.41 134.75 268.49 134.7C268.57 134.64 268.67 134.6 268.79 134.58C269.11 134.5 269.36 134.22 269.54 133.75C269.72 133.28 269.85 132.67 269.94 131.92C270.02 131.17 270.07 130.31 270.1 129.33C270.12 128.35 270.13 127.31 270.13 126.2H268.94C268.66 126.2 268.52 126.06 268.52 125.78V123.43C268.52 123.15 268.66 123.01 268.94 123.01H273.1C273.39 123.01 273.54 123.16 273.54 123.45V125.74C273.54 127.57 273.51 129.21 273.45 130.66C273.39 132.11 273.2 133.36 272.9 134.4C272.6 135.44 272.12 136.28 271.49 136.91C270.85 137.53 269.96 137.94 268.81 138.12L268.78 138.1ZM274.19 138.93C274.05 138.96 273.95 138.93 273.88 138.85C273.81 138.77 273.78 138.66 273.78 138.52V135.82C273.78 135.58 273.92 135.45 274.2 135.4C274.66 135.3 275 134.98 275.24 134.42C275.48 133.87 275.65 133.16 275.75 132.31C275.85 131.46 275.91 130.5 275.93 129.44C275.94 128.38 275.95 127.29 275.95 126.18H274.7C274.42 126.18 274.28 126.04 274.28 125.76V123.41C274.28 123.13 274.42 122.99 274.7 122.99H278.92C279.21 122.99 279.36 123.14 279.36 123.43V125.72C279.36 126.87 279.35 127.98 279.33 129.04C279.31 130.1 279.25 131.1 279.14 132.05C279.04 132.99 278.88 133.86 278.66 134.65C278.45 135.44 278.15 136.13 277.77 136.73C277.39 137.33 276.91 137.81 276.32 138.2C275.74 138.58 275.03 138.83 274.2 138.94L274.19 138.93ZM281.14 139.55C280.85 139.55 280.7 139.41 280.7 139.13V123.01C280.7 122.72 280.85 122.57 281.14 122.57H283.99C284.28 122.57 284.43 122.72 284.43 123.01V128.75H285.43C285.71 128.75 285.85 128.9 285.85 129.19V131.96C285.85 132.24 285.71 132.38 285.43 132.38H284.43V139.14C284.43 139.42 284.28 139.56 283.99 139.56H281.14V139.55Z" fill="#495057"/>
<path d="M287.42 139.14C287.13 139.14 286.98 138.99 286.98 138.7V136.37C286.98 136.09 287.13 135.95 287.42 135.95H289.67V134.22C289.67 133.94 289.81 133.8 290.09 133.8H293.09C293.37 133.8 293.51 133.94 293.51 134.22V135.95H296.9V134.22C296.9 133.94 297.04 133.8 297.32 133.8H300.32C300.6 133.8 300.74 133.94 300.74 134.22V135.95H302.99C303.28 135.95 303.43 136.09 303.43 136.37V138.7C303.43 138.99 303.28 139.14 302.99 139.14H287.45H287.42ZM295.67 130.05C296.36 130.05 296.93 130.01 297.39 129.93C297.84 129.85 298.2 129.72 298.47 129.56C298.74 129.4 298.93 129.18 299.03 128.93C299.13 128.67 299.19 128.37 299.19 128C299.19 127.63 299.13 127.33 299.01 127.06C298.89 126.8 298.66 126.58 298.31 126.41C297.96 126.24 297.48 126.11 296.85 126.03C296.23 125.95 295.41 125.91 294.42 125.91H287.49C287.2 125.91 287.05 125.77 287.05 125.49V123.31C287.05 123.03 287.2 122.89 287.49 122.89H294.31C296.02 122.89 297.43 123.01 298.55 123.24C299.67 123.47 300.57 123.82 301.23 124.27C301.9 124.72 302.36 125.27 302.63 125.9C302.9 126.54 303.04 127.25 303.04 128.04C303.04 128.83 302.91 129.54 302.66 130.17C302.4 130.8 301.99 131.33 301.41 131.77C300.83 132.21 300.08 132.54 299.13 132.77C298.19 133 297.03 133.11 295.66 133.11H294.83C293.46 133.11 292.3 133 291.37 132.77C290.43 132.54 289.68 132.21 289.1 131.77C288.52 131.33 288.11 130.8 287.86 130.17C287.61 129.54 287.48 128.83 287.48 128.04V126.94C287.48 126.66 287.62 126.52 287.9 126.52H290.92C291.21 126.52 291.36 126.66 291.36 126.94V128C291.36 128.25 291.41 128.5 291.52 128.75C291.62 129 291.8 129.22 292.06 129.42C292.32 129.61 292.67 129.77 293.12 129.89C293.57 130.01 294.14 130.07 294.84 130.07H295.67V130.05Z" fill="#495057"/>
<path d="M305.33 128.01C305.33 127.12 305.48 126.34 305.78 125.66C306.08 124.98 306.47 124.42 306.95 123.96C307.43 123.5 307.99 123.17 308.61 122.94C309.23 122.71 309.87 122.6 310.52 122.6C311.31 122.6 312.03 122.71 312.68 122.93C313.33 123.15 313.9 123.46 314.38 123.87C314.86 124.27 315.23 124.76 315.49 125.33C315.75 125.9 315.88 126.53 315.88 127.22C315.88 127.82 315.79 128.32 315.62 128.74C315.45 129.16 315.23 129.52 314.98 129.83C314.72 130.14 314.44 130.42 314.14 130.66C313.84 130.9 313.55 131.14 313.3 131.38C313.04 131.62 312.83 131.87 312.65 132.15C312.48 132.43 312.39 132.75 312.39 133.13V134.34C312.36 134.62 312.22 134.76 311.95 134.76H309.08C308.79 134.76 308.64 134.62 308.64 134.34V132.7C308.64 132.24 308.72 131.84 308.88 131.5C309.04 131.16 309.24 130.85 309.47 130.57C309.71 130.29 309.96 130.03 310.23 129.79C310.5 129.55 310.75 129.3 310.99 129.06C311.23 128.82 311.42 128.56 311.58 128.28C311.74 128 311.82 127.68 311.82 127.32C311.82 126.9 311.7 126.6 311.46 126.42C311.22 126.23 310.92 126.14 310.56 126.14C310.2 126.14 309.88 126.29 309.59 126.6C309.31 126.91 309.16 127.38 309.16 128.01C309.16 128.3 309.01 128.45 308.72 128.45H305.75C305.46 128.45 305.31 128.3 305.31 128.01H305.33ZM309.03 139.55C308.74 139.55 308.59 139.41 308.59 139.13V136.47C308.59 136.16 308.74 136.01 309.03 136.01H312C312.29 136.01 312.44 136.16 312.44 136.47V139.13C312.44 139.41 312.29 139.55 312 139.55H309.03Z" fill="#495057"/>
</svg>
