<svg width="400" height="700" viewBox="0 0 428 926" fill="none" xmlns="http://www.w3.org/2000/svg">
<g clip-path="url(#clip0_181_1693)">
<mask id="mask0_181_1693" style="mask-type:luminance" maskUnits="userSpaceOnUse" x="0" y="0" width="428" height="926">
<path d="M428 0H0V926H428V0Z" fill="white"/>
</mask>
<g mask="url(#mask0_181_1693)">
<path d="M215.5 651.89C212.14 653.93 209.65 653.56 203.4 654.72C197.14 655.89 184.76 656.84 199.22 660.5C213.68 664.15 225.94 663.28 228.7 661.69C231.46 660.1 227.41 653.73 227.45 651.99C227.49 650.24 221.17 648.45 215.5 651.89Z" fill="#FFCA0C"/>
<path d="M293.76 631.53C293.76 631.53 282.22 635.68 282.79 636.88C283.35 638.08 286.03 638.61 287.88 637.83C287.88 637.83 283.81 643.02 283.17 645.14C282.53 647.26 287.14 646.04 289.94 641.34C289.94 641.34 288.6 647.63 290.26 648C291.92 648.37 293.49 641.63 293.49 641.63C293.49 641.63 293.66 647.85 295.07 648.2C296.48 648.55 300.43 636.29 299.6 634.76C298.77 633.23 293.77 631.54 293.77 631.54L293.76 631.53Z" fill="#FFCA0C"/>
<path d="M197.31 467.55C197.31 467.55 214.05 466.47 214.09 464.56C214.13 462.64 211.16 460.79 208.39 461.13C208.39 461.13 216.57 455.51 218.65 452.81C220.73 450.1 214.31 449.9 207.99 455.36C207.99 455.36 213.47 447.07 211.66 445.87C209.85 444.67 203.8 453.49 203.8 453.49C203.8 453.49 207.38 444.69 205.86 443.62C204.34 442.55 192 458.14 192.09 460.63C192.18 463.12 197.31 467.56 197.31 467.56V467.55Z" fill="#FFCA0C"/>
<path d="M245.76 492.07C244.08 498.58 242.91 504.46 240.78 504.14C237.54 503.65 234.18 500.5 236.61 494.19C239.04 487.88 246.54 489.05 245.75 492.08L245.76 492.07Z" fill="#FFCA0C"/>
<path d="M184.4 613C190.36 635.2 213.09 661.2 224.09 653.32C231.63 647.92 210.05 638.99 214.48 613.84C216.29 603.57 245.19 588.69 266.7 587.57C294.46 586.13 302.93 619.16 288.72 633.06C281.27 640.35 296.94 639.02 301.9 636.09C310.74 630.86 318.74 606.19 304.12 580.25C298.65 570.56 290.2 556.45 295.98 542.88C301.77 529.31 325.19 488.38 292.56 471.27C259.93 454.16 253.04 477.34 249.71 483.53C242.12 497.64 237.33 520.03 214.23 507.19C193 495.39 197.15 482.08 202.62 469.27C203.28 467.72 204.12 466.27 205 464.83C205.48 464.04 205.77 462.92 204.63 461.82C204.16 461.37 202.48 462.55 201.33 462.09C200.18 461.63 200.25 459.77 198.75 459.57C197.95 459.46 196.18 460.4 195.54 460.33C194.83 460.25 194.56 458.06 194.03 458.09C191.61 458.22 190.84 461.07 186.03 472.68C180.16 486.83 187.14 507.9 196.56 530.39C206.3 553.66 173.58 566.16 164.96 564.35C156.34 562.54 152.79 555.04 135.31 562.27C117.83 569.5 129.72 571.3 131.96 576.36C134.2 581.42 135.56 576.12 143.56 577.11C152.46 578.22 175.74 580.79 184.39 612.98L184.4 613Z" fill="#2F80ED"/>
<path d="M253.27 491.28C248.8 492.02 243.15 500.91 246.74 503.8C250.33 506.69 251.97 508.27 252.12 509.83C252.27 511.39 239.97 517.92 242.63 525.16C245.29 532.39 264.92 544.87 272.43 538.55C279.94 532.23 272.57 520.17 275.19 518.74C277.81 517.31 289.54 522.97 291.75 517.24C293.96 511.51 292.75 499.57 284.8 497.25C276.85 494.93 261.09 489.97 253.26 491.27L253.27 491.28Z" fill="#FFCA0C"/>
<path d="M255.71 514.36C256 513.61 259.1 514.14 260.75 515.8C262.4 517.45 262.11 520.52 259.83 520.15C257.55 519.78 258.93 517.53 257.61 516.69C256.29 515.85 255.43 515.11 255.71 514.36Z" fill="#002327"/>
<path d="M270.31 522.74C270.99 522.09 270.49 519.07 266.89 519.38C264.8 519.56 262.81 520.02 264.15 521.64C265.49 523.26 266.48 521.4 267.72 522.12C268.96 522.84 269.85 523.19 270.31 522.75V522.74Z" fill="#002327"/>
<path d="M260.73 498.22C257.68 497.9 251.61 503.12 257.52 508.15C263.42 513.18 269 506.1 267.92 502.94C266.84 499.77 264.4 498.61 260.73 498.23V498.22Z" fill="#EAF6FD"/>
<path d="M262.05 508.55C263.287 508.55 264.29 507.547 264.29 506.31C264.29 505.073 263.287 504.07 262.05 504.07C260.813 504.07 259.81 505.073 259.81 506.31C259.81 507.547 260.813 508.55 262.05 508.55Z" fill="#002327"/>
<path d="M273.96 503.33C270.91 503.01 264.84 508.23 270.75 513.26C276.66 518.29 282.23 511.21 281.15 508.05C280.07 504.88 277.63 503.72 273.96 503.34V503.33Z" fill="#EAF6FD"/>
<path d="M275.55 515.34C277.66 515.34 279.37 513.63 279.37 511.52C279.37 509.41 277.66 507.7 275.55 507.7C273.44 507.7 271.73 509.41 271.73 511.52C271.73 513.63 273.44 515.34 275.55 515.34Z" fill="#002327"/>
<path d="M253.53 527.82C251.31 530.17 246.77 535.19 251.1 538.12C255.42 541.04 258.75 541.86 259.9 536.55C261.05 531.24 261.98 527.95 260.16 526.98C257.39 525.49 255.99 525.21 253.53 527.83V527.82Z" fill="#F1F3F5"/>
<path d="M253.89 528.17C252.31 530.15 248.96 534.12 251.16 536.42C251.3 536.62 251.7 536.82 251.9 536.98C253.25 537.78 254.93 538.81 256.42 538.94C258.39 538.93 258.49 536.32 259.21 534.33C259.67 532.68 260.22 531.03 260.41 529.47C260.5 528.69 260.43 527.97 260.03 527.63C259.45 527.19 258.62 526.76 257.93 526.5C256.3 525.79 254.9 526.95 253.91 528.18L253.89 528.17ZM253.17 527.48C254.9 525.67 257.11 524.8 259.48 526.03L260.09 526.3C260.82 526.54 261.55 527.28 261.73 528.02C262.31 530.3 261.72 532.67 261.47 534.83C261.13 536.77 261.1 538.62 259.76 540.35C256.94 543.68 252.27 540.97 249.72 538.77C245.74 535.05 250.26 530.12 253.17 527.5V527.48Z" fill="#002327"/>
<path d="M257.16 467.92C253.2 469.66 248.89 470.15 244.71 470.84C243.16 471.11 241.01 471.38 239.95 472.08C240.03 472.06 240.22 471.72 240.2 471.52C240.2 471.49 240.2 471.45 240.2 471.42C240.2 471.4 240.22 471.42 240.22 471.42C240.2 471.41 240.28 471.49 240.3 471.54C242.69 474.16 246.51 475.7 249.77 477.09C254.16 478.74 258.86 479.39 263.55 479.4C265.34 479.42 266.65 481.26 265.55 482.9C265.25 483.31 265.01 483.47 264.67 483.69C264.47 483.81 264.6 483.74 264.63 483.7C264.91 483.49 265.11 482.88 265.03 482.56C264.91 482.08 264.85 482.23 264.97 482.32C266.43 483.68 268.58 484.2 270.57 484.59C273.13 485.03 275.82 484.96 278.5 484.51C279.53 484.32 279.97 485.85 278.98 486.23C273.77 488.21 266.92 488.73 262.22 485.09C261.01 484.1 260.47 481.83 262.08 480.57C262.29 480.41 262.63 480.17 262.42 480.32C261.33 481.35 261.98 483.22 263.3 483.51C254.44 484.14 245.23 481.55 238.36 475.8C236.58 474.3 234.95 471.2 237.09 469.2C238.03 468.34 238.88 468.13 239.92 467.87C242.96 467.32 245.68 467.45 248.64 467.42C251.43 467.42 254.18 467.42 256.95 467.11C257.42 467.04 257.61 467.74 257.18 467.92H257.16Z" fill="#FFCA0C"/>
<path d="M301.53 513.96C301.1 517.57 298.24 525.19 299.81 526.9C302.21 529.51 307.35 527.04 308.39 520.36C309.43 513.68 301.9 510.85 301.53 513.96Z" fill="#FFCA0C"/>
<path d="M127.08 565.49C122.65 563.46 121.3 560.66 115.75 555.07C110.2 549.48 100.59 537.47 106.92 554.81C113.25 572.16 122.69 584.1 126.24 585.83C129.79 587.56 133.48 578.96 135.3 577.79C137.12 576.62 134.55 568.9 127.08 565.48V565.49Z" fill="#FFCA0C"/>
<path d="M119.51 498.66C119.96 493.2 117.97 488.8 119.61 482.04C121.25 475.29 117.92 473.07 116.91 474.29C115.9 475.51 113.36 484.88 113.72 489.29C114.08 493.7 117.91 505.55 118.44 505.62C118.97 505.69 119.51 498.65 119.51 498.65V498.66Z" fill="#EE9D25"/>
<path d="M132.84 480.89C127.42 484.52 125.36 483.79 124.82 489.49C124.28 495.19 125.42 500.93 123.27 503.76C121.12 506.59 118.58 508.24 118.58 508.24C118.58 508.24 119.07 511.31 120.33 511.31C121.59 511.31 120.15 512.85 120.15 512.85C120.15 512.85 117.11 511.97 116.69 509.86C116.27 507.75 115 509.03 113.82 507.03C112.64 505.04 103.4 501.97 102.25 509.84C101.1 517.7 99.19 517.33 99.14 514.63C99.09 511.93 99.24 498.89 103.95 497.35C108.66 495.81 115.21 502 116.24 503.32C116.24 503.32 113.43 487.43 120.6 483.24C127.78 479.06 135.85 478.87 132.83 480.89H132.84Z" fill="#FFCA0C"/>
<path d="M109.05 680.95C114.37 685.26 117.01 692.65 124.35 696.21C131.69 699.77 129.69 706.61 127.86 707.16C126.03 707.7 110.52 711.45 106.73 706.77C102.94 702.08 101.61 677.2 101.91 676.27C102.21 675.34 109.05 680.96 109.05 680.96V680.95Z" fill="#EE9D25"/>
<path d="M165.68 687.51C151.46 691.56 149.01 696.9 140.13 687.69C131.25 678.48 125.15 665.93 117.58 665.03C110.01 664.13 103.42 666.12 103.42 666.12C103.42 666.12 99.95 659.65 102.08 657.18C104.21 654.71 99.63 654.77 99.63 654.77C99.63 654.77 95.72 662.29 97.97 666.89C100.22 671.49 96.29 671.68 97.09 677.57C97.89 683.46 87.29 702.2 73.4 700.55C59.52 698.9 57.21 704.32 61.17 705.01C65.13 705.7 85.87 708.87 96.71 707.98C107.55 707.09 106.45 683.93 106.36 679.54C106.36 679.54 123.82 713.64 141.77 707.16C159.72 700.69 173.6 685.26 165.68 687.52V687.51Z" fill="#FFCA0C"/>
<path d="M332.94 649.28C333.3 650.92 333.58 651.35 332.94 652.14C332.3 652.93 329.87 653.07 327.44 654.92C325.01 656.77 324.37 661.27 318.52 657.78C312.67 654.29 314.52 653.21 312.67 654.28C310.82 655.35 314.67 659.63 319.81 660.85C324.95 662.07 324.45 660.78 331.8 661.14C331.8 661.14 332.8 662.35 334.01 663.21C335.22 664.07 338.15 664.64 333.22 665.57C328.29 666.5 329.44 669.07 336.15 668.07C342.86 667.07 347 664.43 344.86 661.29C342.72 658.15 338.22 657.94 338.08 656.58C338.08 656.58 342.43 658.15 346.36 660.15C350.29 662.15 351.86 661.29 353.64 660.51C355.42 659.72 350.29 659.72 346.79 657.94C343.29 656.16 341.15 652.66 338.22 652.09C335.29 651.52 334.65 651.38 334.29 649.66C333.93 647.94 334 647.16 333.43 647.38C332.86 647.6 332.57 647.69 332.93 649.31L332.94 649.28Z" fill="#EE9D25"/>
<path d="M180.62 246.06C182.02 246.06 182.72 246.76 182.72 248.16V253.26C182.72 259.79 185.05 263.06 189.72 263.06C192.25 263.06 194.07 262.28 195.17 260.71C196.27 259.14 196.82 256.66 196.82 253.26C196.82 249.66 195.9 247.04 194.07 245.41C192.24 243.78 189.12 242.96 184.72 242.96H164.12C162.72 242.96 162.02 242.29 162.02 240.96V232.16C162.02 230.76 162.72 230.06 164.12 230.06H184.22C194.22 230.06 201.92 231.89 207.32 235.56C212.72 239.23 215.42 245.09 215.42 253.16C215.42 257.09 214.8 260.51 213.57 263.41C212.34 266.31 210.59 268.71 208.32 270.61C206.05 272.51 203.35 273.91 200.22 274.81C197.09 275.71 193.59 276.16 189.72 276.16C185.85 276.16 182.44 275.71 179.27 274.81C176.1 273.91 173.4 272.51 171.17 270.61C168.94 268.71 167.2 266.31 165.97 263.41C164.74 260.51 164.12 257.09 164.12 253.16V248.16C164.12 246.76 164.79 246.06 166.12 246.06H180.62ZM163.82 297.06C163.82 295.73 164.52 295.06 165.92 295.06H182.32L193.62 283.36C194.35 282.69 195.32 282.36 196.52 282.36H214.82C215.62 282.36 216.12 282.66 216.32 283.26C216.52 283.86 216.32 284.43 215.72 284.96L192.52 309.06C191.79 309.73 190.82 310.06 189.62 310.06H165.92C164.52 310.06 163.82 309.39 163.82 308.06V297.06ZM205.82 302.66C204.82 301.79 204.79 300.83 205.72 299.76L214.92 290.16C215.85 289.23 216.82 289.23 217.82 290.16L223.52 295.06H238.62C240.02 295.06 240.72 295.73 240.72 297.06V308.06C240.72 309.39 240.02 310.06 238.62 310.06H216.32C215.72 310.06 215.2 309.98 214.77 309.81C214.34 309.64 213.89 309.39 213.42 309.06L205.82 302.66ZM222.92 282.56C221.52 282.56 220.82 281.89 220.82 280.56V231.06C220.82 229.66 221.52 228.96 222.92 228.96H237.22C238.62 228.96 239.32 229.66 239.32 231.06V246.96H244.02C245.35 246.96 246.02 247.66 246.02 249.06V260.76C246.02 262.09 245.35 262.76 244.02 262.76H239.32V280.56C239.32 281.89 238.62 282.56 237.22 282.56H222.92Z" fill="#2F80ED"/>
<path d="M257.21 286.96C255.81 286.96 255.11 286.29 255.11 284.96L254.41 231.66C254.41 230.26 255.11 229.56 256.51 229.56H271.61C273.01 229.56 273.71 230.26 273.71 231.66L273.01 284.96C273.01 286.29 272.31 286.96 270.91 286.96H257.21ZM256.92 310.56C255.52 310.56 254.82 309.89 254.82 308.56V295.76C254.82 294.29 255.52 293.56 256.92 293.56H271.22C272.62 293.56 273.32 294.29 273.32 295.76V308.56C273.32 309.89 272.62 310.56 271.22 310.56H256.92Z" fill="#2F80ED"/>
<path d="M114.16 327.14C114.16 326.86 114.31 326.72 114.6 326.72H117.51V325.22C117.51 324.93 117.66 324.78 117.95 324.78H120.82C121.11 324.78 121.26 324.93 121.26 325.22V326.72H124.05C124.35 326.72 124.51 326.86 124.51 327.14V329.1C124.51 329.38 124.36 329.52 124.05 329.52H114.61C114.32 329.52 114.17 329.38 114.17 329.1V327.14H114.16ZM124.18 333.73C124.18 334.23 124.06 334.67 123.82 335.06C123.58 335.45 123.24 335.78 122.82 336.05C122.4 336.32 121.89 336.53 121.3 336.66C120.71 336.8 120.07 336.87 119.38 336.87C118.69 336.87 118.05 336.8 117.46 336.66C116.87 336.52 116.36 336.32 115.94 336.05C115.52 335.78 115.18 335.45 114.94 335.06C114.7 334.67 114.58 334.23 114.58 333.73V333.29C114.58 332.79 114.7 332.35 114.93 331.96C115.17 331.57 115.5 331.24 115.93 330.97C116.36 330.7 116.87 330.49 117.46 330.36C118.05 330.22 118.69 330.15 119.38 330.15C120.07 330.15 120.71 330.22 121.3 330.36C121.89 330.5 122.39 330.7 122.82 330.97C123.24 331.24 123.57 331.57 123.82 331.96C124.06 332.35 124.18 332.79 124.18 333.29V333.73ZM130.27 339.6C130.53 339.6 130.67 339.74 130.67 340.02V341.98C130.67 342.26 130.54 342.4 130.27 342.4H115.59C115.31 342.4 115.17 342.26 115.17 341.98V338.32C115.17 338.04 115.31 337.9 115.59 337.9H118.73C119.02 337.9 119.17 338.04 119.17 338.32V339.61H130.28L130.27 339.6ZM120.5 333.51C120.5 333.19 120.42 332.93 120.27 332.72C120.12 332.51 119.82 332.41 119.38 332.41C118.94 332.41 118.62 332.52 118.46 332.73C118.31 332.95 118.23 333.21 118.23 333.53C118.23 333.85 118.31 334.12 118.47 334.33C118.63 334.54 118.93 334.65 119.38 334.65C119.83 334.65 120.14 334.54 120.28 334.32C120.42 334.1 120.5 333.83 120.5 333.51ZM127.07 337.67C126.78 337.67 126.63 337.53 126.63 337.25V335.44H125.38C125.1 335.44 124.96 335.3 124.96 335.02V333C124.96 332.71 125.1 332.56 125.38 332.56H126.63V330.69H125.49C125.21 330.69 125.07 330.55 125.07 330.27V328.25C125.07 327.96 125.21 327.81 125.49 327.81H126.63V326.04C126.63 325.75 126.78 325.6 127.07 325.6H130.04C130.33 325.6 130.48 325.75 130.48 326.04V337.23C130.48 337.51 130.33 337.65 130.04 337.65H127.07V337.67Z" fill="#495057"/>
<path d="M132.85 326.45C132.85 326.17 133 326.03 133.29 326.03H140.03C140.32 326.03 140.47 326.17 140.47 326.45V328.8C140.47 329.08 140.32 329.22 140.03 329.22H138.26L135.7 341.97C135.63 342.19 135.46 342.3 135.18 342.3H132.83C132.52 342.3 132.41 342.13 132.5 341.8L134.93 329.22H133.29C133 329.22 132.85 329.08 132.85 328.8V326.45ZM137.85 342.28C137.59 342.28 137.43 342.17 137.37 341.95L136.97 339.25C136.94 339.07 136.95 338.89 136.99 338.71L138.26 332.43C138.29 332.25 138.38 332.15 138.54 332.14C138.7 332.13 138.79 332.22 138.82 332.41L140.61 341.81C140.72 342.13 140.61 342.29 140.3 342.29H137.84L137.85 342.28ZM146.12 342.59C145.84 342.59 145.7 342.45 145.7 342.17V335.68H144.58V341.96C144.58 342.24 144.44 342.38 144.16 342.38H141.77C141.49 342.38 141.35 342.24 141.35 341.96V326.17C141.35 325.88 141.49 325.73 141.77 325.73H144.16C144.44 325.73 144.58 325.88 144.58 326.17V332.14H145.7V326.05C145.7 325.76 145.84 325.61 146.12 325.61H148.53C148.81 325.61 148.95 325.76 148.95 326.05V342.17C148.95 342.45 148.81 342.59 148.53 342.59H146.12Z" fill="#495057"/>
<path d="M156.5 341.76C156.36 341.79 156.26 341.76 156.19 341.68C156.12 341.6 156.09 341.49 156.09 341.35V338.65C156.09 338.51 156.13 338.42 156.21 338.39C156.29 338.36 156.39 338.3 156.5 338.23C157.07 337.92 157.57 337.52 158.01 337.02C158.45 336.52 158.81 335.91 159.11 335.18C159.41 334.45 159.63 333.6 159.79 332.61C159.95 331.62 160.02 330.5 160.02 329.22H156.3C156.02 329.22 155.88 329.08 155.88 328.8V326.45C155.88 326.17 156.02 326.03 156.3 326.03H163.08C163.37 326.03 163.52 326.18 163.52 326.47V328.76C163.52 332.43 162.92 335.36 161.73 337.55C160.54 339.73 158.8 341.14 156.51 341.76H156.5ZM169.27 342.59C168.99 342.59 168.85 342.45 168.85 342.17V335.68H167.73V341.96C167.73 342.24 167.59 342.38 167.31 342.38H164.92C164.64 342.38 164.5 342.24 164.5 341.96V326.17C164.5 325.88 164.64 325.73 164.92 325.73H167.31C167.59 325.73 167.73 325.88 167.73 326.17V332.14H168.85V326.05C168.85 325.76 168.99 325.61 169.27 325.61H171.68C171.96 325.61 172.1 325.76 172.1 326.05V342.17C172.1 342.45 171.96 342.59 171.68 342.59H169.27Z" fill="#495057"/>
<path d="M174.66 333.53C174.38 333.53 174.24 333.39 174.24 333.11V326.12C174.24 325.84 174.38 325.7 174.66 325.7H177.57C177.85 325.7 177.99 325.84 177.99 326.12V330.97H181.03V329.45H179.05C178.76 329.45 178.61 329.3 178.61 329.01V327.43C178.61 327.15 178.76 327.01 179.05 327.01H181.03V326.12C181.03 325.84 181.18 325.7 181.47 325.7H184.34C184.63 325.7 184.78 325.84 184.78 326.12V333.11C184.78 333.39 184.63 333.53 184.34 333.53H174.67H174.66ZM175.26 342.49C174.98 342.49 174.84 342.35 174.84 342.07V338.26C174.84 337.98 174.98 337.84 175.26 337.84H185.87V336.97H175.26C174.98 336.97 174.84 336.83 174.84 336.55V335.34C174.84 335.06 174.98 334.92 175.26 334.92H189.55C189.83 334.92 189.97 335.06 189.97 335.34V339.06C189.97 339.34 189.83 339.48 189.55 339.48H178.96V340.4H189.73C190.01 340.4 190.15 340.54 190.15 340.82V342.07C190.15 342.35 190.01 342.49 189.73 342.49H175.25H175.26ZM186.56 333.88C186.27 333.88 186.12 333.74 186.12 333.46V326.06C186.12 325.77 186.27 325.62 186.56 325.62H189.53C189.82 325.62 189.97 325.77 189.97 326.06V327.91H190.95C191.23 327.91 191.37 328.06 191.37 328.35V330.8C191.37 331.08 191.23 331.22 190.95 331.22H189.97V333.47C189.97 333.75 189.82 333.89 189.53 333.89H186.56V333.88Z" fill="#495057"/>
<path d="M202.84 335.9V337.13H203.15C205.05 337.13 206.47 337.39 207.41 337.91C208.35 338.43 208.83 339.17 208.83 340.13C208.83 342.06 206.94 343.02 203.15 343.02H198.57C196.67 343.02 195.23 342.78 194.25 342.29C193.27 341.8 192.78 341.08 192.78 340.13C192.78 339.18 193.27 338.43 194.25 337.91C195.23 337.39 196.67 337.13 198.57 337.13H198.8V335.9H193.04C192.75 335.9 192.6 335.75 192.6 335.46V333.86C192.6 333.58 192.75 333.44 193.04 333.44H208.58C208.87 333.44 209.02 333.58 209.02 333.86V335.46C209.02 335.75 208.87 335.9 208.58 335.9H202.84ZM193 326.27C193 325.99 193.15 325.85 193.44 325.85H208.19C208.48 325.85 208.63 325.99 208.63 326.27V328.02C208.63 328.3 208.48 328.44 208.19 328.44H203.34L197.87 332.33C197.79 332.4 197.69 332.46 197.57 332.51C197.45 332.56 197.33 332.58 197.21 332.58H193.03C192.86 332.58 192.74 332.52 192.67 332.41C192.6 332.3 192.63 332.19 192.76 332.08L197.9 328.44H193.45C193.16 328.44 193.01 328.3 193.01 328.02V326.27H193ZM203.36 340.87C203.94 340.87 204.34 340.8 204.56 340.67C204.78 340.54 204.88 340.35 204.88 340.12C204.88 339.89 204.77 339.7 204.56 339.57C204.35 339.44 203.95 339.37 203.36 339.37H198.37C197.79 339.37 197.37 339.43 197.12 339.55C196.87 339.67 196.74 339.86 196.74 340.12C196.74 340.4 196.86 340.59 197.12 340.7C197.37 340.81 197.79 340.87 198.37 340.87H203.36ZM201.61 330.97C201.5 330.9 201.45 330.8 201.46 330.68C201.47 330.56 201.53 330.46 201.63 330.39L203.4 329.12C203.52 329.01 203.64 328.96 203.73 328.96C203.83 328.96 203.94 329.01 204.06 329.1L208.91 331.97C209.05 332.07 209.08 332.17 209 332.29C208.92 332.41 208.8 332.47 208.64 332.47H204.27C204.15 332.47 204.02 332.44 203.89 332.38C203.76 332.32 203.65 332.25 203.57 332.18L201.61 330.97Z" fill="#495057"/>
<path d="M214.49 329.18C214.78 329.18 214.93 329.33 214.93 329.62V330.68C214.93 332.04 215.43 332.72 216.43 332.72C217.43 332.72 217.97 332.04 217.97 330.68C217.97 329.93 217.76 329.39 217.35 329.05C216.93 328.71 216.27 328.54 215.35 328.54H211.06C210.77 328.54 210.62 328.4 210.62 328.12V326.29C210.62 326 210.77 325.85 211.06 325.85H215.24C217.32 325.85 218.94 326.23 220.1 326.99C221.26 327.75 221.84 328.97 221.84 330.65C221.84 331.47 221.71 332.18 221.44 332.78C221.18 333.38 220.81 333.88 220.33 334.28C219.85 334.68 219.28 334.97 218.62 335.15C217.96 335.34 217.23 335.43 216.43 335.43C215.63 335.43 214.92 335.34 214.26 335.15C213.6 334.96 213.04 334.67 212.57 334.28C212.1 333.88 211.73 333.39 211.47 332.78C211.21 332.18 211.07 331.47 211.07 330.65V329.61C211.07 329.32 211.21 329.17 211.49 329.17H214.51L214.49 329.18ZM226.89 339.06C227.15 339.06 227.29 339.2 227.29 339.48V341.98C227.29 342.26 227.16 342.4 226.89 342.4H212.21C211.93 342.4 211.79 342.26 211.79 341.98V337.36C211.79 337.08 211.93 336.94 212.21 336.94H215.35C215.64 336.94 215.79 337.08 215.79 337.36V339.07H226.9L226.89 339.06ZM223.68 336.96C223.39 336.96 223.24 336.82 223.24 336.54V326.06C223.24 325.77 223.39 325.62 223.68 325.62H226.65C226.94 325.62 227.09 325.77 227.09 326.06V336.54C227.09 336.82 226.94 336.96 226.65 336.96H223.68Z" fill="#495057"/>
<path d="M233.89 339.41C233.89 339.13 234.04 338.99 234.33 338.99H234.7V330.13C234.7 330.01 234.74 329.9 234.82 329.83C234.9 329.76 235.01 329.72 235.13 329.72H236.92C237.18 329.72 237.32 329.86 237.32 330.14V339H237.96L238.44 330.14C238.44 330.02 238.48 329.91 238.56 329.84C238.64 329.77 238.75 329.73 238.87 329.73H240.62C240.88 329.73 241.02 329.87 241.02 330.15L240.5 339.01H241.54C241.83 339.01 241.98 339.15 241.98 339.43V341.68C241.98 341.96 241.83 342.1 241.54 342.1H234.32C234.03 342.1 233.88 341.96 233.88 341.68V339.43L233.89 339.41ZM233.96 326.45C233.96 326.17 234.11 326.03 234.4 326.03H241.47C241.76 326.03 241.91 326.17 241.91 326.45V328.7C241.91 328.98 241.76 329.12 241.47 329.12H234.4C234.11 329.12 233.96 328.98 233.96 328.7V326.45ZM242.86 335.79H241.92C241.66 335.79 241.52 335.65 241.52 335.37V332.62C241.52 332.33 241.65 332.18 241.92 332.18H242.86V326.17C242.86 325.88 243 325.73 243.28 325.73H245.67C245.95 325.73 246.09 325.88 246.09 326.17V341.96C246.09 342.24 245.95 342.38 245.67 342.38H243.28C243 342.38 242.86 342.24 242.86 341.96V335.78V335.79ZM247.1 326.06C247.1 325.77 247.24 325.62 247.52 325.62H249.93C250.21 325.62 250.35 325.77 250.35 326.06V342.18C250.35 342.46 250.21 342.6 249.93 342.6H247.52C247.24 342.6 247.1 342.46 247.1 342.18V326.06Z" fill="#495057"/>
<path d="M256.03 329.76C256.32 329.76 256.47 329.9 256.47 330.18V336.52C256.47 337.56 256.58 338.29 256.79 338.71C257 339.13 257.36 339.34 257.86 339.34C258.36 339.34 258.74 339.13 258.95 338.71C259.16 338.29 259.27 337.56 259.27 336.52V332.69C259.27 332.09 259.23 331.57 259.14 331.12C259.05 330.67 258.9 330.3 258.68 330C258.46 329.7 258.17 329.48 257.8 329.33C257.43 329.18 256.96 329.11 256.41 329.11H252.6C252.31 329.11 252.16 328.97 252.16 328.69V326.42C252.16 326.14 252.31 326 252.6 326H256.3C258.68 326 260.42 326.54 261.51 327.61C262.6 328.68 263.14 330.41 263.14 332.8V336.36C263.14 337.54 263.02 338.52 262.76 339.3C262.51 340.08 262.16 340.71 261.7 341.18C261.24 341.65 260.69 341.98 260.04 342.18C259.39 342.37 258.66 342.47 257.86 342.47C257.06 342.47 256.35 342.37 255.7 342.18C255.05 341.99 254.49 341.65 254.04 341.18C253.58 340.71 253.23 340.08 252.98 339.3C252.73 338.52 252.61 337.54 252.61 336.36V330.16C252.61 329.88 252.75 329.74 253.03 329.74H256.05L256.03 329.76ZM265.18 342.59C264.9 342.59 264.76 342.45 264.76 342.17V326.05C264.76 325.76 264.9 325.61 265.18 325.61H268.2C268.48 325.61 268.62 325.76 268.62 326.05V342.17C268.62 342.45 268.48 342.59 268.2 342.59H265.18Z" fill="#495057"/>
<path d="M270.98 326.45C270.98 326.17 271.13 326.03 271.42 326.03H281.07C281.36 326.03 281.51 326.17 281.51 326.45V328.8C281.51 329.08 281.36 329.22 281.07 329.22H278.41L274.69 342.18C274.62 342.4 274.45 342.51 274.17 342.51H271.17C270.87 342.51 270.75 342.34 270.84 342.01L274.42 329.22H271.42C271.13 329.22 270.98 329.08 270.98 328.8V326.45ZM278.57 342.45C278.31 342.45 278.15 342.34 278.09 342.12L276.7 337.9C276.67 337.8 276.66 337.72 276.67 337.64C276.68 337.56 276.69 337.47 276.72 337.36L278.16 332.35C278.2 332.17 278.29 332.07 278.42 332.06C278.55 332.05 278.65 332.14 278.72 332.33L281.96 341.98C282.04 342.3 281.94 342.46 281.65 342.46H278.57V342.45ZM283.56 342.59C283.27 342.59 283.12 342.45 283.12 342.17V326.05C283.12 325.76 283.27 325.61 283.56 325.61H286.53C286.82 325.61 286.97 325.76 286.97 326.05V342.17C286.97 342.45 286.82 342.59 286.53 342.59H283.56Z" fill="#495057"/>
<path d="M298.27 338.56H296.79C296.68 339.27 296.52 339.86 296.31 340.33C296.1 340.8 295.85 341.18 295.54 341.47C295.23 341.76 294.88 341.97 294.47 342.09C294.06 342.21 293.61 342.28 293.11 342.28C292.51 342.28 291.98 342.18 291.51 341.99C291.04 341.8 290.64 341.46 290.32 340.99C290 340.52 289.75 339.89 289.58 339.11C289.41 338.33 289.32 337.35 289.32 336.17V330.16C289.32 329.88 289.46 329.74 289.74 329.74H291.97C292.26 329.74 292.41 329.88 292.41 330.16V336.32C292.41 336.89 292.42 337.36 292.45 337.72C292.48 338.09 292.52 338.38 292.59 338.58C292.66 338.78 292.72 338.93 292.81 339.02C292.89 339.1 293 339.14 293.12 339.14C293.24 339.14 293.35 339.1 293.44 339.02C293.53 338.94 293.61 338.79 293.67 338.58C293.73 338.37 293.78 338.08 293.82 337.72C293.86 337.35 293.87 336.89 293.87 336.32V332.7C293.87 331.4 293.73 330.47 293.46 329.93C293.19 329.39 292.73 329.12 292.08 329.12H289.33C289.04 329.12 288.89 328.98 288.89 328.7V326.43C288.89 326.15 289.04 326.01 289.33 326.01H291.97C293.18 326.01 294.14 326.24 294.85 326.69C295.56 327.14 296.09 327.85 296.42 328.82H298.27V326.18C298.27 325.89 298.41 325.74 298.69 325.74H300.98C301.26 325.74 301.4 325.89 301.4 326.18V341.97C301.4 342.25 301.26 342.39 300.98 342.39H298.69C298.41 342.39 298.27 342.25 298.27 341.97V338.56ZM296.94 335.27H298.27V332.11H296.92C296.93 332.22 296.94 332.34 296.94 332.46V335.27ZM302.3 326.06C302.3 325.77 302.44 325.62 302.72 325.62H305.03C305.31 325.62 305.45 325.77 305.45 326.06V342.18C305.45 342.46 305.31 342.6 305.03 342.6H302.72C302.44 342.6 302.3 342.46 302.3 342.18V326.06Z" fill="#495057"/>
<path d="M308.02 342.18C307.73 342.18 307.58 342.03 307.58 341.74V339.41C307.58 339.13 307.73 338.99 308.02 338.99H310.27V337.26C310.27 336.98 310.41 336.84 310.69 336.84H313.69C313.97 336.84 314.11 336.98 314.11 337.26V338.99H317.5V337.26C317.5 336.98 317.64 336.84 317.92 336.84H320.92C321.2 336.84 321.34 336.98 321.34 337.26V338.99H323.59C323.88 338.99 324.03 339.13 324.03 339.41V341.74C324.03 342.03 323.88 342.18 323.59 342.18H308.05H308.02ZM316.28 333.09C316.97 333.09 317.54 333.05 318 332.97C318.45 332.89 318.81 332.76 319.08 332.6C319.35 332.44 319.54 332.22 319.64 331.97C319.74 331.71 319.8 331.41 319.8 331.04C319.8 330.67 319.74 330.37 319.62 330.1C319.5 329.84 319.27 329.62 318.92 329.45C318.57 329.28 318.09 329.15 317.46 329.07C316.84 328.99 316.02 328.95 315.03 328.95H308.1C307.81 328.95 307.66 328.81 307.66 328.53V326.35C307.66 326.07 307.81 325.93 308.1 325.93H314.92C316.63 325.93 318.04 326.05 319.16 326.28C320.28 326.51 321.18 326.86 321.84 327.31C322.51 327.76 322.97 328.31 323.24 328.94C323.51 329.58 323.65 330.29 323.65 331.08C323.65 331.87 323.52 332.58 323.27 333.21C323.01 333.84 322.6 334.37 322.02 334.81C321.44 335.25 320.69 335.58 319.74 335.81C318.8 336.04 317.64 336.15 316.27 336.15H315.44C314.07 336.15 312.91 336.04 311.98 335.81C311.04 335.58 310.29 335.25 309.71 334.81C309.13 334.37 308.72 333.84 308.47 333.21C308.22 332.58 308.09 331.87 308.09 331.08V329.98C308.09 329.7 308.23 329.56 308.51 329.56H311.53C311.82 329.56 311.97 329.7 311.97 329.98V331.04C311.97 331.29 312.02 331.54 312.13 331.79C312.23 332.04 312.41 332.26 312.67 332.46C312.93 332.65 313.28 332.81 313.73 332.93C314.18 333.05 314.75 333.11 315.45 333.11H316.28V333.09Z" fill="#495057"/>
<path d="M326.6 342.59C326.31 342.59 326.16 342.45 326.16 342.17V339.3C326.16 339.01 326.31 338.86 326.6 338.86H329.57C329.86 338.86 330.01 339.01 330.01 339.3V342.17C330.01 342.45 329.86 342.59 329.57 342.59H326.6Z" fill="#495057"/>
</g>
</g>
<defs>
<clipPath id="clip0_181_1693">
<rect width="428" height="926" fill="white"/>
</clipPath>
</defs>
</svg>
