<svg width="227" height="269" viewBox="0 0 227 269" fill="none" xmlns="http://www.w3.org/2000/svg">
<g clip-path="url(#clip0_266_1694)">
<path d="M78.2099 258.304C75.1992 260.527 72.8107 260.395 66.9824 262.047C61.1541 263.704 49.4939 265.698 63.5283 267.875C77.5627 270.051 89.1156 268.142 91.5971 266.4C94.0786 264.658 89.6663 258.998 89.5519 257.342C89.4374 255.686 83.2837 254.557 78.2099 258.3V258.304Z" fill="#FFCA0C"/>
<path d="M143.92 258.304C146.93 260.527 149.319 260.395 155.147 262.047C160.975 263.704 172.754 266.257 158.601 267.875C137.151 270.329 130.118 268.252 130.532 266.4C131.115 263.789 132.463 258.998 132.578 257.342C132.692 255.686 138.846 254.557 143.92 258.3V258.304Z" fill="#FFCA0C"/>
<path d="M203.09 47.5611C201.781 47.7249 200.462 47.3367 199.596 46.5317C196.857 43.985 191.111 38.2754 191.494 34.4821C191.984 29.5952 194.115 12.2883 194.115 11.7612C194.115 11.4085 194.555 6.25457 194.848 2.88864C194.987 1.26089 196.664 0 198.684 0C200.719 0 202.403 1.2787 202.525 2.91358L203.44 15.1306C203.451 15.2589 203.469 15.3871 203.497 15.5118L204.191 18.5144C204.523 19.9641 206.079 21.0219 207.906 21.0468L220.535 21.2285C222.176 21.2534 223.621 22.1118 224.125 23.3727L226.81 30.0476C227.071 30.6958 227.061 31.394 226.782 32.0351L221.751 43.5647C221.279 44.644 220.113 45.424 218.715 45.5985L203.093 47.5611H203.09Z" fill="#FFCA0C"/>
<path d="M122.462 23.6647C111.389 20.5089 100.783 21.2712 90.6105 25.7377C90.4388 25.8125 90.2708 25.898 90.1099 25.9941C74.8311 35.0163 68.8348 58.9589 67.0863 72.6719C65.3306 86.4597 65.8026 109.302 62.2341 113.305C58.6656 117.309 16.5481 124.09 3.60065 156.557C-9.34678 189.023 15.5469 208.392 32.4168 212.328C48.5072 216.085 51.7753 214.233 52.0864 211.751C52.3975 209.268 57.5894 190.28 54.4893 192.004C44.6813 197.464 16.3264 180.642 27.6683 165.579C39.0103 150.516 51.3355 153.312 55.5584 154.576C59.7812 155.841 62.1197 187.801 66.0207 203.744C73.9658 236.206 77.3913 247.44 76.5331 254.667C75.675 261.891 79.6153 260.704 85.6475 260.704C91.6796 260.704 92.0228 248.957 95.6879 242.667C99.3565 236.377 123.582 233.984 127.247 242.967C130.915 251.949 128.784 260.776 136.279 260.776H142.057C144.445 260.776 146.219 260.245 145.886 258.336C144.953 252.986 151.064 227.487 153.849 214.992C161.716 179.716 171.234 159.093 182.215 146.469C193.196 133.846 224.869 94.9547 224.447 62.136C224.165 40.2557 219.606 40.8007 218.561 40.7294C216.938 40.619 215.2 39.8532 213.752 41.3064C213.259 41.8015 212.501 42.1577 211.61 42.2753L211.457 42.2966C210.831 42.3786 210.187 42.3501 209.587 42.2112C208.153 41.8799 205.36 41.2993 204.044 41.4739C203.215 41.5843 202.603 42.0402 202.189 42.5032C201.531 43.2334 200.265 43.6394 198.963 43.5896C198.023 43.5504 197.176 43.5789 196.864 43.9956C196.482 44.505 197.773 46.3429 197.88 46.9377C199.096 53.7515 182.959 104.924 166.85 110.844C153.606 115.713 158.151 95.9271 154.969 75.9844C151.268 44.7685 140.444 27.3013 122.459 23.6576L122.462 23.6647Z" fill="#2F80ED"/>
<path d="M53.2269 193.596C53.2269 193.596 62.8526 182.209 70.5223 183.684C72.6606 184.093 74.3662 185.066 75.7106 186.255C78.6712 188.87 79.5652 195.605 77.6629 200.392L76.5902 203.096C75.6319 205.503 74.1087 207.021 72.446 207.188C71.3483 207.302 69.8001 207.772 67.6904 209.015C62.8633 211.858 53.1518 219.758 50.2055 210.978C49.8801 210.013 47.4022 208.873 47.8492 207.544C48.196 206.515 48.8217 204.011 48.4785 202.632C47.6954 199.512 50.2842 199.858 50.2913 197.902C50.3128 192.766 53.2269 193.6 53.2269 193.6V193.596Z" fill="#FFCA0C"/>
<path d="M85.7332 67.34C80.9061 70.1752 78.3495 82.9123 83.7773 84.6433C89.2051 86.3744 91.8118 87.4536 92.6807 89.1847C93.5496 90.9157 82.2577 103.891 88.5544 111.029C94.8511 118.167 123.077 123.791 128.941 113.191C134.805 102.591 120.907 91.995 123.295 89.1811C125.684 86.3673 141.753 87.6673 141.753 80.0984C141.753 72.5296 135.023 59.333 124.815 60.1985C114.607 61.064 94.2003 62.3605 85.7296 67.3364L85.7332 67.34Z" fill="#FFCA0C"/>
<path d="M98.8379 92.807C98.8379 91.8204 102.653 91.051 105.296 92.2229C107.938 93.3947 108.964 97.0491 106.175 97.6333C103.386 98.2174 103.973 95.0225 102.067 94.6449C100.161 94.2674 98.8379 93.7936 98.8379 92.807Z" fill="#002327"/>
<path d="M119.43 95.9485C119.923 94.8942 118.003 91.6458 113.977 93.6084C111.646 94.7446 109.554 96.1587 111.821 97.4196C114.088 98.6805 114.403 96.1052 116.155 96.3831C117.907 96.6609 119.094 96.6609 119.43 95.9521V95.9485Z" fill="#002327"/>
<path d="M95.2513 95.596C98.3407 98.7624 104.183 99.9735 108.503 100.753C113.416 101.505 118.629 101.915 123.517 101.028C123.957 100.942 124.382 101.227 124.468 101.662C124.55 102.086 124.282 102.499 123.867 102.599C121.25 103.236 118.629 103.411 116.012 103.457C109.432 103.446 102.692 102.83 96.5957 100.116C95.3478 99.5104 94.1035 98.766 92.9986 97.6511C91.5863 96.1196 93.8282 94.0537 95.2513 95.5924V95.596Z" fill="#002327"/>
<path d="M97.436 72.006C93.7674 72.9962 89.094 81.6906 98.1511 84.8536C107.208 88.0165 110.494 77.3951 107.834 74.2357C105.174 71.0764 101.841 70.8164 97.436 72.006Z" fill="#EAF6FD"/>
<path d="M98.0511 81.4768C100.66 81.4768 102.774 79.3702 102.774 76.7716C102.774 74.173 100.66 72.0664 98.0511 72.0664C95.4424 72.0664 93.3276 74.173 93.3276 76.7716C93.3276 79.3702 95.4424 81.4768 98.0511 81.4768Z" fill="#002327"/>
<path d="M114.989 72.006C111.321 72.9962 106.647 81.6906 115.704 84.8536C124.761 88.0165 128.047 77.3951 125.387 74.2357C122.727 71.0764 119.394 70.8164 114.989 72.006Z" fill="#EAF6FD"/>
<path d="M115.965 81.4768C118.574 81.4768 120.689 79.3702 120.689 76.7716C120.689 74.173 118.574 72.0664 115.965 72.0664C113.356 72.0664 111.242 74.173 111.242 76.7716C111.242 79.3702 113.356 81.4768 115.965 81.4768Z" fill="#002327"/>
<path d="M81.6283 39.6681C78.6533 42.343 74.713 44.2878 71.2375 46.2076C69.8072 47.0126 68.4306 47.7249 67.3078 48.7864C67.1755 48.9359 67.0611 49.0535 66.9932 49.2209C66.986 49.3028 67.011 49.1924 67.0039 49.196C67.4187 49.6626 68.0086 49.8976 68.713 50.1612C74.2553 51.7712 80.3697 51.7498 85.9763 50.4212C87.5603 50.0401 89.1228 49.5379 90.6461 48.9573C91.1395 48.7792 91.5757 48.5584 92.1371 48.4693C93.1204 48.277 94.0787 49.1069 93.8141 50.1719C93.7211 50.5174 93.596 50.6919 93.4172 50.9413C93.3099 51.0802 93.3564 51.0339 93.3457 51.0339C93.3278 51.041 93.3779 50.9804 93.3707 50.9413C93.3707 50.9234 93.3886 50.8771 93.385 50.8415C93.385 50.7454 93.3564 50.6314 93.3135 50.5495C93.2527 50.464 93.2563 50.4889 93.2921 50.5174C94.0572 50.9804 95.0656 51.0374 95.9988 51.0766C97.2396 51.098 98.5161 50.9234 99.7747 50.6492C102.292 50.0757 104.716 48.9858 106.944 47.5468C107.502 47.1871 108.127 47.9707 107.605 48.4266C105.499 50.2396 103.011 51.6643 100.29 52.5227C98.9309 52.9537 97.5113 53.2315 96.0381 53.3063C94.379 53.3312 92.2015 53.3384 91.1502 51.7284C90.7176 51.0267 90.8964 50.0864 91.3827 49.4773C91.4041 49.4453 91.4077 49.4382 91.4184 49.4168C91.4184 49.4168 91.4113 49.4275 91.4077 49.431C91.4113 49.4275 91.3684 49.4987 91.354 49.5842C91.3397 49.6519 91.3219 49.7302 91.3254 49.8015C91.2933 50.3714 91.801 50.9484 92.3767 50.9733C92.4661 50.9804 92.5233 50.9733 92.5233 50.9733C92.5555 50.9698 92.5054 50.9804 92.4661 50.9947C90.5889 51.8282 88.6437 52.5548 86.6485 53.0712C81.1813 54.553 75.3959 54.5743 69.8716 53.3419C68.1695 52.9038 66.2852 52.3482 65.0873 50.9448C64.0003 49.6946 64.3937 48.0455 65.5772 47.0232C65.8132 46.7668 66.2423 46.4961 66.5212 46.2824C68.9633 44.7437 71.4734 43.8425 74.0479 42.7277C76.5366 41.6805 78.9966 40.6191 81.3136 39.2513C81.5818 39.0911 81.8571 39.4579 81.6247 39.6645L81.6283 39.6681Z" fill="#FFCA0C"/>
<path d="M196.857 26.7671C198.416 26.7636 199.968 27.4474 201.159 28.3842C201.749 28.833 202.303 29.2426 202.739 29.2747C203.261 29.3459 203.873 29.004 204.366 28.7938C207.119 27.5757 209.905 25.8553 213.091 25.9159C215.233 25.9622 216.863 28.1171 216.402 30.1936C216.066 31.8784 215.211 33.1642 214.289 34.4927C213.416 35.7251 212.458 36.8578 211.489 37.9691C210.506 39.0697 209.504 40.1454 208.457 41.1783C208.242 41.392 207.895 41.3884 207.681 41.1747C207.491 40.9824 207.473 40.6868 207.624 40.4731C209.322 38.0973 211.131 35.7928 212.665 33.4064C213.337 32.32 214.113 31.0627 214.317 29.8588C214.582 26.8918 210.756 28.2774 209.107 28.8401C207.405 29.4065 205.689 30.2613 203.887 30.7671C201.595 31.4438 200.39 29.0431 198.709 28.0993C198.127 27.7538 197.469 27.5116 196.775 27.3513C196.435 27.2765 196.496 26.7458 196.854 26.7636L196.857 26.7671Z" fill="#002327"/>
<path d="M151.754 72.9143C151.922 77.5624 149.805 87.7493 152.133 89.5979C155.694 92.4224 161.723 88.2942 161.723 79.6497C161.723 71.0051 151.611 68.9108 151.754 72.9178V72.9143Z" fill="#FFCA0C"/>
<path d="M68.5558 74.7593C69.5534 83.3041 70.8764 90.8445 68.1768 91.4429C64.072 92.3512 58.5869 90.1393 58.5869 81.4947C58.5869 72.8501 68.0946 70.7985 68.5558 74.7628V74.7593Z" fill="#FFCA0C"/>
</g>
<defs>
<clipPath id="clip0_266_1694">
<rect width="227" height="269" fill="white"/>
</clipPath>
</defs>
</svg>
