<svg width="246" height="40" viewBox="0 0 246 40" fill="none" xmlns="http://www.w3.org/2000/svg">
<g clip-path="url(#clip0_111_5200)">
<path d="M120.604 39.0238C119.924 39.0238 119.58 38.6781 119.58 37.9935V32.5029C119.58 31.8522 119.924 31.52 120.604 31.52H131.178V19.1153C131.178 18.4646 131.501 18.1325 132.155 18.1325H139.662C140.309 18.1325 140.639 18.4578 140.639 19.1153V31.52H157.014C157.695 31.52 158.038 31.8454 158.038 32.5029V37.9935C158.038 38.6781 157.695 39.0238 157.014 39.0238H120.611H120.604ZM154.474 25.0533C154.346 25.6769 153.988 25.9684 153.402 25.9345H146.286C145.962 25.9006 145.72 25.799 145.558 25.6159C145.396 25.4397 145.349 25.1821 145.41 24.8567C145.572 24.1721 145.727 23.2299 145.875 22.0369C146.023 20.8439 146.151 19.5153 146.266 18.0443C146.38 16.5734 146.475 15.0279 146.556 13.4146C146.636 11.7946 146.677 10.2355 146.677 8.73066H121.966C121.319 8.73066 120.988 8.40529 120.988 7.74778V2.01316C120.988 1.36242 121.312 1.03027 121.966 1.03027H155.302C155.983 1.03027 156.327 1.35564 156.327 2.01316L156.131 8.23583C156.037 10.9811 155.936 13.2384 155.842 15.0008C155.747 16.7632 155.633 18.2545 155.498 19.461C155.37 20.6676 155.222 21.6912 155.06 22.5249C154.898 23.3587 154.703 24.1992 154.474 25.0465V25.0533Z" fill="#2F80ED"/>
<path d="M163.638 20.5863C162.958 20.5863 162.614 20.261 162.614 19.6035V9.36112C162.614 8.71039 162.958 8.37824 163.638 8.37824H177.77V5.78207H163.537C162.857 5.78207 162.513 5.4567 162.513 4.79919V1.47094C162.513 0.8202 162.857 0.488053 163.537 0.488053H185.762C186.442 0.488053 186.786 0.813421 186.786 1.47094V11.5709C186.786 12.2217 186.442 12.5538 185.762 12.5538H171.583V15.2042H176.799C178.167 15.2042 179.515 15.1906 180.842 15.1568C182.177 15.1229 183.464 15.0619 184.717 14.9602C185.971 14.8585 187.157 14.7094 188.275 14.4925C189.394 14.2823 190.425 13.9976 191.368 13.6316V1.03033C191.368 0.345704 191.705 0 192.393 0H199.361C200.041 0 200.385 0.345704 200.385 1.03033V20.0034C200.385 20.6541 200.041 20.9863 199.361 20.9863H192.393C191.712 20.9863 191.368 20.6609 191.368 20.0034V18.485C189.744 19.2374 187.581 19.7797 184.886 20.1051C182.19 20.4304 179.165 20.5931 175.822 20.5931H163.638V20.5863ZM165.491 39.756C164.845 39.756 164.514 39.4306 164.514 38.7731V30.7812C164.514 30.0966 164.838 29.7509 165.491 29.7509H190.782V27.7919H165.491C164.845 27.7919 164.514 27.4665 164.514 26.809V24.4569C164.514 23.8061 164.838 23.474 165.491 23.474H199.408C200.055 23.474 200.385 23.7994 200.385 24.4569V32.2996C200.385 32.9503 200.062 33.2825 199.408 33.2825H174.164V35.3432H199.846C200.493 35.3432 200.823 35.6685 200.823 36.326V38.7799C200.823 39.4306 200.5 39.7628 199.846 39.7628H165.491V39.756Z" fill="#2F80ED"/>
<path d="M205.648 38.285V17.4479C205.648 16.7972 205.992 16.465 206.672 16.465H220.366V7.98509H206.571C205.891 7.98509 205.547 7.65972 205.547 7.0022V1.95899C205.547 1.30825 205.891 0.976106 206.571 0.976106H228.358C229.038 0.976106 229.382 1.30147 229.382 1.95899V22.2539C229.382 22.9046 229.038 23.2367 228.358 23.2367H214.617V32.2589H218.856C221.619 32.2589 224.281 32.0352 226.848 31.5946C229.416 31.154 231.626 30.4626 233.479 29.5136V1.03033C233.472 0.345704 233.816 0 234.497 0H241.465C242.145 0 242.489 0.345704 242.489 1.03033V14.5602H245.023C245.67 14.5602 246 14.9059 246 15.5906V22.1115C246 22.769 245.676 23.0944 245.023 23.0944H242.489V39.0239C242.489 39.6746 242.145 40.0068 241.465 40.0068H234.497C233.816 40.0068 233.472 39.6814 233.472 39.0239V35.9329C231.848 36.9768 229.679 37.797 226.963 38.3867C224.247 38.9764 221.221 39.2679 217.872 39.2679H206.666C205.985 39.2679 205.641 38.9426 205.641 38.285H205.648Z" fill="#2F80ED"/>
<path d="M7.972 21.2625H8.072V21.1625V18.668C8.072 18.4596 8.12376 18.3217 8.20971 18.2352C8.29555 18.1489 8.43233 18.0969 8.63914 18.0969H13.8011C14.0079 18.0969 14.1447 18.1489 14.2305 18.2352C14.3165 18.3217 14.3682 18.4596 14.3682 18.668V21.1625V21.2625H14.4682H25.7287C25.9505 21.2625 26.0961 21.3152 26.1867 21.4023C26.2766 21.4888 26.3296 21.6259 26.3296 21.8336V24.2603C26.3296 24.4823 26.2745 24.6285 26.1829 24.7199C26.0912 24.8114 25.946 24.8652 25.7287 24.8652H0.700835C0.48054 24.8652 0.33553 24.8099 0.244696 24.7179C0.153623 24.6256 0.1 24.4792 0.1 24.2603V21.8336C0.1 21.6267 0.154286 21.4893 0.245125 21.4026C0.33681 21.315 0.482823 21.2625 0.700835 21.2625H7.972ZM19.3673 31.5455H19.4673V31.4455V30.0627V29.9627H19.3673H1.13886C0.93204 29.9627 0.795263 29.9108 0.70942 29.8244C0.623469 29.738 0.571716 29.6 0.571716 29.3916V27.3716C0.571716 27.1632 0.623469 27.0253 0.70942 26.9388C0.795263 26.8525 0.932041 26.8005 1.13886 26.8005H25.2975C25.5043 26.8005 25.6411 26.8525 25.7269 26.9388C25.8129 27.0253 25.8646 27.1632 25.8646 27.3716V33.5401C25.8646 33.7485 25.8129 33.8864 25.7269 33.9729C25.6411 34.0592 25.5043 34.1111 25.2975 34.1111H7.1027H7.0027V34.2111V35.6278V35.7278H7.1027H25.4322C25.6391 35.7278 25.7758 35.7798 25.8617 35.8661C25.9476 35.9526 25.9994 36.0905 25.9994 36.2989V38.3528C25.9994 38.5612 25.9476 38.6992 25.8617 38.7856C25.7758 38.872 25.6391 38.9239 25.4322 38.9239H1.13886C0.93204 38.9239 0.795263 38.872 0.70942 38.7856C0.623469 38.6992 0.571716 38.5612 0.571716 38.3528V32.1505C0.571716 31.9271 0.624191 31.7802 0.710968 31.689C0.796827 31.5987 0.932831 31.5455 1.13886 31.5455H19.3673ZM24.2351 19.5106L24.2351 19.5102H24.226H19.2709C19.0684 19.4909 18.9267 19.4238 18.8337 19.3249C18.7493 19.235 18.7144 19.0968 18.7576 18.892L18.7578 18.8909C18.8261 18.5476 18.8871 18.1103 18.9412 17.5662C18.9953 17.0221 19.0359 16.4641 19.0562 15.8719L19.0597 15.7685H18.9563H1.30733C1.10051 15.7685 0.961654 15.7165 0.873988 15.6297C0.786488 15.543 0.733447 15.4051 0.733447 15.1974V12.3979C0.733447 12.1895 0.785194 12.0517 0.871727 11.9653C0.958291 11.8789 1.09676 11.8268 1.30733 11.8268H24.8931C25.1149 11.8268 25.2605 11.8795 25.3511 11.9666C25.4407 12.0529 25.4937 12.1895 25.494 12.3962L25.4266 14.3466L25.4266 14.3466V14.3501C25.4266 14.6854 25.4066 15.062 25.3797 15.4887C25.3461 15.9135 25.2992 16.3455 25.2454 16.778L25.2454 16.7782C25.1917 17.2173 25.1312 17.6292 25.0641 18.0207C24.9973 18.4106 24.9308 18.725 24.8647 18.9714C24.8 19.166 24.7248 19.3075 24.636 19.4087C24.566 19.4885 24.4444 19.5298 24.2351 19.5106Z" fill="#FFCA0C" stroke="#DB9900" stroke-width="0.2"/>
<path d="M39.6982 22.9504H39.7982V22.8504V17.0209V16.9209H39.6982H30.2167C29.995 16.9209 29.8493 16.8682 29.7587 16.781C29.6689 16.6946 29.6159 16.5574 29.6159 16.3498V12.8792C29.6159 12.6723 29.6702 12.535 29.761 12.4482C29.8527 12.3606 29.9987 12.3081 30.2167 12.3081H45.1971C45.4188 12.3081 45.5644 12.3608 45.655 12.448C45.7449 12.5344 45.7979 12.6715 45.7979 12.8792V26.8294C45.7979 27.0363 45.7436 27.1736 45.6528 27.2604C45.5611 27.348 45.4151 27.4004 45.1971 27.4004H35.7493H35.6493V27.5004V33.7028V33.8028H35.7493H38.6672C40.5727 33.8028 42.4114 33.6533 44.1764 33.3472C45.9493 33.0408 47.4756 32.5637 48.7602 31.9074L48.8147 31.8796V31.8184V12.2352C48.8147 12.0133 48.8698 11.8671 48.9614 11.7756C49.0531 11.6841 49.1983 11.6303 49.4156 11.6303H54.2068C54.4271 11.6303 54.5722 11.6856 54.663 11.7776C54.7541 11.8699 54.8077 12.0163 54.8077 12.2352V21.5354V21.6354H54.9077H56.653C56.8583 21.6354 56.9945 21.6898 57.0807 21.7811C57.1679 21.8735 57.2202 22.0207 57.2202 22.2403V26.7209C57.2202 26.9293 57.1684 27.0673 57.0825 27.1537C56.9966 27.2401 56.8598 27.292 56.653 27.292H54.9077H54.8077V27.392V38.3461C54.8077 38.553 54.7534 38.6903 54.6626 38.7771C54.5709 38.8646 54.4249 38.9171 54.2068 38.9171H49.4156C49.1938 38.9171 49.0482 38.8645 48.9576 38.7773C48.8677 38.6909 48.8147 38.5537 48.8147 38.3461V36.2244V36.0413L48.6607 36.1403C47.5554 36.8502 46.0785 37.4094 44.2189 37.8145C42.3605 38.2195 40.2854 38.4223 37.9933 38.4223H30.2841C30.0623 38.4223 29.9167 38.3696 29.8261 38.2825C29.7363 38.196 29.6833 38.0589 29.6833 37.8512V37.8445V23.5215C29.6833 23.3146 29.7375 23.1772 29.8284 23.0905C29.9201 23.0029 30.0661 22.9504 30.2841 22.9504H39.6982Z" fill="#FFCA0C" stroke="#DB9900" stroke-width="0.2"/>
<path d="M67.1453 21.2625H67.2453V21.1625V18.668C67.2453 18.4596 67.2971 18.3217 67.383 18.2352C67.4689 18.1489 67.6057 18.0969 67.8125 18.0969H72.9744C73.1812 18.0969 73.318 18.1489 73.4038 18.2352C73.4898 18.3217 73.5416 18.4596 73.5416 18.668V21.1625V21.2625H73.6416H84.9021C85.1238 21.2625 85.2695 21.3152 85.3601 21.4023C85.4499 21.4888 85.5029 21.6259 85.5029 21.8336V24.2603C85.5029 24.4823 85.4478 24.6285 85.3562 24.7199C85.2646 24.8114 85.1194 24.8652 84.9021 24.8652H59.8742C59.6539 24.8652 59.5089 24.8099 59.418 24.7179C59.327 24.6256 59.2733 24.4792 59.2733 24.2603V21.8336C59.2733 21.6267 59.3276 21.4893 59.4185 21.4026C59.5102 21.315 59.6562 21.2625 59.8742 21.2625H67.1453ZM78.5407 31.5455H78.6407V31.4455V30.0627V29.9627H78.5407H60.3122C60.1054 29.9627 59.9686 29.9108 59.8828 29.8244C59.7968 29.738 59.7451 29.6 59.7451 29.3916V27.3716C59.7451 27.1632 59.7968 27.0253 59.8828 26.9388C59.9686 26.8525 60.1054 26.8005 60.3122 26.8005H84.4708C84.6776 26.8005 84.8144 26.8525 84.9002 26.9388C84.9862 27.0253 85.0379 27.1632 85.0379 27.3716V33.5401C85.0379 33.7485 84.9862 33.8864 84.9002 33.9729C84.8144 34.0592 84.6776 34.1111 84.4708 34.1111H66.276H66.176V34.2111V35.6278V35.7278H66.276H84.6056C84.8124 35.7278 84.9492 35.7798 85.035 35.8661C85.121 35.9526 85.1727 36.0905 85.1727 36.2989V38.3528C85.1727 38.5612 85.121 38.6992 85.035 38.7856C84.9492 38.872 84.8124 38.9239 84.6056 38.9239H60.3122C60.1054 38.9239 59.9686 38.872 59.8828 38.7856C59.7968 38.6992 59.7451 38.5612 59.7451 38.3528V32.1505C59.7451 31.9271 59.7975 31.7802 59.8843 31.689C59.9702 31.5987 60.1062 31.5455 60.3122 31.5455H78.5407ZM84.0306 18.9742L84.01 19.0506C83.9518 19.2051 83.8856 19.3218 83.8094 19.4087C83.7393 19.4885 83.6178 19.5298 83.4084 19.5106L83.4085 19.5102H83.3993H78.4442C78.2417 19.4909 78.1 19.4238 78.0071 19.3249C77.9227 19.235 77.8878 19.0968 77.9309 18.892L77.9312 18.8909C77.9994 18.5476 78.0605 18.1103 78.1145 17.5662C78.1686 17.0221 78.2092 16.4641 78.2295 15.8719L78.2331 15.7685H78.1296H60.4739C60.2671 15.7685 60.1283 15.7165 60.0406 15.6297C59.9531 15.543 59.9 15.4051 59.9 15.1974V12.3979C59.9 12.1895 59.9518 12.0517 60.0383 11.9653C60.1249 11.8789 60.2634 11.8268 60.4739 11.8268H84.0597C84.2815 11.8268 84.4271 11.8795 84.5177 11.9666C84.6073 12.0529 84.6603 12.1895 84.6606 12.3962L84.5932 14.3466L84.5932 14.3466V14.3501C84.5932 14.6854 84.5732 15.0619 84.5463 15.4885C84.5127 15.9134 84.4658 16.3454 84.412 16.778L84.412 16.7782C84.3583 17.2173 84.2978 17.6292 84.2307 18.0207C84.1636 18.4121 84.0969 18.7274 84.0306 18.9742Z" fill="#FFCA0C" stroke="#DB9900" stroke-width="0.2"/>
<path d="M87.3936 35.5396L87.3755 35.5457C87.3672 35.7191 87.4062 35.8419 87.4786 35.9277C87.5604 36.0245 87.7002 36.0926 87.9187 36.1182L87.3936 35.5396ZM87.3936 35.5396L87.4005 35.4761L88.9639 21.2412L88.964 21.2407C88.9858 21.0341 89.0552 20.9032 89.1557 20.827C89.2573 20.75 89.4098 20.7144 89.6279 20.7399L89.6285 20.7399L98.9887 21.777L99.0881 21.7881L99.0991 21.6886L99.7393 15.893L99.7503 15.7936L99.6509 15.7826L90.2239 14.7388C90.2238 14.7388 90.2237 14.7388 90.2236 14.7388C90.005 14.7132 89.8651 14.6451 89.7833 14.5482C89.7024 14.4524 89.6632 14.3104 89.685 14.1032C89.685 14.1031 89.685 14.103 89.685 14.103L90.0624 10.6531L90.0624 10.6527C90.0842 10.446 90.1536 10.3151 90.2542 10.239C90.3558 10.162 90.5082 10.1264 90.7263 10.1518L90.7269 10.1519L105.612 11.8058C105.612 11.8058 105.613 11.8058 105.613 11.8058C105.831 11.8313 105.971 11.8995 106.053 11.9964C106.134 12.0922 106.173 12.2341 106.151 12.4413C106.151 12.4414 106.151 12.4415 106.151 12.4416L104.628 26.31L104.628 26.3104C104.606 26.5178 104.538 26.6485 104.439 26.7244C104.338 26.801 104.186 26.8368 103.964 26.8113L103.964 26.8113L94.5699 25.7674L94.4703 25.7563L94.4594 25.8559L93.7856 32.0176L93.7747 32.1167L93.8738 32.1278L96.7715 32.4532L96.7716 32.4532C98.6637 32.6639 100.509 32.7184 102.301 32.6095C104.094 32.5006 105.668 32.1941 107.014 31.6813L107.071 31.6595L107.078 31.5987L109.214 12.1382C109.214 12.1381 109.214 12.138 109.214 12.1378C109.239 11.9189 109.31 11.7787 109.411 11.6969C109.512 11.6155 109.661 11.5771 109.878 11.6024L109.879 11.6025L114.642 12.1311C114.642 12.1312 114.643 12.1312 114.643 12.1312C114.86 12.1566 114.999 12.2273 115.08 12.329C115.162 12.4305 115.2 12.5815 115.175 12.7999L115.175 12.8004L114.157 22.0463L114.146 22.1457L114.245 22.1566L115.977 22.3464L115.978 22.3465C116.183 22.3684 116.313 22.4368 116.389 22.5369C116.465 22.6382 116.501 22.7917 116.475 23.0153L116.475 23.0156L115.983 27.4691L115.983 27.4696C115.961 27.6777 115.894 27.8092 115.799 27.8858C115.703 27.9625 115.559 27.9992 115.352 27.9772C115.352 27.9771 115.352 27.9771 115.352 27.9771L113.62 27.7874L113.521 27.7765L113.51 27.8759L112.317 38.7622L112.317 38.7626C112.295 38.9692 112.226 39.1001 112.125 39.1763C112.024 39.2533 111.871 39.2889 111.653 39.2635L111.653 39.2634L106.889 38.7347C106.889 38.7347 106.889 38.7347 106.889 38.7347C106.67 38.7092 106.53 38.6411 106.448 38.5442C106.367 38.4483 106.328 38.3064 106.35 38.0992L106.35 38.0989L106.579 35.9911L106.599 35.8094L106.435 35.8908C105.264 36.4734 103.733 36.8645 101.84 37.0603C99.9479 37.256 97.8662 37.2292 95.5808 36.9723L95.5807 36.9723L87.9192 36.1182L87.3936 35.5396Z" fill="#FFCA0C" stroke="#DB9900" stroke-width="0.2"/>
<path d="M20.7824 5.76846L20.8811 5.75268C20.8777 5.73135 20.8743 5.71004 20.8709 5.68876C20.8123 5.32482 20.7549 4.96864 20.8327 4.63182L20.8329 4.63073C20.848 4.56192 20.8684 4.48781 20.8906 4.407C20.8998 4.3739 20.9092 4.33968 20.9187 4.30423C20.9506 4.18494 20.9822 4.0557 20.9987 3.92632C21.0315 3.66861 21.0066 3.38918 20.7833 3.18055L20.7828 3.18011C20.7573 3.15661 20.735 3.13467 20.7125 3.11256C20.6999 3.10023 20.6873 3.08786 20.6741 3.07513C20.6393 3.04169 20.602 3.00763 20.5612 2.9801C20.5195 2.95195 20.4719 2.92902 20.4161 2.91958C20.36 2.9101 20.3019 2.91531 20.2404 2.93448L20.224 2.9396L20.2103 2.94989C20.0112 3.09893 19.8245 3.24185 19.6466 3.37799C19.5653 3.44015 19.486 3.5009 19.4081 3.56018C19.1696 3.73841 18.8337 3.64877 18.718 3.37712L18.7178 3.37675L18.3674 2.56333L18.3674 2.56333L18.3671 2.56268C18.2621 2.32356 18.3781 2.04518 18.6218 1.95047L18.622 1.95039L18.9859 1.80804L18.9859 1.80804L18.9868 1.80768C19.9739 1.41052 20.9379 0.802324 21.8338 0.212848L21.8869 0.179505L21.8869 0.179518L21.8883 0.178595C22.095 0.0437339 22.3654 0.0900496 22.5079 0.283044L22.5082 0.283412C22.6403 0.460629 22.6243 0.711142 22.4691 0.872912L22.4691 0.872898L22.4677 0.874329L22.3807 0.968644C22.2638 1.09137 22.1684 1.20587 22.0775 1.31499C22.046 1.35276 22.0151 1.38988 21.984 1.42647C21.8622 1.56982 21.733 1.71116 21.5466 1.86907C21.4883 1.91849 21.4908 1.99255 21.4967 2.03386C21.5036 2.08205 21.5223 2.13673 21.5462 2.19287C21.5948 2.30655 21.6755 2.45025 21.7722 2.6064C21.9525 2.8976 22.1966 3.24507 22.4169 3.54861L22.4103 3.55532L22.4603 3.6242C23.4684 5.01255 24.5473 6.17694 26.212 6.8109L26.2121 6.81097C29.4816 8.04941 32.6297 6.44264 35.4645 4.97633C35.5099 4.95349 35.5626 4.92573 35.6182 4.89641C35.7195 4.843 35.8306 4.78443 35.9252 4.74113C35.9787 4.71728 36.0314 4.70256 36.0795 4.70256V4.7028L36.0865 4.70231L37.0501 4.63453L37.0515 4.63442C37.182 4.62348 37.3085 4.67239 37.4035 4.76796L37.403 4.76839L37.4117 4.77536L37.4409 4.79884C37.5877 4.94978 37.6135 5.17557 37.5096 5.35159L37.5093 5.35204L37.2128 5.86043L37.2127 5.86035L37.2101 5.86529C37.089 6.10216 36.9624 6.34351 36.8295 6.56398C34.5448 10.3313 30.0448 12.9945 26.009 11.6791L26.0073 11.6786C23.3694 10.8699 21.3333 8.48151 20.881 5.75211L20.7824 5.76846ZM20.7824 5.76846C21.2406 8.53409 23.3027 10.954 25.978 11.7742L20.715 3.25363C21.0248 3.54304 20.8986 4.00152 20.795 4.3777C20.7724 4.45969 20.7509 4.53777 20.7352 4.60933C20.6529 4.96598 20.7134 5.34058 20.7713 5.6994C20.775 5.72249 20.7787 5.74551 20.7824 5.76846ZM21.8336 0.0948455L21.7797 0.128738C20.8835 0.718469 19.9266 1.32176 18.9494 1.71491L18.5855 1.85726C18.289 1.97249 18.1475 2.31142 18.2755 2.60289L21.8336 0.0948455ZM21.8336 0.0948455C22.083 -0.0678387 22.4132 -0.0136106 22.5884 0.223637M21.8336 0.0948455L22.5884 0.223637M22.5884 0.223637C22.7501 0.44055 22.7299 0.745583 22.5412 0.942159M22.5884 0.223637L22.5412 0.942159M22.5412 0.942159L22.4536 1.03706L22.5412 0.942159Z" fill="#FFCA0C" stroke="#DB9900" stroke-width="0.2"/>
</g>
<defs>
<clipPath id="clip0_111_5200">
<rect width="246" height="40" fill="white"/>
</clipPath>
</defs>
</svg>
