<svg width="405" height="89" viewBox="0 0 405 89" fill="none" xmlns="http://www.w3.org/2000/svg">
<path d="M0.26002 84.1C7.36002 86.5 14.25 84.2 18.64 78.38C23.25 72.54 25.71 65.17 28.37 58.17C67.42 59.65 109.16 55.27 140.95 30.69C151.35 22.77 160.18 12.97 167.5 2.12003C168.77 0.210029 171.98 1.85005 170.8 4.14005C164.25 16.03 155.41 26.82 144.76 35.5C139.46 39.86 133.71 43.68 127.71 47.01C103.69 60.01 75.68 65.16 48.57 62.76C41.83 62.1 35.13 61.08 28.62 59.17L29.2 58.79C28.69 64.55 27.33 70.38 24.79 75.63C21.43 83.08 13.89 89.86 5.19002 87.61C3.18002 87.12 1.32002 86.28 -0.25998 84.97C-0.46998 84.79 -0.49998 84.48 -0.32998 84.26C-0.17998 84.08 0.05002 84.04 0.26002 84.12V84.1Z" fill="#7ACE90"/>
<path d="M226.85 5.00983C239.11 0.329831 253.2 -0.950193 265.63 4.07981C269.86 5.79981 273.78 8.42982 277.09 11.6598C280.29 14.7198 282.62 18.4898 285.31 21.9598C297.78 38.1298 313.73 52.7198 333.28 59.3298C348.78 64.7298 366.01 63.6598 381.24 57.7098C389.06 54.8098 396.49 50.7298 403.7 46.1998C403.95 46.0398 404.29 46.1198 404.45 46.3698C404.59 46.5998 404.55 46.8898 404.36 47.0598C394.75 55.6998 383.23 62.7298 370.69 66.4498C334.08 77.5098 300.29 55.1498 280.04 25.8398C277.58 22.5298 275.66 18.7998 272.85 15.7598C263.11 4.91983 247.21 2.98982 233.38 4.77982C231.28 5.02982 229.18 5.38983 227.12 5.84983C226.88 5.89983 226.64 5.74983 226.58 5.50983C226.53 5.28983 226.65 5.07982 226.85 4.99982V5.00983Z" fill="#7ACE90"/>
</svg>
