<svg width="30" height="30" viewBox="0 0 30 30" fill="none" xmlns="http://www.w3.org/2000/svg">
<rect x="1" y="1" width="28" height="28" rx="14" stroke="#E9ECEF"/>
<mask id="mask0_130_2309" style="mask-type:luminance" maskUnits="userSpaceOnUse" x="1" y="1" width="28" height="28">
<path d="M15 29C22.732 29 29 22.732 29 15C29 7.26801 22.732 1 15 1C7.26801 1 1 7.26801 1 15C1 22.732 7.26801 29 15 29Z" fill="white"/>
</mask>
<g mask="url(#mask0_130_2309)">
<path d="M15 29C22.732 29 29 22.732 29 15C29 7.26801 22.732 1 15 1C7.26801 1 1 7.26801 1 15C1 22.732 7.26801 29 15 29Z" fill="#FDFCE6"/>
<path d="M17.723 4.61755C15.2776 3.91825 12.9342 4.08681 10.6884 5.07742C10.6504 5.09384 10.6132 5.11286 10.5778 5.13447C7.20313 7.13472 5.87885 12.4431 5.49246 15.4841C5.10434 18.5406 5.20893 23.6061 4.42059 24.493C3.63225 25.3798 -5.66968 26.8839 -8.52915 34.0827C-11.3886 41.2815 -5.89097 45.5751 -2.16449 46.449C1.3891 47.2823 2.11175 46.8708 2.18003 46.3211C2.24919 45.7713 3.3954 41.5608 2.71078 41.9428C0.544569 43.1539 -5.71809 39.4239 -3.21303 36.0838C-0.707963 32.7438 2.01407 33.3644 2.94763 33.6445C3.88033 33.9245 4.39638 41.011 5.2582 44.5456C7.01296 51.7426 7.76932 54.2347 7.58001 55.8356C7.39071 57.4365 8.2603 57.1746 9.59322 57.1746C10.9261 57.1746 11.0013 54.5701 11.8113 53.1758C12.6213 51.7816 17.972 51.2499 18.7819 53.2424C19.5919 55.234 19.1216 57.191 20.777 57.191H22.0537C22.5819 57.191 22.9726 57.0735 22.8991 56.6499C22.6934 55.4639 24.0427 49.8098 24.6582 47.0402C26.3956 39.2191 28.4979 34.6463 30.9234 31.8474C33.349 29.0484 40.3446 20.4259 40.2513 13.1493C40.1891 8.29822 39.182 8.41837 38.9521 8.40281C38.5933 8.37861 38.2095 8.20832 37.8897 8.53074C37.7808 8.64052 37.6131 8.71918 37.4169 8.74512L37.3832 8.74944C37.2449 8.76759 37.1022 8.76068 36.97 8.73042C36.6527 8.65695 36.0364 8.52815 35.746 8.56618C35.5627 8.59039 35.4279 8.69152 35.3362 8.79439C35.191 8.9569 34.9118 9.0468 34.6231 9.0347C34.4148 9.02605 34.2281 9.0321 34.1589 9.12459C34.0742 9.23697 34.3595 9.64497 34.3828 9.77722C34.6516 11.2882 31.0868 22.6336 27.5298 23.9466C24.6046 25.0263 25.6082 20.6394 24.9054 16.2171C24.0877 9.29575 21.6976 5.42319 17.7247 4.61496L17.723 4.61755Z" fill="#E4678A"/>
<path d="M9.6113 14.3007C8.54548 14.9291 7.98102 17.7532 9.17996 18.137C10.3789 18.5208 10.9546 18.7602 11.1465 19.144C11.3384 19.5278 8.84457 22.4054 10.2354 23.9873C11.6262 25.57 17.8604 26.8165 19.1553 24.467C20.4501 22.1176 17.3806 19.7672 17.9088 19.144C18.4369 18.5208 21.9853 18.8086 21.9853 17.1299C21.9853 15.4512 20.4986 12.5261 18.245 12.718C15.9907 12.9099 11.4827 13.1977 9.61303 14.3007H9.6113Z" fill="#FFCA0C"/>
<path d="M12.5054 19.948C12.5054 19.7293 13.3482 19.559 13.9317 19.8183C14.5151 20.0776 14.7425 20.8885 14.1261 21.0181C13.5098 21.1478 13.6395 20.439 13.2185 20.356C12.7975 20.273 12.5054 20.1675 12.5054 19.9488V19.948Z" fill="#002327"/>
<path d="M17.0533 20.6446C17.163 20.4103 16.7378 19.6903 15.8491 20.1251C15.3339 20.3766 14.8715 20.6904 15.3728 20.9696C15.8742 21.2488 15.9434 20.6783 16.3297 20.7397C16.7161 20.801 16.9789 20.801 17.0533 20.6437V20.6446Z" fill="#002327"/>
<path d="M24.1924 15.5369C24.2296 16.5673 23.7619 18.826 24.2763 19.2357C25.0629 19.8616 26.3941 18.947 26.3941 17.0298C26.3941 15.1125 24.1604 14.6492 24.1924 15.5369Z" fill="#FFCA0C"/>
<path d="M5.8164 15.9467C6.03683 17.8415 6.329 19.5132 5.73255 19.6455C4.82579 19.8469 3.61475 19.3568 3.61475 17.4395C3.61475 15.5222 5.7144 15.0676 5.8164 15.9467Z" fill="#FFCA0C"/>
<mask id="mask1_130_2309" style="mask-type:luminance" maskUnits="userSpaceOnUse" x="10" y="15" width="5" height="4">
<path d="M14.7842 15.9917L14.9424 18.3135H10.2798L10.6333 17.3739C10.7984 16.9356 10.7552 16.7878 11.1675 16.5933L14.7834 15.9926L14.7842 15.9917Z" fill="white"/>
</mask>
<g mask="url(#mask1_130_2309)">
<path d="M12.1961 15.3354C11.3862 15.555 10.3541 17.4835 12.3543 18.1837C14.3554 18.8847 15.0807 16.53 14.4929 15.829C13.9051 15.128 13.1694 15.0709 12.1961 15.3346V15.3354Z" fill="#EAF6FD"/>
<path d="M13.5487 17.7947C14.1249 17.7947 14.5921 17.3276 14.5921 16.7514C14.5921 16.1751 14.1249 15.708 13.5487 15.708C12.9725 15.708 12.5054 16.1751 12.5054 16.7514C12.5054 17.3276 12.9725 17.7947 13.5487 17.7947Z" fill="#002327"/>
</g>
<path d="M15.5894 22.3272C15.0612 22.5614 13.6609 21.8907 13.8121 22.462C13.9634 23.0334 15.4156 23.8624 16.3457 23.3135C17.2758 22.7646 18.3512 21.6616 18.0296 21.3582C17.4245 20.7885 16.8065 21.7869 15.5894 22.3272Z" fill="white"/>
<path d="M15.6585 22.4818C15.1001 22.6737 14.5409 22.3573 13.9937 22.3685C13.9539 22.3711 13.9289 22.3867 13.9384 22.3798C13.9401 22.372 13.941 22.3763 13.9384 22.3798C13.9375 22.3867 13.9384 22.4022 13.9418 22.4195C14.1847 23.1681 15.6067 23.628 16.2662 23.2079C16.8722 22.8206 17.4773 22.3236 17.8481 21.7072C17.8801 21.6441 17.9294 21.543 17.906 21.4894C17.8101 21.422 17.7193 21.3727 17.5879 21.3874C17.3053 21.4401 17.0649 21.6398 16.8117 21.8058C16.4547 22.0539 16.0752 22.3028 15.6577 22.4818H15.6585ZM15.5211 22.1723C15.9014 21.9986 16.2489 21.76 16.5999 21.5041C17.0105 21.2007 17.6588 20.7114 18.1316 21.2024C18.7255 21.7626 17.1168 22.9797 16.6829 23.2597C15.8081 23.9452 14.5815 23.5355 13.8692 22.8111C13.6981 22.6451 13.5252 22.244 13.845 22.1178C14.0023 22.0599 14.1769 22.0859 14.3204 22.0997C14.7172 22.1351 15.1425 22.2899 15.5202 22.1714L15.5211 22.1723Z" fill="#002327"/>
<mask id="mask2_130_2309" style="mask-type:luminance" maskUnits="userSpaceOnUse" x="14" y="15" width="7" height="5">
<path d="M20.7957 15.9917H14.9419V19.1373H20.7957V15.9917Z" fill="white"/>
</mask>
<g mask="url(#mask2_130_2309)">
<path d="M16.0726 15.3354C15.2626 15.555 14.2305 17.4835 16.2308 18.1837C18.231 18.8838 18.9571 16.53 18.3693 15.829C17.7815 15.128 17.0459 15.0709 16.0726 15.3346V15.3354Z" fill="#EAF6FD"/>
<path d="M17.5057 17.7947C18.082 17.7947 18.5491 17.3276 18.5491 16.7514C18.5491 16.1751 18.082 15.708 17.5057 15.708C16.9295 15.708 16.4624 16.1751 16.4624 16.7514C16.4624 17.3276 16.9295 17.7947 17.5057 17.7947Z" fill="#002327"/>
</g>
<path d="M11.1516 7.86977C11.4671 7.44707 11.7178 6.94485 11.7429 6.41755C11.7723 5.9283 11.5354 5.41225 11.0548 5.26184C10.6105 5.11402 10.0478 5.27307 9.70116 5.57303C9.43146 5.80728 9.28537 6.16083 9.25166 6.5161C9.21276 6.7469 9.30439 7.21713 9.33465 7.45053C8.76673 7.02696 8.04408 6.43139 7.31106 6.73306C7.16757 6.78925 7.0794 6.88347 6.97913 6.99844C5.50271 8.65119 9.28278 10.1112 10.4368 10.5978L10.6434 10.68C10.6356 10.705 10.6036 10.9082 10.5915 10.9315C10.5612 11.037 10.5154 11.139 10.4592 11.2323C10.0391 11.9558 9.09434 12.076 8.3544 11.8893C8.26623 11.8677 8.28266 11.738 8.37169 11.738C9.05112 11.7458 9.95529 11.5573 10.1135 10.7967L10.2829 11.0724C9.91294 10.9678 9.56544 10.8399 9.21536 10.6981C7.5384 10.0239 4.7135 8.29851 6.79933 6.40459C7.55309 5.84964 8.52469 6.19281 9.15658 6.7054L8.76154 6.93447C8.73561 6.6181 8.77624 6.30864 8.88083 6.00869C9.24734 4.78382 11.2415 4.2937 11.8734 5.54623C12.1492 6.10118 12.0316 6.74949 11.761 7.26986C11.6279 7.52486 11.4611 7.75826 11.2752 7.96917C11.2467 8.00202 11.1966 8.00548 11.1637 7.97609C11.1326 7.94843 11.1283 7.90175 11.1525 7.8689L11.1516 7.86977Z" fill="#FFCA0C"/>
<path d="M20.3644 10.7991C21.3291 10.2485 22.3707 9.64083 22.853 8.60267C22.9187 8.46263 22.9732 8.31482 23.0293 8.14712C23.0397 8.1065 23.102 8.10304 23.1158 8.1428C23.4953 9.27172 22.2713 10.1577 21.3775 10.5632C21.0602 10.7041 20.7335 10.8164 20.392 10.8804C20.3445 10.8899 20.3194 10.8199 20.3644 10.7983V10.7991Z" fill="#FFCA0C"/>
</g>
</svg>
